<svg xmlns="http://www.w3.org/2000/svg" viewBox="0 0 386.61 96.03"><defs><style>.cls-1{fill:#a4d8e0;}</style></defs><title>Binggrae-PopTop</title><g id="Capa_2" data-name="Capa 2"><g id="Diseño"><path class="cls-1" d="M88.29,11.8C88.29,3.89,84.41,0,72.52,0,53.81,0,0,24.38,0,63.2c0,9.72,6.35,19.71,29.81,19.71S82.43,62.23,82.43,45.12c0-13.25-13.53-11-13.53-12.5S88.29,27,88.29,11.8Zm-42.84,27s9.61,3.75,9.61,14-10.92,26.06-21,26.06c-20.86,0,2.11-70.7,21-70.7,6.35,0,8,5,8,10.1C63,31.44,45.45,38.77,45.45,38.77Z"/><path class="cls-1" d="M101.16,70.65c0-1.09-3.26-2.42-3.26-4.79,0-2.17,13.28-34.42,9.79-34.42-4,0-17.07,5.1-17.07,7.93,0,1.41,3.59,2.39,3.59,4.12S83.57,74.77,83.57,76.07s.43,2.77,2.49,2.77S101.16,74.13,101.16,70.65Z"/><ellipse class="cls-1" cx="107.36" cy="17.93" rx="8.34" ry="6.18" transform="translate(21.37 84.67) rotate(-47.3)"/><path class="cls-1" d="M146.29,65.86c0-3.25,17.31-34.42-.28-34.42-6.5,0-13.91,7.74-17.53,12.06,2-6.87,3.15-12,2-12-4,0-17.06,5.11-17.06,7.93,0,1.41,3.58,2.39,3.58,4.13,0,1.43-8.17,24.25-10.79,32.29a1,1,0,0,0,1,1.32h7.14a4.11,4.11,0,0,0,3.88-2.76c1.44-4.16,3.78-10.77,6-17.58h0s8.26-17.46,14.8-17.46c8.61,0-7.34,30-7.34,36,0,3.09,1.24,3.44,3.47,3.44,2.85,0,14.38-4.71,14.38-8.19C149.54,69.56,146.29,68.23,146.29,65.86Z"/><path class="cls-1" d="M279,30.71c-6.5,0-11.92,10.8-13.91,12.79,2-6.87,3.16-12,2-12-4,0-17.07,5.11-17.07,7.93,0,1.41,3.59,2.39,3.59,4.13,0,1.43-8.17,24.25-10.79,32.29a1,1,0,0,0,1,1.32h7.14a4.12,4.12,0,0,0,3.88-2.76c1.44-4.16,9.82-32.49,16.37-32.49,1.56,0,.17,5,5.24,5S287.76,30.71,279,30.71Z"/><path class="cls-1" d="M202.21,32.17h-11.5c-2.52,0-2-.73-5.81-.73-16.27,0-28,18-28,28.93,0,11.79,4.64,14.4,12.87,14.4,6.43,0,8.06.73,8.06,5S172.59,89,166,89s-7.49-2-7.49-4.17,2.12-2.67,2.12-3.48c0-1.27-1.41-1.67-4.22-1.67-4.48,0-9.47,4.56-9.47,9.24,0,4.32,4.64,7.09,18.82,7.09s22.31-10.87,22.31-16.73c0-8.11-6-8.28-6-8.28s14.82-9.3,14.82-24.09c0-6.67-.9-7.92-.9-7.92h3.67a4.74,4.74,0,0,0,4.72-4.39C204.35,33.39,203.84,32.17,202.21,32.17Zm-31.41,37c-7.66,0,.81-32.09,12.78-32.09C190.91,37.06,181.87,69.15,170.8,69.15Z"/><path class="cls-1" d="M245.46,32.17H234c-2.52,0-2-.73-5.81-.73-16.27,0-28,18-28,28.93,0,11.79,4.64,14.4,12.87,14.4,6.43,0,8.06.73,8.06,5S215.84,89,209.24,89s-7.49-2-7.49-4.17,2.11-2.67,2.11-3.48c0-1.27-1.4-1.67-4.21-1.67-4.48,0-9.47,4.56-9.47,9.24,0,4.32,4.64,7.09,18.82,7.09s22.31-10.87,22.31-16.73c0-8.11-6-8.28-6-8.28s14.83-9.3,14.83-24.09c0-6.67-.9-7.92-.9-7.92h3.67a4.74,4.74,0,0,0,4.72-4.39C247.6,33.39,247.09,32.17,245.46,32.17ZM214,69.15c-7.65,0,.82-32.09,12.79-32.09C234.16,37.06,225.12,69.15,214,69.15Z"/><path class="cls-1" d="M311.29,65.74c0-2.72,12.17-32.46,10.32-34.3-1.36-1.36-9.56,4.45-9.56,4.45s-1.3-5.18-9.06-5.18c-10.65,0-27.64,20.53-27.64,33,0,12.91,5.73,14.54,10.37,14.54,8.39,0,15.56-11.33,15.56-11.33s-2,8.7-2,10.87c0,3.31,16.72-4.72,16.72-7.28C316,69,311.29,67.6,311.29,65.74ZM289.61,71c-7.65,0,2.74-33.36,14.71-33.36C312.36,37.66,300.69,71,289.61,71Z"/><path class="cls-1" d="M364,41.43c0-4.56-1.57-10.21-12.43-10.21-19.33,0-31.11,19.87-31.11,32.25,0,6.3,1.73,15.13,15.63,15.13,12.49,0,20.69-11,21.51-11.87s.86-2.93-1.09-2.93-8.91,7.55-16.83,7.55c-9.88,0-6.52-12.33-6.52-12.33C355.38,59,364,48.92,364,41.43ZM349.85,37c8,0,3.74,16.12-15.43,16.12C334.42,53.1,341.86,37,349.85,37Z"/><path class="cls-1" d="M371.45,37.62a7.58,7.58,0,1,1,7.6,7.57A7.61,7.61,0,0,1,371.45,37.62Zm14.07,0A6.49,6.49,0,1,0,379,44.18,6.54,6.54,0,0,0,385.52,37.62Zm-4,4.4a3.23,3.23,0,0,1-.26-1.45c0-1.84-.51-2.22-2.22-2.22h-2.16V42H375.8V33.35h3.79c1.72,0,2.91.79,2.91,2.36a2,2,0,0,1-1.6,2.1v0c1,.3,1.45.82,1.45,2.48a3.42,3.42,0,0,0,.27,1.69Zm-2.28-4.66c1.33,0,2.16-.5,2.16-1.59s-.69-1.41-2.06-1.41h-2.46v3Z"/></g></g></svg>