<svg xmlns="http://www.w3.org/2000/svg" viewBox="0 0 95.59 171.27"><defs><style>.cls-1{fill:#fff;}.cls-2{fill:#59b5d0;}.cls-3{fill:#e3de96;}.cls-4{fill:#f3edb6;}.cls-5{fill:#fdf8d0;}</style></defs><title>Chica-lectora-fondo-blanco</title><g id="Capa_2" data-name="Capa 2"><g id="Capa_1-2" data-name="Capa 1"><path class="cls-1" d="M45.65,33.74a1.63,1.63,0,0,0,1.13.67h.08A.57.57,0,0,0,47,33.27H46.9L47,31.54c.2-.47.44-1,.63-1.39a.57.57,0,0,0-.28-.76.5.5,0,0,0-.21-.05,7.16,7.16,0,0,0,.35-1.47,1.42,1.42,0,0,1,.47-.06,1.14,1.14,0,0,1,.47.07,6.7,6.7,0,0,0,6.61,5.89h0a6.71,6.71,0,0,0,4.61-1.85,15.28,15.28,0,0,1-3.6,8.15A10.81,10.81,0,0,1,48,43.16a11.33,11.33,0,0,1-8.73-3.52,17.34,17.34,0,0,1-3.84-8.7,6.68,6.68,0,0,0,10.29.76,4.51,4.51,0,0,0-.26.75A1.64,1.64,0,0,0,45.65,33.74Z"/><path class="cls-1" d="M53.42,49a1.92,1.92,0,0,0-.18-.28,3.48,3.48,0,0,1-.79-1.76,7.47,7.47,0,0,1,1.08.39A12.47,12.47,0,0,0,53.42,49Z"/><path class="cls-1" d="M54,45.35a8.37,8.37,0,0,0-1.68-.5,2.46,2.46,0,0,1,0-.28,12.6,12.6,0,0,0,2.47-1A12.8,12.8,0,0,0,54,45.35Z"/><path class="cls-2" d="M42.42,47.33A7.5,7.5,0,0,1,43.5,47a3.56,3.56,0,0,1-.78,1.75c-.07.08-.12.19-.19.28A9.8,9.8,0,0,0,42.42,47.33Z"/><path class="cls-1" d="M43.59,44.59c0,.08,0,.17,0,.26a8,8,0,0,0-1.66.5,12.81,12.81,0,0,0-.77-1.73A12.87,12.87,0,0,0,43.59,44.59Z"/><path class="cls-1" d="M51.8,51.14c-.34,1.17-1.07,2.37-3.82,2.37s-3.48-1.2-3.82-2.37a1.24,1.24,0,0,1,0-1.07,6.56,6.56,0,0,0,1.43-4.29v0c0-.26,0-.51,0-.74a16.26,16.26,0,0,0,4.69,0,7.09,7.09,0,0,0,1.44,5.07A1.24,1.24,0,0,1,51.8,51.14Z"/><path class="cls-1" d="M54.11,22.07a1.58,1.58,0,0,0,.33-.64,11.11,11.11,0,0,0,.68,1.38,3.21,3.21,0,0,0-2.48.75.81.81,0,0,0,0,1.14.81.81,0,0,0,1.14,0,2.32,2.32,0,0,1,2.26,0,1.66,1.66,0,0,1,1,1.84.81.81,0,0,0,.71.89h.09a.8.8,0,0,0,.79-.72,3.49,3.49,0,0,0,0-.46l.06.05a12.6,12.6,0,0,1,1.21,1,.91.91,0,0,0,.19.13c0,.44,0,.91,0,1.4a5.27,5.27,0,0,1-4.94,3.48h0a5.27,5.27,0,0,1-2.18-10.06l.12,0A1.18,1.18,0,0,0,54.11,22.07Z"/><path class="cls-1" d="M37.35,25.88a3.12,3.12,0,0,0,0,.81.8.8,0,0,0,.79.72h.09a.81.81,0,0,0,.71-.89,1.66,1.66,0,0,1,1-1.84,2.32,2.32,0,0,1,2.26,0,.8.8,0,0,0,1.13-1.14,3.75,3.75,0,0,0-3.84-.44,11,11,0,0,0,.87-1.69,3.07,3.07,0,0,0,.5.87,1.49,1.49,0,0,0,1.25.56,1.67,1.67,0,0,0,.88-.35,2,2,0,0,1,.28-.17,5.28,5.28,0,1,1-7.63,5.07C36.14,27,36.75,26.46,37.35,25.88Z"/><path class="cls-1" d="M27.34,56.21c-4.49,0-6.13-2.82-6.7-4.51-1.1-3.23-.06-7.23,2.36-9.09l1-.74c1.86-1.4,3.06-2.39,3.81-3.79a21.31,21.31,0,0,0,6,7.82A17,17,0,0,1,36,48.18c-2,1-4.69,2.7-4.41,4.67a4.54,4.54,0,0,0,.1.46c-1.44.93-2.9,2-4.19,2.93Z"/><path class="cls-1" d="M13.22,80.71h0c.08.23.14.43.18.57a25.2,25.2,0,0,1,.36,6.34c-1.43-.1-5.72-1.24-7.9-3.31C5.11,83.6,4.48,83.08,4,82.65c-1.36-1.14-1.68-1.41-1.84-3-.06-.57-.09-1.18-.1-1.8,1.32,1.3,3.55,3.21,5.52,3.63.66.14,1.15.27,1.53.36a5,5,0,0,0,1.16.22,1.19,1.19,0,0,0,.75-.25,1.51,1.51,0,0,0,.52-1.27c0-.25.14-.93.27-1.58s.22-1.22.31-1.77C12.5,78.47,13,79.86,13.22,80.71Z"/><path class="cls-1" d="M3.8,68.23A61.26,61.26,0,0,1,6.56,57c.67-1.3,5.31-3.22,6.82-3.35,2.44-.23,2.51-.07,2.71.37a1.11,1.11,0,0,1-.18,1c-1.65.09-4,1.35-6,2.51-.36.21-.62.36-.75.42a1,1,0,0,0-.54,1.29,1,1,0,0,0,1.27.59,21.05,21.05,0,0,1,4.54-1.14,2.35,2.35,0,0,1,.14.81l-1.08.36a11.92,11.92,0,0,0-2.19.71,1,1,0,0,0,.7,1.89l1.93-.62a2.58,2.58,0,0,1,.66-.07.79.79,0,0,1,.21.56.74.74,0,0,1-.4.49c-.14.09-.29.17-.44.25a3.28,3.28,0,0,0-.5.17,13.57,13.57,0,0,1-1.67.53,1,1,0,0,0,.38,2A9.35,9.35,0,0,0,14,65.3a.46.46,0,0,1-.08.21,2,2,0,0,1-1.27.77,6.85,6.85,0,0,0-2.13,1A4.12,4.12,0,0,1,7.83,68a1,1,0,1,0,0,2H8a16.46,16.46,0,0,0,1.89,7.23c0,.07.1.1.15.16-.07.42-.15.83-.22,1.18-.1.51-.18,1-.23,1.31-.4-.1-.92-.23-1.61-.38a9.76,9.76,0,0,1-3.66-2.3,1.13,1.13,0,0,0-.22-.4C3.75,76.22,3.18,72.78,3.8,68.23Z"/><path class="cls-1" d="M81.18,96.2a7.74,7.74,0,0,1-2,4.46,50.5,50.5,0,0,1-5.32,4.64c-.07,0-.13.06-.28,0a.6.6,0,0,1,.18-.28c1.18-1.25,4.75-4.68,4.79-4.72a1,1,0,0,0,0-1.41,1,1,0,0,0-.73-.32,1,1,0,0,0-.69.28,35.28,35.28,0,0,1-6.72,5.3l-.48.29a.78.78,0,0,1,.28-.46c.71-.64,5.11-4.35,5.11-4.35a1,1,0,0,0-1.27-1.57l-3.48,2.69A10.33,10.33,0,0,1,67,102.65a1.53,1.53,0,0,1,.62-.74c1.15-.77,6.32-4.79,6.54-5a1,1,0,0,0-1.23-1.59s-2.62,2-3.67,2.66l-.42.27c-1.28.86-1.48.77-1.62.67.09-.32,1-1,1.57-1.43.25-.19.51-.38.74-.57,1.35-1.08,4.15-3.25,4.15-3.25a1,1,0,0,0,.39-.8V90.39a26.92,26.92,0,0,1,3.18.59c1.82.55,4.3,3.5,4.12,4.26C81.31,95.54,81.25,95.86,81.18,96.2Z"/><path class="cls-1" d="M81.43,90.47a7.69,7.69,0,0,1,.24,1.34,9.94,9.94,0,0,0-3.83-2.75,29.15,29.15,0,0,0-3.76-.7V87.11C78.19,86.89,80.67,88,81.43,90.47Z"/><path class="cls-1" d="M41.11,88.7a2.61,2.61,0,0,0,1.09.23c.08,0,.37,0,.75.41,1.2,1.19,2.66,1.68,5,1.68s3.12-.13,4.32-1.33a1.11,1.11,0,0,1,.75-.4,2.74,2.74,0,0,0,1.09-.23l17.93-8V92.42l-3.79,3-.69.54c-1.34,1-3.17,2.38-2,4a2.66,2.66,0,0,0,.54.6,2.86,2.86,0,0,0-1,3.1,1.62,1.62,0,0,0,1.1,1,3.26,3.26,0,0,0,1.7-.12,2.23,2.23,0,0,0,.43,1.36,1.83,1.83,0,0,0,2.51.38l.58-.36.17-.1a2.05,2.05,0,0,0,.44.84l0,0v3.68l-16.73,7.31a2.2,2.2,0,0,1-.68.14,3.1,3.1,0,0,0-1.93,1,7.49,7.49,0,0,1-9.5,0,3.1,3.1,0,0,0-1.93-1,2,2,0,0,1-.69-.15l-16.13-6.94L23.92,81.2Z"/><path class="cls-1" d="M40.81,144.49c-.17-.16-.36-.33-.63-.6s-.72-.72-1.09-1.13a4,4,0,0,0,.78-.64A7.36,7.36,0,0,1,41.51,144,3.12,3.12,0,0,0,40.81,144.49Z"/><path class="cls-1" d="M37.28,146.06a3.48,3.48,0,0,0-1.74-.41,5.92,5.92,0,0,0-.88.07,6.87,6.87,0,0,1,.42-.86,3,3,0,0,1,.39-.3,2.3,2.3,0,0,0,.87-.82l.14-.09a2.3,2.3,0,0,0,.48-.37,15.9,15.9,0,0,0,1.88,2.12l.66.61c.07.08.15.15.23.23a1.2,1.2,0,0,0,0,.2,2.74,2.74,0,0,0-.52.55,2.38,2.38,0,0,1-.36.4A7.87,7.87,0,0,0,37.28,146.06Z"/><path class="cls-1" d="M43.76,144a9.7,9.7,0,0,0-2-2.9l.69.22a21.28,21.28,0,0,1,3.49,1.56A18.37,18.37,0,0,1,43.76,144Z"/><path class="cls-1" d="M56.08,142.12a4.28,4.28,0,0,0,.78.63c-.38.44-.86.92-1.17,1.23s-.37.35-.54.51a2.91,2.91,0,0,0-.7-.46A7.72,7.72,0,0,1,56.08,142.12Z"/><path class="cls-1" d="M59.48,143.65s.09,0,.07,0a2.55,2.55,0,0,0,.94.91,4,4,0,0,1,.38.29,6.41,6.41,0,0,1,.43.87,4.06,4.06,0,0,0-2.62.34,7.87,7.87,0,0,0-1.6,1.33,2.38,2.38,0,0,1-.36-.4,2.5,2.5,0,0,0-.52-.55l0-.2a2.39,2.39,0,0,1,.23-.22c.2-.18.42-.39.74-.71a13.74,13.74,0,0,0,1.8-2A2.3,2.3,0,0,0,59.48,143.65Z"/><path class="cls-1" d="M11.85,99c-1.74-1.08-4.92-7.6-7.3-13.23A17.48,17.48,0,0,0,14,89.61a2.08,2.08,0,0,0,1-.18c.77-.44.95-2.14.9-3.93C16.75,87,18.56,90,20.11,91a1,1,0,0,0,1.09-1.69c-1.17-.75-3.07-3.84-4-5.67a1.27,1.27,0,0,0,.06-.18c.35-3.07,5.58-20.18,5.88-20.9.18-.41.47-.65,1.15-1.19l.53-.42s3.89-3.2,7.59-5.66c.76,2.14,2,4.84,3.06,4.84.48,0,.83-.26,1.61-.84a7.39,7.39,0,0,1,2.58-1.48,1,1,0,0,1,.11.45,1,1,0,0,0,1,1,1,1,0,0,0,1-1,2.74,2.74,0,0,0-.7-1.93,2,2,0,0,0-1.52-.57c-1.25,0-2.66,1.1-3.68,1.87l-.16.11a21.81,21.81,0,0,1-2-5.23c0-.45,1.49-1.68,3.51-2.67a3.68,3.68,0,0,1,.36,1.78,2.73,2.73,0,0,1-1.24,2,1,1,0,0,0,.37,1.88,3.7,3.7,0,0,0,.48,0,5.27,5.27,0,0,0,4.09-1.93,17.57,17.57,0,0,1,.92,2.29,12.27,12.27,0,0,1,0,3.68,77.79,77.79,0,0,0-.85,8c-.19,4.57-.31,11.33-.11,16.6a1,1,0,0,0,1,1h0a1,1,0,0,0,1-1c-.21-5.21-.08-11.91.1-16.44,0,0,.17-3.68.82-7.79a13.59,13.59,0,0,0,0-4.51A11.42,11.42,0,0,0,43.59,54,6,6,0,0,0,48,55.53,6,6,0,0,0,52.45,54,9.9,9.9,0,0,0,52,55.38a12,12,0,0,0,0,4.72,1.08,1.08,0,0,0,1,.68,1,1,0,0,0,.93-1.32,11,11,0,0,1,0-3.57,16.26,16.26,0,0,1,.92-2.29,5.27,5.27,0,0,0,4.56,1.91,1,1,0,0,0,.88-.79,1,1,0,0,0-.49-1.09,2.67,2.67,0,0,1-1.25-2,3.68,3.68,0,0,1,.36-1.78c2,1,3.56,2.22,3.51,2.67a21.81,21.81,0,0,1-2,5.23l-.16-.11c-1-.77-2.43-1.82-3.68-1.87a2,2,0,0,0-1.52.57,2.75,2.75,0,0,0-.7,1.94,1,1,0,0,0,1,1,1,1,0,0,0,1-1,.66.66,0,0,1,.14-.44A7.35,7.35,0,0,1,59,59.3c.78.58,1.13.84,1.61.84,1.09,0,2.34-2.79,3.09-4.94.7.4,1.45.84,2.08,1.23A67.74,67.74,0,0,1,71.27,61l.52.42c.68.54,1,.78,1.15,1.18.4,1,4.74,17.68,5.08,20.63a6.89,6.89,0,0,0,1,2.44,14,14,0,0,0-4.92-.53V79.55a1,1,0,0,0-1.41-.92l-4.2,1.87c.43-7.22,1.69-13.38,3.31-16.15a1,1,0,1,0-1.74-1C67.35,68,66.62,78,66.46,80.94a1,1,0,0,0,.08.43L53.37,87.21a.79.79,0,0,1-.22.07h0a2.93,2.93,0,0,0-2.23,1c-.64.64-.74.74-2.9.74s-2.93-.42-3.61-1.1a3.05,3.05,0,0,0-2.22-1,.5.5,0,0,1-.23-.07L29.47,81.41a1,1,0,0,0,.11-.47c-.16-3-.9-13-3.62-17.61a1,1,0,0,0-1.74,1c1.63,2.78,2.89,9,3.32,16.22l-4.21-1.84a1,1,0,0,0-1,.08,1,1,0,0,0-.44.86l.3,16.25a1.14,1.14,0,0,0-.26.42c-1.38,4.72-3.92,4.94-5.15,5a3.8,3.8,0,0,0-.49.07C15.87,101.5,14.19,100.49,11.85,99Z"/><path class="cls-1" d="M89.47,119.49a39.44,39.44,0,0,1-8.67,7,109.17,109.17,0,0,1-25.2,11.36,40.83,40.83,0,0,0-5.67-3.67,124.52,124.52,0,0,0,14.69-10.68c4-3.28,7.48-6.12,12.51-8.57a1,1,0,0,0,.47-1.34,1,1,0,0,0-1.35-.47c-5.25,2.55-8.8,5.46-12.91,8.83-1.91,1.57-4,3.24-6.37,5a12.3,12.3,0,0,1-6,.64c-.88-.06-1.87-.12-3-.12s-2.13.06-3,.12a12.18,12.18,0,0,1-6.08-.68c-2-1.54-3.53-3-5-4.32a46.41,46.41,0,0,0-14.18-9.52,1,1,0,1,0-.82,1.84,44.58,44.58,0,0,1,13.65,9.17,77,77,0,0,0,16.12,11.63,36.6,36.6,0,0,1,6.62,4.45,9.35,9.35,0,0,0-3,3.76,26.66,26.66,0,0,1-2.94-1.56,49.34,49.34,0,0,0-4.6-2.43c-.54-.23-1.09-.44-1.62-.61a133.65,133.65,0,0,1-27.88-12.87c-7.55-4.7-12.27-10.21-12.95-15.11a6.23,6.23,0,0,1,1.36-5.15c2.74-3,11.14-2.61,14.14-2.21a36.48,36.48,0,0,1,4.65,1l.12,6.31a1,1,0,0,0,.6.9l16.73,7.2a4.26,4.26,0,0,0,1.3.31,1.16,1.16,0,0,1,.7.4,9.49,9.49,0,0,0,12.34,0,1.16,1.16,0,0,1,.7-.4,4.26,4.26,0,0,0,1.3-.31l17.33-7.56a1,1,0,0,0,.6-.93V107.3A2.08,2.08,0,0,0,75,107c.8-.57,2.14-1.67,3.55-2.94a39.75,39.75,0,0,1,4.22-.23h.08a22.38,22.38,0,0,1,6.7.84,1.12,1.12,0,0,0,.31,0C99.42,108.61,89.47,119.49,89.47,119.49Z"/><path class="cls-3" d="M67.77,130.81a1.35,1.35,0,1,0,1.35-1.35A1.35,1.35,0,0,0,67.77,130.81Z"/><path class="cls-3" d="M71.27,126.68A1.35,1.35,0,1,0,72.62,128,1.35,1.35,0,0,0,71.27,126.68Z"/><path class="cls-3" d="M57.11,134.93a1.35,1.35,0,1,0-1.35-1.35A1.35,1.35,0,0,0,57.11,134.93Z"/><path class="cls-3" d="M59.88,135a1.34,1.34,0,0,0-1.34,1.35,1.41,1.41,0,0,0,.11.54c.79-.27,1.63-.56,2.51-.89A1.32,1.32,0,0,0,59.88,135Z"/><path class="cls-3" d="M67,132.23a1.35,1.35,0,0,0-1.35,1.35,1.31,1.31,0,0,0,.17.62c.79-.33,1.61-.68,2.44-1A1.34,1.34,0,0,0,67,132.23Z"/><path class="cls-3" d="M72.81,118.36a1.35,1.35,0,1,0,1.35,1.35A1.34,1.34,0,0,0,72.81,118.36Z"/><path class="cls-3" d="M74.05,129.46a1.34,1.34,0,0,0-1.35,1.35,1.55,1.55,0,0,0,0,.21c.75-.37,1.5-.76,2.27-1.16A1.35,1.35,0,0,0,74.05,129.46Z"/><path class="cls-3" d="M73.43,123.91a1.35,1.35,0,1,0,1.35,1.35A1.34,1.34,0,0,0,73.43,123.91Z"/><path class="cls-3" d="M60.69,133.58A1.35,1.35,0,1,0,62,132.23,1.34,1.34,0,0,0,60.69,133.58Z"/><path class="cls-3" d="M17.86,125.26a1.35,1.35,0,1,0,1.35-1.35A1.35,1.35,0,0,0,17.86,125.26Z"/><path class="cls-3" d="M45.1,137.7a1.35,1.35,0,1,0-1.35-1.34A1.35,1.35,0,0,0,45.1,137.7Z"/><path class="cls-3" d="M37.88,128.75c-.73-.57-1.41-1.13-2.06-1.68a1.4,1.4,0,0,0-.4,1,1.35,1.35,0,0,0,1.35,1.35A1.33,1.33,0,0,0,37.88,128.75Z"/><path class="cls-3" d="M46.2,134.39a1.31,1.31,0,0,0,.85.5Z"/><path class="cls-3" d="M61.42,126.68A1.35,1.35,0,1,0,62.77,128,1.35,1.35,0,0,0,61.42,126.68Z"/><circle class="cls-3" cx="70.65" cy="122.48" r="1.35"/><path class="cls-3" d="M62.84,130.81a1.35,1.35,0,1,0,1.35-1.35A1.35,1.35,0,0,0,62.84,130.81Z"/><path class="cls-3" d="M59.26,129.46a1.35,1.35,0,1,0,1.35,1.35A1.35,1.35,0,0,0,59.26,129.46Z"/><path class="cls-3" d="M66.35,129.38A1.35,1.35,0,1,0,65,128,1.34,1.34,0,0,0,66.35,129.38Z"/><path class="cls-3" d="M20,122.48a1.35,1.35,0,1,0,1.34-1.35A1.34,1.34,0,0,0,20,122.48Z"/><path class="cls-3" d="M25.57,128a1.35,1.35,0,1,0,1.34-1.35A1.34,1.34,0,0,0,25.57,128Z"/><path class="cls-3" d="M26.29,121.13a1.35,1.35,0,1,0,1.35,1.35A1.36,1.36,0,0,0,26.29,121.13Z"/><path class="cls-3" d="M33.38,121.05A1.35,1.35,0,1,0,32,119.71,1.34,1.34,0,0,0,33.38,121.05Z"/><path class="cls-3" d="M31.22,123.83a1.26,1.26,0,0,0,.69-.22c-.63-.57-1.26-1.13-1.91-1.69a1.32,1.32,0,0,0-.13.56A1.35,1.35,0,0,0,31.22,123.83Z"/><path class="cls-3" d="M27.72,125.26a1.35,1.35,0,1,0,1.35-1.35A1.34,1.34,0,0,0,27.72,125.26Z"/><path class="cls-3" d="M22.79,125.26a1.35,1.35,0,1,0,1.35-1.35A1.34,1.34,0,0,0,22.79,125.26Z"/><path class="cls-3" d="M36,130.81a1.35,1.35,0,1,0-1.35,1.34A1.35,1.35,0,0,0,36,130.81Z"/><path class="cls-3" d="M23.52,118.36a1.35,1.35,0,1,0,1.35,1.35A1.34,1.34,0,0,0,23.52,118.36Z"/><path class="cls-3" d="M61.48,117.14l-2,.89a1.28,1.28,0,0,0,.73.25A1.34,1.34,0,0,0,61.48,117.14Z"/><path class="cls-3" d="M63.57,126.6a1.34,1.34,0,0,0,1.35-1.34,1.36,1.36,0,0,0-.87-1.26c-.58.48-1.18,1-1.79,1.45A1.33,1.33,0,0,0,63.57,126.6Z"/><path class="cls-3" d="M64.3,119.71A1.35,1.35,0,1,0,63,121.05,1.35,1.35,0,0,0,64.3,119.71Z"/><path class="cls-3" d="M60.8,121.13a1.35,1.35,0,1,0,0,2.7,1.53,1.53,0,0,0,.36-.07l.82-.67a1.26,1.26,0,0,0,.16-.61A1.35,1.35,0,0,0,60.8,121.13Z"/><path class="cls-3" d="M65.72,123.83a1.34,1.34,0,0,0,1.35-1.35,1.29,1.29,0,0,0-.25-.74l-2.06,1.68A1.36,1.36,0,0,0,65.72,123.83Z"/><path class="cls-3" d="M56.67,119.71a1.35,1.35,0,1,0,1.82-1.26l-1.72.75A1.45,1.45,0,0,0,56.67,119.71Z"/><path class="cls-3" d="M37,119.71a1.35,1.35,0,0,0,2.69,0,1.86,1.86,0,0,0-.06-.34l-1.93-.83A1.36,1.36,0,0,0,37,119.71Z"/><path class="cls-3" d="M35.53,118.28a1.28,1.28,0,0,0,.81-.3l-2.13-.92A1.34,1.34,0,0,0,35.53,118.28Z"/><path class="cls-3" d="M67.15,125.26a1.35,1.35,0,1,0,1.35-1.35A1.34,1.34,0,0,0,67.15,125.26Z"/><path class="cls-3" d="M37.39,134.93A1.35,1.35,0,1,0,36,133.58,1.34,1.34,0,0,0,37.39,134.93Z"/><path class="cls-3" d="M43.67,133.58a1.35,1.35,0,1,0-1.35,1.35A1.35,1.35,0,0,0,43.67,133.58Z"/><path class="cls-3" d="M52.18,134.93a1.34,1.34,0,0,0,.61-2.54l-1.95,1.25A1.35,1.35,0,0,0,52.18,134.93Z"/><path class="cls-3" d="M40.17,135a1.35,1.35,0,1,0,1.35,1.35A1.34,1.34,0,0,0,40.17,135Z"/><path class="cls-3" d="M54.33,132.15a1.34,1.34,0,0,0,1.35-1.34,1.28,1.28,0,0,0-.07-.34c-.65.46-1.34.93-2,1.41A1.31,1.31,0,0,0,54.33,132.15Z"/><path class="cls-3" d="M23.33,128A1.35,1.35,0,1,0,22,129.38,1.35,1.35,0,0,0,23.33,128Z"/><path class="cls-3" d="M27.54,132.23a1.32,1.32,0,0,0-1,.49c.78.38,1.56.75,2.32,1.09a1.85,1.85,0,0,0,0-.23A1.35,1.35,0,0,0,27.54,132.23Z"/><path class="cls-3" d="M38.2,130.81a1.34,1.34,0,0,0,1.35,1.34A1.32,1.32,0,0,0,40.86,131c-.66-.46-1.29-.92-1.88-1.37A1.35,1.35,0,0,0,38.2,130.81Z"/><path class="cls-3" d="M32.46,132.23a1.35,1.35,0,1,0,1.35,1.35A1.35,1.35,0,0,0,32.46,132.23Z"/><path class="cls-3" d="M83.29,123.91a1.32,1.32,0,0,0-1.26,1.8c.73-.49,1.44-1,2.11-1.47A1.29,1.29,0,0,0,83.29,123.91Z"/><circle class="cls-3" cx="36.15" cy="122.48" r="1.35"/><path class="cls-3" d="M83.58,107.18a1.35,1.35,0,1,0-1.35-1.35A1.35,1.35,0,0,0,83.58,107.18Z"/><path class="cls-3" d="M11.51,123.83a1.35,1.35,0,1,0-1.35-1.35,1.29,1.29,0,0,0,.16.61c.28.22.55.45.84.67A1.28,1.28,0,0,0,11.51,123.83Z"/><path class="cls-3" d="M6,118.28a1.35,1.35,0,1,0-1.35-1.35,1.85,1.85,0,0,0,0,.23c.23.32.46.64.71,1A1.33,1.33,0,0,0,6,118.28Z"/><path class="cls-3" d="M14.57,107.18a1.35,1.35,0,1,0-1.35-1.35A1.34,1.34,0,0,0,14.57,107.18Z"/><path class="cls-3" d="M70,115.58a1.36,1.36,0,0,0-1.35,1.35,1.33,1.33,0,0,0,.21.68c.71-.52,1.43-1,2.18-1.51A1.33,1.33,0,0,0,70,115.58Z"/><path class="cls-3" d="M75,118.28a1.34,1.34,0,0,0,1.35-1.35,1.33,1.33,0,0,0-.72-1.17c-.68.36-1.34.73-2,1.11a.14.14,0,0,0,0,.06A1.35,1.35,0,0,0,75,118.28Z"/><path class="cls-3" d="M20.74,118.28a1.34,1.34,0,0,0,1.35-1.35,1.28,1.28,0,0,0-.09-.44c-.52-.28-1.07-.55-1.65-.83a1.34,1.34,0,0,0,.39,2.62Z"/><path class="cls-3" d="M63.75,116.93a1.35,1.35,0,1,0,1.35-1.35l-.08,0-.87.38A1.35,1.35,0,0,0,63.75,116.93Z"/><path class="cls-3" d="M58.64,123.91a1.35,1.35,0,0,0-1.35,1.35,1.31,1.31,0,0,0,.58,1.07c.7-.53,1.38-1,2-1.56A1.34,1.34,0,0,0,58.64,123.91Z"/><circle class="cls-3" cx="41.08" cy="122.48" r="1.35"/><path class="cls-3" d="M42.85,121a8.24,8.24,0,0,1-.69-.49A1.38,1.38,0,0,0,42.85,121Z"/><path class="cls-3" d="M37.58,125.26a1.35,1.35,0,1,0,1.35-1.35A1.34,1.34,0,0,0,37.58,125.26Z"/><path class="cls-3" d="M53.09,121.05a1.33,1.33,0,0,0,1.3-1.07,1.33,1.33,0,0,0-.24.2A6.15,6.15,0,0,1,53,121Z"/><path class="cls-3" d="M41.7,126.68a1.34,1.34,0,0,0-1.23.81,11.07,11.07,0,0,0,2.52.26A1.33,1.33,0,0,0,41.7,126.68Z"/><path class="cls-3" d="M28.34,130.81a1.35,1.35,0,1,0,1.35-1.35A1.34,1.34,0,0,0,28.34,130.81Z"/><path class="cls-3" d="M34,126.6a1.32,1.32,0,0,0,.88-.34c-.69-.6-1.34-1.18-2-1.75a1.28,1.28,0,0,0-.26.75A1.34,1.34,0,0,0,34,126.6Z"/><path class="cls-3" d="M55.87,121.13a1.35,1.35,0,1,0,1.35,1.35A1.35,1.35,0,0,0,55.87,121.13Z"/><path class="cls-3" d="M30.49,128a1.35,1.35,0,1,0,1.35-1.35A1.35,1.35,0,0,0,30.49,128Z"/><path class="cls-3" d="M50.94,123.83a1.35,1.35,0,0,0,1.35-1.35,1.32,1.32,0,0,0-.36-.9,10.29,10.29,0,0,1-2.3.71,1.29,1.29,0,0,0,0,.19A1.34,1.34,0,0,0,50.94,123.83Z"/><path class="cls-3" d="M53.71,123.91a1.35,1.35,0,1,0,1.35,1.35A1.35,1.35,0,0,0,53.71,123.91Z"/><path class="cls-3" d="M46.63,126.68a1.33,1.33,0,0,0-1.27,1c.76,0,1.58-.09,2.52-.1A1.35,1.35,0,0,0,46.63,126.68Z"/><path class="cls-3" d="M46,123.83a1.35,1.35,0,0,0,1.35-1.35s0,0,0-.06a10,10,0,0,1-2.54-.53,1.32,1.32,0,0,0-.15.59A1.34,1.34,0,0,0,46,123.83Z"/><path class="cls-3" d="M51.56,126.68a1.34,1.34,0,0,0-1.27.94l.7,0c.66,0,1.27.08,1.86.08A1.34,1.34,0,0,0,51.56,126.68Z"/><path class="cls-3" d="M48.78,123.91a1.35,1.35,0,1,0,1.35,1.35A1.34,1.34,0,0,0,48.78,123.91Z"/><path class="cls-3" d="M55.24,127.53A10.62,10.62,0,0,0,57,127l.18-.14a1.38,1.38,0,0,0-.66-.2A1.36,1.36,0,0,0,55.24,127.53Z"/><path class="cls-3" d="M43.85,126.6a1.35,1.35,0,1,0-1.34-1.34A1.34,1.34,0,0,0,43.85,126.6Z"/><path class="cls-3" d="M26.11,130.81a1.35,1.35,0,1,0-2.7,0,1.27,1.27,0,0,0,.09.42l1.67.84A1.34,1.34,0,0,0,26.11,130.81Z"/><path class="cls-3" d="M88.51,104.48a1.35,1.35,0,1,0,1.34,1.35A1.35,1.35,0,0,0,88.51,104.48Z"/><path class="cls-3" d="M85,108.61a1.35,1.35,0,1,0,1.35-1.35A1.35,1.35,0,0,0,85,108.61Z"/><path class="cls-3" d="M8.11,112.81a1.35,1.35,0,1,0,1.35,1.35A1.35,1.35,0,0,0,8.11,112.81Z"/><path class="cls-3" d="M82.85,111.38A1.35,1.35,0,1,0,84.2,110,1.34,1.34,0,0,0,82.85,111.38Z"/><path class="cls-3" d="M75.15,108.61a1.35,1.35,0,1,0,1.34-1.35A1.34,1.34,0,0,0,75.15,108.61Z"/><path class="cls-3" d="M80.07,108.61a1.35,1.35,0,1,0,1.35-1.35A1.35,1.35,0,0,0,80.07,108.61Z"/><path class="cls-3" d="M78.65,104.48A1.35,1.35,0,1,0,80,105.83,1.35,1.35,0,0,0,78.65,104.48Z"/><path class="cls-3" d="M77.92,111.38A1.35,1.35,0,1,0,79.27,110,1.34,1.34,0,0,0,77.92,111.38Z"/><path class="cls-3" d="M21.58,114c.78.38,1.51.76,2.2,1.14a1.33,1.33,0,0,0-.88-2.35A1.33,1.33,0,0,0,21.58,114Z"/><path class="cls-3" d="M14.47,116.93a1.35,1.35,0,1,0,1.34-1.35A1.34,1.34,0,0,0,14.47,116.93Z"/><path class="cls-3" d="M18.85,113.15a1.32,1.32,0,0,0-.88-.34A1.35,1.35,0,1,0,19,115l-.12,0a1,1,0,0,1-.51-1.33A1,1,0,0,1,18.85,113.15Z"/><path class="cls-3" d="M74.08,110.08v.9a1,1,0,0,1-.6.93l-.3.12a1.34,1.34,0,1,0,1.16-2A2.38,2.38,0,0,0,74.08,110.08Z"/><path class="cls-3" d="M27.83,115.5a1.31,1.31,0,0,0,1.15-.69l-2.42-1a1.23,1.23,0,0,0-.08.39A1.34,1.34,0,0,0,27.83,115.5Z"/><path class="cls-3" d="M12.31,119.71a1.35,1.35,0,1,0,1.35-1.35A1.35,1.35,0,0,0,12.31,119.71Z"/><path class="cls-3" d="M9.54,116.93a1.35,1.35,0,1,0,1.35-1.35A1.34,1.34,0,0,0,9.54,116.93Z"/><path class="cls-3" d="M13,112.81a1.35,1.35,0,1,0,1.35,1.35A1.34,1.34,0,0,0,13,112.81Z"/><path class="cls-3" d="M7.38,119.71a1.35,1.35,0,1,0,1.35-1.35A1.35,1.35,0,0,0,7.38,119.71Z"/><path class="cls-3" d="M11.8,104.4a1.3,1.3,0,0,0,1.1-.62c-.7,0-1.42,0-2.15.09A1.33,1.33,0,0,0,11.8,104.4Z"/><path class="cls-3" d="M80.8,104.4a1.32,1.32,0,0,0,1.1-.61c-.81,0-1.54.06-2.13.11A1.33,1.33,0,0,0,80.8,104.4Z"/><path class="cls-3" d="M20.93,108.61A1.34,1.34,0,0,0,22.28,110a1,1,0,0,0,.17,0l-.05-2.64-.12,0A1.34,1.34,0,0,0,20.93,108.61Z"/><path class="cls-3" d="M2.83,107.31a6.11,6.11,0,0,0-.68,2.56,1.36,1.36,0,0,0,.41.08,1.33,1.33,0,0,0,.27-2.64Z"/><path class="cls-3" d="M2.57,113a13,13,0,0,0,1,2.45,1.33,1.33,0,0,0-.41-2.61A1.38,1.38,0,0,0,2.57,113Z"/><circle class="cls-3" cx="5.34" cy="111.38" r="1.35"/><path class="cls-3" d="M3.49,106.38a1.34,1.34,0,0,0,2.57-.55,1.38,1.38,0,0,0-.38-.94,5.76,5.76,0,0,0-2.11,1.37A.83.83,0,0,0,3.49,106.38Z"/><path class="cls-3" d="M16.73,104.4a1.35,1.35,0,0,0,.91-.36c-.52-.07-1.2-.14-2-.19A1.31,1.31,0,0,0,16.73,104.4Z"/><path class="cls-3" d="M67.26,115.5a1.35,1.35,0,0,0,1.35-1.34.53.53,0,0,0,0-.12l-2.31,1A1.29,1.29,0,0,0,67.26,115.5Z"/><path class="cls-3" d="M85.73,104.4a1.35,1.35,0,0,0,1-.39c-.63-.08-1.31-.15-2-.18A1.34,1.34,0,0,0,85.73,104.4Z"/><path class="cls-3" d="M16,108.61a1.35,1.35,0,1,0,1.35-1.35A1.34,1.34,0,0,0,16,108.61Z"/><path class="cls-3" d="M13.84,111.38A1.35,1.35,0,1,0,15.19,110,1.35,1.35,0,0,0,13.84,111.38Z"/><path class="cls-3" d="M19.5,104.48a1.35,1.35,0,1,0,1.35,1.35A1.36,1.36,0,0,0,19.5,104.48Z"/><path class="cls-3" d="M18.77,111.38A1.35,1.35,0,1,0,20.12,110,1.35,1.35,0,0,0,18.77,111.38Z"/><path class="cls-3" d="M11.07,108.61a1.35,1.35,0,1,0,1.35-1.35A1.34,1.34,0,0,0,11.07,108.61Z"/><path class="cls-3" d="M6.14,108.61a1.35,1.35,0,1,0,1.35-1.35A1.34,1.34,0,0,0,6.14,108.61Z"/><path class="cls-3" d="M9.64,104.48A1.35,1.35,0,1,0,11,105.83,1.36,1.36,0,0,0,9.64,104.48Z"/><path class="cls-3" d="M8.92,111.38A1.35,1.35,0,1,0,10.26,110,1.34,1.34,0,0,0,8.92,111.38Z"/><path class="cls-3" d="M67.88,121.05a1.33,1.33,0,0,0,1.31-1.16L67.73,121A.66.66,0,0,0,67.88,121.05Z"/><path class="cls-3" d="M72.19,112.81a1.34,1.34,0,0,0-.14,2.67l1.38-.83a1.16,1.16,0,0,0,.1-.49A1.34,1.34,0,0,0,72.19,112.81Z"/><path class="cls-3" d="M77,125.26a1.35,1.35,0,1,0,1.35-1.35A1.34,1.34,0,0,0,77,125.26Z"/><path class="cls-3" d="M29.51,118.91a1.37,1.37,0,0,0-.6-.46Z"/><path class="cls-3" d="M86.25,119.71a1.34,1.34,0,0,0,1.34,1.34A1.56,1.56,0,0,0,88,121c.29-.28.56-.57.83-.85a1.42,1.42,0,0,0,.08-.41,1.35,1.35,0,1,0-2.69,0Z"/><path class="cls-3" d="M84.09,122.48a1.35,1.35,0,0,0,.77,1.21q1-.76,1.86-1.53a1.32,1.32,0,0,0-1.28-1A1.36,1.36,0,0,0,84.09,122.48Z"/><path class="cls-3" d="M66.6,119.35c.43-.34.85-.67,1.28-1A1.33,1.33,0,0,0,66.6,119.35Z"/><path class="cls-3" d="M75.58,121.13a1.35,1.35,0,1,0,1.35,1.35A1.36,1.36,0,0,0,75.58,121.13Z"/><path class="cls-3" d="M30.6,118.28A1.34,1.34,0,0,0,32,116.93a1.32,1.32,0,0,0-.64-1.12l-.38-.16a1.21,1.21,0,0,0-.33-.07,1.35,1.35,0,0,0,0,2.7Z"/><path class="cls-3" d="M16.09,127.1c.75.45,1.49.89,2.24,1.32a1.68,1.68,0,0,0,.07-.39,1.34,1.34,0,0,0-2.31-.93Z"/><path class="cls-3" d="M80.51,121.13a1.35,1.35,0,1,0,1.35,1.35A1.36,1.36,0,0,0,80.51,121.13Z"/><path class="cls-3" d="M42.94,137.78a1.33,1.33,0,0,0-1.3,1.15c.87.3,1.37.45,1.4.46.35.11.7.26,1.05.4a1.25,1.25,0,0,0,.2-.66A1.35,1.35,0,0,0,42.94,137.78Z"/><path class="cls-3" d="M45.93,140.6l.78.4A1.34,1.34,0,0,0,45.93,140.6Z"/><path class="cls-3" d="M35.24,135A1.32,1.32,0,0,0,34,136c.86.36,1.67.68,2.43,1a1.22,1.22,0,0,0,.2-.65A1.35,1.35,0,0,0,35.24,135Z"/><path class="cls-3" d="M89.75,115.58a1.35,1.35,0,1,0,1.35,1.35A1.35,1.35,0,0,0,89.75,115.58Z"/><path class="cls-3" d="M47.87,137.78a1.35,1.35,0,1,0,1.35,1.35A1.36,1.36,0,0,0,47.87,137.78Z"/><path class="cls-3" d="M51.05,137.21c-.71-.44-1.47-.89-2.27-1.34a1.3,1.3,0,0,0-.1.49,1.34,1.34,0,0,0,2.37.85Z"/><path class="cls-3" d="M56.3,136.36a1.35,1.35,0,1,0-2.69,0,.44.44,0,0,0,0,.1c.62.41,1.18.81,1.65,1.18A1.34,1.34,0,0,0,56.3,136.36Z"/><path class="cls-3" d="M52.8,140.48a1.34,1.34,0,0,0,1.32-1.2c-.53-.39-1.18-.85-1.92-1.34a1.34,1.34,0,0,0,.6,2.54Z"/><path class="cls-3" d="M74.86,128a1.32,1.32,0,0,0,1.11,1.3l1.49-.82a1.51,1.51,0,0,0,.09-.48,1.35,1.35,0,1,0-2.69,0Z"/><circle class="cls-3" cx="82.04" cy="114.16" r="1.35"/><path class="cls-3" d="M81.32,119.71a1.35,1.35,0,1,0,1.35-1.35A1.34,1.34,0,0,0,81.32,119.71Z"/><circle class="cls-3" cx="89.13" cy="111.38" r="1.35"/><circle class="cls-3" cx="86.97" cy="114.16" r="1.35"/><path class="cls-3" d="M83.47,116.93a1.35,1.35,0,1,0,1.35-1.35A1.34,1.34,0,0,0,83.47,116.93Z"/><path class="cls-3" d="M77.12,112.81a1.32,1.32,0,0,0-.93.37l.06,0a1,1,0,0,1,1.35.47,1,1,0,0,1-.47,1.34l-.67.35a1.34,1.34,0,1,0,.66-2.5Z"/><path class="cls-3" d="M76.39,119.71a1.35,1.35,0,1,0,1.35-1.35A1.34,1.34,0,0,0,76.39,119.71Z"/><path class="cls-3" d="M78.54,116.93a1.35,1.35,0,1,0,1.35-1.35A1.35,1.35,0,0,0,78.54,116.93Z"/><path class="cls-3" d="M25.67,115.58a1.29,1.29,0,0,0-.72.24c.73.42,1.4.84,2,1.27a.9.9,0,0,0,0-.16A1.35,1.35,0,0,0,25.67,115.58Z"/><path class="cls-3" d="M13,125.08c.64.44,1.3.88,2,1.32a1.33,1.33,0,0,0-.68-2.49A1.33,1.33,0,0,0,13,125.08Z"/><path class="cls-3" d="M15.09,122.48a1.35,1.35,0,1,0,1.35-1.35A1.34,1.34,0,0,0,15.09,122.48Z"/><path class="cls-3" d="M91.28,107.26a1.35,1.35,0,1,0,1.35,1.35A1.35,1.35,0,0,0,91.28,107.26Z"/><path class="cls-3" d="M28.45,121.05a1.42,1.42,0,0,0,.41-.08c-.56-.45-1.14-.9-1.75-1.34,0,0,0,.05,0,.08A1.34,1.34,0,0,0,28.45,121.05Z"/><path class="cls-3" d="M17.24,119.71a1.35,1.35,0,1,0,1.35-1.35A1.34,1.34,0,0,0,17.24,119.71Z"/><path class="cls-3" d="M90.55,114.16a1.35,1.35,0,0,0,1.35,1.34,1.45,1.45,0,0,0,.46-.09,18.21,18.21,0,0,0,.81-1.66,1.34,1.34,0,0,0-2.62.41Z"/><path class="cls-3" d="M92.71,111.38a1.33,1.33,0,0,0,.87,1.25A8.35,8.35,0,0,0,94,110,1.34,1.34,0,0,0,92.71,111.38Z"/><path class="cls-3" d="M52,141.91a1.35,1.35,0,0,0-2.7,0,1.28,1.28,0,0,0,.2.66l1.19.68A1.35,1.35,0,0,0,52,141.91Z"/><path class="cls-3" d="M42.23,64.74s0,1.87-.1,4.24h11.6V67.62l-.11-2.81v-.07Z"/><path class="cls-3" d="M41.93,76.3H53.78V74.64l0-2.58H42.06C42,73.61,42,75.12,41.93,76.3Z"/><path class="cls-3" d="M43.24,57.41v1.74l-.46,2.51H53.2c-.16-.69-.33-1.39-.47-1.92a6.26,6.26,0,0,1,0-2.33Z"/><path class="cls-3" d="M41.81,79.38c0,1.1.08,2.7.16,4.25H53.73l0-4.25Z"/><path class="cls-3" d="M42.14,86.71c0,.81.09,1.34.09,1.34s4.68,1.86,5,1.69,4.09-.67,4.09-.67a11.17,11.17,0,0,0,2.23-1.23,2.71,2.71,0,0,0,.21-1.13Z"/><path class="cls-2" d="M29.58,76.15a.22.22,0,0,0,.06.15l.95,1a.19.19,0,0,0,.15.07.21.21,0,0,0,.16-.07l.64-.64a.22.22,0,0,0,0-.3l-.95-1a.23.23,0,0,0-.31,0l-.64.64A.25.25,0,0,0,29.58,76.15Z"/><path class="cls-2" d="M29.64,72.47l.63.63a.17.17,0,0,0,.13.07h0a.26.26,0,0,0,.16-.07l.95-1a.23.23,0,0,0,0-.31l-.63-.62a.16.16,0,0,0-.08-.06.21.21,0,0,0-.24,0l-.95,1A.21.21,0,0,0,29.64,72.47Z"/><path class="cls-2" d="M39.18,71.21a.23.23,0,0,0-.31,0l-.95,1a.25.25,0,0,0-.06.16.2.2,0,0,0,.06.15l.64.64a.23.23,0,0,0,.15.07.24.24,0,0,0,.16-.07l1-1a.23.23,0,0,0,0-.31Z"/><path class="cls-2" d="M30.58,64.83l1-.95a.23.23,0,0,0,0-.31l-.64-.64a.23.23,0,0,0-.31,0l-.95,1a.23.23,0,0,0-.07.15.24.24,0,0,0,.07.16l.64.64a.22.22,0,0,0,.3,0Z"/><path class="cls-2" d="M32.34,71.27a.22.22,0,0,0,.15-.06l.17-.17.17.17a.22.22,0,0,0,.3,0l.64-.64a.21.21,0,0,0,0-.31l-.16-.17.16-.16a.23.23,0,0,0,0-.26.1.1,0,0,0,0,0L33.13,69a.2.2,0,0,0-.3,0l-.17.16L32.49,69a.21.21,0,0,0-.31,0l-.64.64a.22.22,0,0,0,0,.3l.17.17-.17.17a.23.23,0,0,0,0,.31l.64.64A.25.25,0,0,0,32.34,71.27Z"/><path class="cls-2" d="M37.91,65.48l-.64-.64a.2.2,0,0,0-.3,0L36.8,65l-.16-.16a.27.27,0,0,0-.13-.07.21.21,0,0,0-.18.07l-.65.64a.22.22,0,0,0,0,.3l.17.17-.17.17a.22.22,0,0,0,0,.3l.64.64a.24.24,0,0,0,.12.07h0a.2.2,0,0,0,.15-.06l.17-.17.17.17a.22.22,0,0,0,.3,0l.65-.65a.22.22,0,0,0,0-.3L37.75,66l.16-.17A.2.2,0,0,0,37.91,65.48Z"/><path class="cls-2" d="M33.78,63.88l.94.94a.24.24,0,0,0,.13.07h0a.22.22,0,0,0,.15-.06l.64-.64a.23.23,0,0,0,0-.31l-.94-.94a.24.24,0,0,0-.13-.07.22.22,0,0,0-.19.06l-.64.64A.23.23,0,0,0,33.78,63.88Z"/><path class="cls-2" d="M34.73,60.69l.57-.57a1.84,1.84,0,0,1-1.06-.84l-.46.46a.23.23,0,0,0,0,.31l.64.64a.22.22,0,0,0,.15.06A.25.25,0,0,0,34.73,60.69Z"/><path class="cls-2" d="M56.35,61.59a.1.1,0,0,0,0,0l.17.17-.17.17a.22.22,0,0,0,0,.3l.64.65a.23.23,0,0,0,.31,0l.17-.17.16.17a.25.25,0,0,0,.16.06.22.22,0,0,0,.15-.06l.64-.65a.2.2,0,0,0,0-.3l-.17-.17.17-.17a.22.22,0,0,0,0-.3L58,60.69a.23.23,0,0,0-.31,0l-.16.17-.17-.17a.23.23,0,0,0-.31,0l-.64.65A.21.21,0,0,0,56.35,61.59Z"/><path class="cls-2" d="M58.63,51.77l.64.64a.22.22,0,0,0,.3,0l1-1a.22.22,0,0,0,0-.3l-.65-.64a.2.2,0,0,0-.3,0l-.95,1a.2.2,0,0,0,0,.25A.21.21,0,0,0,58.63,51.77Z"/><path class="cls-2" d="M38.56,75.35l-.64.64a.25.25,0,0,0-.06.16.22.22,0,0,0,.06.15l.95,1a.21.21,0,0,0,.16.07.19.19,0,0,0,.15-.07l.64-.64a.22.22,0,0,0,0-.3l-1-1A.23.23,0,0,0,38.56,75.35Z"/><path class="cls-2" d="M59.27,60.69a.22.22,0,0,0,.3,0l.62-.61A5,5,0,0,1,59,59.35l-.39.39a.21.21,0,0,0,0,.31Z"/><path class="cls-2" d="M60,55.11a1,1,0,0,1-.69.4,3.7,3.7,0,0,1-.75,0s0,.06,0,.08l.95.95a.22.22,0,0,0,.15.06.2.2,0,0,0,.15-.06l.65-.64a.23.23,0,0,0,.06-.16.22.22,0,0,0-.06-.15Z"/><path class="cls-2" d="M53.84,58.78l.43-.42s0,0,0,0a4.38,4.38,0,0,1,.06-.65h0l0,0a3.37,3.37,0,0,1,.14-.46l-.63-.64s-.05,0-.07,0a12.43,12.43,0,0,0,0,2.29Z"/><path class="cls-2" d="M29.64,68l.95,1a.22.22,0,0,0,.15.06A.25.25,0,0,0,30.9,69l.64-.64a.22.22,0,0,0,.06-.15.23.23,0,0,0-.06-.16l-.95-1a.23.23,0,0,0-.31,0l-.64.64A.21.21,0,0,0,29.64,68Z"/><path class="cls-2" d="M55,56.39a1.92,1.92,0,0,1,1.17-.55l.24-.24a.21.21,0,0,0,0-.31l-.63-.63a.19.19,0,0,0-.13-.07.21.21,0,0,0-.18.06l-.95,1a.21.21,0,0,0,0,.31Z"/><path class="cls-2" d="M37,56.55l-.17.17-.17-.17a.22.22,0,0,0-.3,0l-.65.64a.23.23,0,0,0,0,.31l.16.15c.44-.33,1-.7,1.5-1l-.07-.07A.22.22,0,0,0,37,56.55Z"/><path class="cls-2" d="M60.47,57.35a.18.18,0,0,0,0,.09l.22-.44-.2.2A.2.2,0,0,0,60.47,57.35Z"/><path class="cls-2" d="M38.56,64.83a.22.22,0,0,0,.15.06.23.23,0,0,0,.16-.06l1-.95a.23.23,0,0,0,0-.31l-.64-.64a.23.23,0,0,0-.31,0l-.95,1a.23.23,0,0,0-.06.16.22.22,0,0,0,.06.15Z"/><path class="cls-2" d="M38.18,56.17a3.61,3.61,0,0,1,1.3-.35h.11l.23-.23a.23.23,0,0,0,0-.31L39.48,55a5.2,5.2,0,0,1-1.4.49l-.16.16a.23.23,0,0,0,0,.31Z"/><path class="cls-2" d="M38.87,58.79a.21.21,0,0,0-.31,0l-.64.64a.22.22,0,0,0-.06.15.23.23,0,0,0,.06.16l.95.95a.25.25,0,0,0,.16.06.22.22,0,0,0,.15-.06l.64-.64a.23.23,0,0,0,.06-.16.22.22,0,0,0-.06-.15Z"/><path class="cls-2" d="M34.73,54.65a.21.21,0,0,0-.31,0l-.15.15c.23.6.49,1.21.75,1.76,0,0,0,0,0,0l.64-.65a.22.22,0,0,0,0-.3Z"/><path class="cls-2" d="M33.84,53.21a.24.24,0,0,0-.07-.16L33.68,53c0,.12.06.25.1.39A.25.25,0,0,0,33.84,53.21Z"/><path class="cls-2" d="M39.82,68l-1-1a.23.23,0,0,0-.31,0l-.64.64a.23.23,0,0,0-.06.16.22.22,0,0,0,.06.15l.94.94.08.06L39,69a.23.23,0,0,0,.15-.07l.64-.64A.23.23,0,0,0,39.82,68Z"/><path class="cls-2" d="M36.48,50.56a.22.22,0,0,0,.15-.06l.17-.17.17.17a.22.22,0,0,0,.3,0l0,0a5.47,5.47,0,0,0-.2-.56q-.48.24-.9.48l.12.12A.2.2,0,0,0,36.48,50.56Z"/><path class="cls-2" d="M40.62,54.71a.21.21,0,0,0,.15-.07l.17-.17.17.17a.22.22,0,0,0,.3,0l.16-.15c-.13-.3-.26-.6-.4-.89a4.81,4.81,0,0,1-.89.86l.19.18A.21.21,0,0,0,40.62,54.71Z"/><path class="cls-2" d="M34.57,52.47a.25.25,0,0,0,.16-.06l1-1a.23.23,0,0,0,0-.25l0-.05-.28-.28A8.39,8.39,0,0,0,34,52l.44.44A.22.22,0,0,0,34.57,52.47Z"/><path class="cls-2" d="M34.73,69l1-1a.22.22,0,0,0,.06-.15.23.23,0,0,0-.06-.16L35,67.07a.23.23,0,0,0-.31,0l-.95,1a.21.21,0,0,0,0,.25.21.21,0,0,0,0,.06l.64.64a.23.23,0,0,0,.15.07A.24.24,0,0,0,34.73,69Z"/><path class="cls-2" d="M34.41,77.24a.22.22,0,0,0,.13.08h0a.23.23,0,0,0,.16-.06l1-1a.22.22,0,0,0,0-.3l-.63-.64a.33.33,0,0,0-.13-.07.31.31,0,0,0-.19.06l-.95,1a.22.22,0,0,0,0,.3Z"/><path class="cls-2" d="M33.72,72a.22.22,0,0,0,.06.15l.95,1a.24.24,0,0,0,.16.07.23.23,0,0,0,.15-.07l.64-.64a.23.23,0,0,0,0-.31l-1-1a.23.23,0,0,0-.31,0l-.64.64A.23.23,0,0,0,33.72,72Z"/><path class="cls-2" d="M36.63,75.35l.17-.17.17.17a.22.22,0,0,0,.15.06.2.2,0,0,0,.15-.06l.64-.64a.22.22,0,0,0,0-.31l-.17-.17.16-.16a.21.21,0,0,0,.07-.16.18.18,0,0,0-.07-.15l-.64-.64a.2.2,0,0,0-.3,0l-.17.17-.17-.17a.2.2,0,0,0-.3,0l-.65.64a.2.2,0,0,0-.06.15.25.25,0,0,0,.06.16l.17.16-.17.17a.23.23,0,0,0,0,.31l.65.64A.22.22,0,0,0,36.63,75.35Z"/><path class="cls-2" d="M41.41,62.93l.23-.23c.06-.5.12-1,.2-1.58l-.43-.43a.22.22,0,0,0-.3,0l-.17.17-.17-.17a.22.22,0,0,0-.3,0l-.64.65a.2.2,0,0,0,0,.3l.16.17-.16.17a.2.2,0,0,0,0,.3l.64.65a.22.22,0,0,0,.3,0l.17-.17.17.16a.18.18,0,0,0,.15.07A.2.2,0,0,0,41.41,62.93Z"/><path class="cls-2" d="M41.17,69s0,0-.06,0l-.17.16L40.77,69a.21.21,0,0,0-.3,0l-.64.64a.2.2,0,0,0,0,.3l.16.17-.16.17a.21.21,0,0,0,0,.31l.64.64a.2.2,0,0,0,.15.06.22.22,0,0,0,.15-.06l.17-.17.16.16C41.12,70.41,41.15,69.67,41.17,69Z"/><path class="cls-2" d="M40.62,79.55a.2.2,0,0,0,.15-.06l.17-.17.07.07v-2l-.07.07-.17-.17a.2.2,0,0,0-.3,0l-.64.64a.2.2,0,0,0,0,.3l.16.17-.16.17a.21.21,0,0,0,0,.31l.64.64A.2.2,0,0,0,40.62,79.55Z"/><path class="cls-2" d="M38.55,81.39a.33.33,0,0,0,.13.07h0a.22.22,0,0,0,.15-.06l1-1a.22.22,0,0,0,0-.3l-.63-.63a.16.16,0,0,0-.08-.06.21.21,0,0,0-.24,0l-.95,1a.22.22,0,0,0,0,.3Z"/><path class="cls-2" d="M67.86,62.93a.23.23,0,0,0-.31,0l-.64.64a.23.23,0,0,0,0,.31l1,.95a.23.23,0,0,0,.16.06.22.22,0,0,0,.15-.06l.64-.64a.23.23,0,0,0,0-.31Z"/><path class="cls-2" d="M60.47,65.63a.2.2,0,0,0,.06.15l.17.17-.17.17a.22.22,0,0,0-.06.15.25.25,0,0,0,.06.16l.64.64a.23.23,0,0,0,.16.06.22.22,0,0,0,.15-.06l.17-.17.17.17a.2.2,0,0,0,.15.06.22.22,0,0,0,.15-.06l.64-.64a.26.26,0,0,0,.07-.16.21.21,0,0,0-.07-.15L62.59,66l.17-.17a.2.2,0,0,0,0-.3l-.64-.64a.21.21,0,0,0-.31,0l-.16.16-.17-.16a.23.23,0,0,0-.15-.07.24.24,0,0,0-.16.07l-.64.64A.2.2,0,0,0,60.47,65.63Z"/><path class="cls-2" d="M66.9,69.62,66.26,69a.2.2,0,0,0-.3,0l-.17.17L65.62,69a.2.2,0,0,0-.3,0l-.65.64a.22.22,0,0,0,0,.3l.17.17-.17.17a.23.23,0,0,0,0,.25l0,.06.65.64a.2.2,0,0,0,.15.06.22.22,0,0,0,.15-.06l.17-.17.17.17a.22.22,0,0,0,.3,0l.64-.64a.26.26,0,0,0,.07-.16.23.23,0,0,0-.07-.15l-.16-.17.16-.16A.21.21,0,0,0,66.9,69.62Z"/><path class="cls-2" d="M64.63,61.59l0,0,.17.17-.17.17a.22.22,0,0,0,0,.3l.63.63a.16.16,0,0,0,.08.06l.09,0a.22.22,0,0,0,.15-.06l.17-.17.17.17a.22.22,0,0,0,.3,0l.64-.65a.2.2,0,0,0,0-.3l-.16-.17.16-.17a.2.2,0,0,0,0-.3l-.64-.64a.21.21,0,0,0-.15-.07.25.25,0,0,0-.15.06l-.17.17-.16-.15a.16.16,0,0,0-.08-.06.2.2,0,0,0-.23,0l-.65.65A.23.23,0,0,0,64.63,61.59Z"/><path class="cls-2" d="M54.49,72.47l.64.64a.19.19,0,0,0,.15.07.18.18,0,0,0,.15-.07l1-1a.23.23,0,0,0,0-.25l0-.06-.64-.64a.22.22,0,0,0-.3,0l-.95,1a.2.2,0,0,0,0,.3Z"/><path class="cls-2" d="M54.48,82l-.55-.55.06,2,.49-.49a.23.23,0,0,0,0-.31l-.17-.16.17-.17A.23.23,0,0,0,54.48,82Z"/><path class="cls-2" d="M54.42,67.87a.23.23,0,0,0,.07.15l.93.94.09.06.08,0a.21.21,0,0,0,.15-.07l.65-.64a.23.23,0,0,0,0-.25h0l0-.06-1-1a.22.22,0,0,0-.3,0l-.64.64A.24.24,0,0,0,54.42,67.87Z"/><path class="cls-2" d="M54.49,64.19l.64.64a.2.2,0,0,0,.15.06.22.22,0,0,0,.15-.06l1-.95a.2.2,0,0,0,.07-.16.19.19,0,0,0-.07-.15l-.64-.64a.22.22,0,0,0-.3,0l-.95,1A.21.21,0,0,0,54.49,64.19Z"/><path class="cls-2" d="M55.44,60.69a.22.22,0,0,0,.15.06.2.2,0,0,0,.15-.06l.64-.64a.21.21,0,0,0,0-.31l-.6-.61a1,1,0,0,1-.49.16,1.09,1.09,0,0,1-.51-.15l-.29.29a.2.2,0,0,0,0,.25.21.21,0,0,0,0,.06Z"/><path class="cls-2" d="M31.48,61.49a.2.2,0,0,0,.06.15l.17.17-.17.17a.22.22,0,0,0,0,.3l.64.64a.2.2,0,0,0,.16.07.22.22,0,0,0,.15-.06l.17-.17.16.15a.2.2,0,0,0,.12.08.23.23,0,0,0,.19-.07l.64-.64a.2.2,0,0,0,0-.3l-.16-.17.16-.17a.2.2,0,0,0,0-.3l-.63-.63a.16.16,0,0,0-.08-.06.2.2,0,0,0-.23,0l-.17.17-.17-.17a.23.23,0,0,0-.31,0l-.64.65A.2.2,0,0,0,31.48,61.49Z"/><path class="cls-2" d="M75.55,72.52c-.07-.27-.13-.55-.2-.82l-.16.16a.22.22,0,0,0,0,.3Z"/><path class="cls-2" d="M75.83,77.26a.23.23,0,0,0,.16.06.22.22,0,0,0,.15-.06l.47-.47c-.12-.48-.24-1-.36-1.48l-.11,0-1,1a.22.22,0,0,0,0,.3Z"/><path class="cls-2" d="M72.92,69.87l0,.06.16.16-.16.17a.21.21,0,0,0,0,.31l.63.63a.21.21,0,0,0,.13.07h0a.2.2,0,0,0,.15-.06l.17-.17.17.17a.22.22,0,0,0,.3,0l.54-.54c-.13-.53-.27-1-.4-1.55L74.54,69a.22.22,0,0,0-.3,0l-.17.17L73.9,69a.2.2,0,0,0-.3,0l-.64.64A.2.2,0,0,0,72.92,69.87Z"/><path class="cls-2" d="M75.83,79.5l-.64.64a.22.22,0,0,0,0,.3l1,1a.2.2,0,0,0,.15.06.22.22,0,0,0,.15-.06l.64-.65a.2.2,0,0,0,0-.3l-1-1A.21.21,0,0,0,75.83,79.5Z"/><path class="cls-2" d="M72.32,71.23a.16.16,0,0,0-.08-.06.21.21,0,0,0-.24,0l-1,1a.22.22,0,0,0,0,.3l.63.63a.26.26,0,0,0,.13.08h0a.22.22,0,0,0,.15-.06l1-1a.22.22,0,0,0,0-.3Z"/><path class="cls-2" d="M71.59,64.73l.09.09a.24.24,0,0,0,.13.07h0a.24.24,0,0,0,.16-.07l1-.95a.23.23,0,0,0,0-.31l-.63-.63a.24.24,0,0,0-.13-.07.22.22,0,0,0-.19.06l-.3.3a1,1,0,0,1,.08,1.12C71.71,64.46,71.65,64.61,71.59,64.73Z"/><path class="cls-2" d="M72,67.07a.23.23,0,0,0-.31,0l-.64.64a.23.23,0,0,0,0,.31l1,1a.26.26,0,0,0,.16.07.23.23,0,0,0,.15-.07l.64-.64a.2.2,0,0,0,.06-.15A.25.25,0,0,0,73,68Z"/><path class="cls-2" d="M71.05,66.12,71,66.07c-.08.21-.16.42-.24.65l.3-.29A.23.23,0,0,0,71.05,66.12Z"/><path class="cls-2" d="M66.91,60.05l.64.64a.22.22,0,0,0,.15.06.23.23,0,0,0,.16-.06l1-.95a.23.23,0,0,0,0-.31l-.64-.64a.22.22,0,0,0-.31,0l-1,1a.21.21,0,0,0,0,.25A.21.21,0,0,0,66.91,60.05Z"/><path class="cls-2" d="M63.71,77.24a.22.22,0,0,0,.13.08h0a.2.2,0,0,0,.16-.07l.64-.64a.22.22,0,0,0,0-.3l-.94-1a.33.33,0,0,0-.13-.07.26.26,0,0,0-.19.06l-.64.65a.2.2,0,0,0,0,.3Z"/><path class="cls-2" d="M61.48,75.35l.17-.17.17.17a.22.22,0,0,0,.3,0l.64-.64a.21.21,0,0,0,0-.31l-.17-.17.17-.16a.21.21,0,0,0,0-.31l-.63-.63a.21.21,0,0,0-.13-.07.22.22,0,0,0-.19.06l-.16.17-.17-.17a.21.21,0,0,0-.31,0l-.64.64a.2.2,0,0,0-.06.15.25.25,0,0,0,.06.16l.17.16-.17.17a.22.22,0,0,0-.06.15.23.23,0,0,0,.06.16l.64.64A.23.23,0,0,0,61.48,75.35Z"/><path class="cls-2" d="M62.73,68a.21.21,0,0,0,0,.06l.95,1a.23.23,0,0,0,.15.07A.26.26,0,0,0,64,69l.64-.64a.23.23,0,0,0,0-.25l0-.06-1-1a.23.23,0,0,0-.31,0l-.64.64A.21.21,0,0,0,62.73,68Z"/><path class="cls-2" d="M63.41,58.79l-.64.64a.23.23,0,0,0-.07.15.24.24,0,0,0,.07.16l.95.95a.22.22,0,0,0,.15.06.25.25,0,0,0,.16-.06l.64-.64a.23.23,0,0,0,0-.31l-1-1A.23.23,0,0,0,63.41,58.79Z"/><path class="cls-2" d="M62.77,72.47l.64.64a.19.19,0,0,0,.15.07.21.21,0,0,0,.16-.07l1-1a.23.23,0,0,0,0-.25l0-.06L64,71.21a.23.23,0,0,0-.31,0l-.95,1A.2.2,0,0,0,62.77,72.47Z"/><path class="cls-2" d="M53.77,73.09l0,2.27h0l.64-.64a.23.23,0,0,0,0-.31l-.17-.17.17-.16a.23.23,0,0,0,.06-.16.22.22,0,0,0-.06-.15l-.64-.64S53.79,73.1,53.77,73.09Z"/><path class="cls-2" d="M62.82,57.35v0l-.11.23,0,0A.2.2,0,0,0,62.82,57.35Z"/><path class="cls-2" d="M63.53,56.61h0a.2.2,0,0,0,.15-.06l.84-.84c-.3-.17-.59-.35-.89-.51-.13.37-.28.77-.44,1.16l.18.18A.21.21,0,0,0,63.53,56.61Z"/><path class="cls-2" d="M62.76,58.14a.2.2,0,0,0,0-.3l-.12-.13A11.3,11.3,0,0,1,62,58.82s.07,0,.09,0Z"/><path class="cls-2" d="M58.56,80.29a.21.21,0,0,0,.07.15l.95,1a.22.22,0,0,0,.15.06.23.23,0,0,0,.16-.06l.64-.65a.22.22,0,0,0,0-.3l-1-1a.2.2,0,0,0-.3,0l-.64.64A.21.21,0,0,0,58.56,80.29Z"/><path class="cls-2" d="M56.45,76.46a.2.2,0,0,0-.06-.15l-1-1a.22.22,0,0,0-.3,0l-.64.65a.2.2,0,0,0,0,.3l.95,1a.22.22,0,0,0,.3,0l.65-.65A.2.2,0,0,0,56.45,76.46Z"/><path class="cls-2" d="M57.18,71.27a.23.23,0,0,0,.16-.06l.17-.17.16.17a.23.23,0,0,0,.31,0l.64-.64a.25.25,0,0,0,.06-.16.22.22,0,0,0-.06-.15l-.17-.17.17-.16a.23.23,0,0,0,0-.31L58,69a.23.23,0,0,0-.15-.07.24.24,0,0,0-.16.07l-.16.16L57.34,69A.21.21,0,0,0,57,69l-.64.64a.22.22,0,0,0,0,.3l.17.17-.17.17a.22.22,0,0,0-.06.15.2.2,0,0,0,.06.15l.64.65A.22.22,0,0,0,57.18,71.27Z"/><path class="cls-2" d="M55.28,81.46a.2.2,0,0,0,.15-.06l1-1a.22.22,0,0,0,0-.3l-.65-.64a.2.2,0,0,0-.3,0l-.95,1a.2.2,0,0,0,0,.3l.64.65A.22.22,0,0,0,55.28,81.46Z"/><path class="cls-2" d="M58.63,68.33l.64.64a.23.23,0,0,0,.15.07.21.21,0,0,0,.15-.07l1-1a.23.23,0,0,0,0-.31l-.65-.64a.22.22,0,0,0-.3,0l-.95,1a.26.26,0,0,0-.07.16A.21.21,0,0,0,58.63,68.33Z"/><path class="cls-2" d="M58.63,76.61l.64.65a.22.22,0,0,0,.15.06.2.2,0,0,0,.15-.06l1-1a.23.23,0,0,0,0-.25l0,0-.65-.65a.22.22,0,0,0-.3,0l-.95,1a.21.21,0,0,0,0,.25A.1.1,0,0,0,58.63,76.61Z"/><path class="cls-2" d="M59.58,73.11a.23.23,0,0,0,.15.07.21.21,0,0,0,.15-.07l.65-.64a.23.23,0,0,0,0-.31l-1-1a.22.22,0,0,0-.3,0l-.64.64a.21.21,0,0,0,0,.31Z"/><path class="cls-2" d="M59.58,64.83a.22.22,0,0,0,.3,0l.65-.64a.23.23,0,0,0,0-.31l-1-1a.22.22,0,0,0-.3,0l-.64.64a.21.21,0,0,0,0,.31Z"/><path class="cls-2" d="M63.56,64.9a.26.26,0,0,0,.16-.07l1-.95a.23.23,0,0,0,0-.31L64,63a.27.27,0,0,0-.08-.07.23.23,0,0,0-.24,0l-.95,1a.21.21,0,0,0,0,.31l.63.63a.21.21,0,0,0,.13.07Z"/><path class="cls-2" d="M33.77,78.54l-.16-.17.16-.16a.24.24,0,0,0,.07-.16.23.23,0,0,0-.07-.15l-.64-.64a.22.22,0,0,0-.3,0l-.17.17-.17-.17a.2.2,0,0,0-.3,0l-.65.64a.23.23,0,0,0,0,.25l0,.06.17.16-.17.17a.23.23,0,0,0,0,.31l.65.64a.22.22,0,0,0,.3,0l.17-.17.17.17a.22.22,0,0,0,.3,0l.64-.64A.21.21,0,0,0,33.77,78.54Z"/><path class="cls-2" d="M29,67.07l.64-.65a.2.2,0,0,0,0-.3L29.46,66l.17-.17a.22.22,0,0,0,0-.3L29,64.84a.21.21,0,0,0-.31,0l-.16.16-.17-.16a.19.19,0,0,0-.15-.07.23.23,0,0,0-.16.06l-.64.65a.22.22,0,0,0,0,.3l.17.17-.17.17a.22.22,0,0,0,0,.3l.64.65a.23.23,0,0,0,.31,0l.17-.17.17.17a.2.2,0,0,0,.15.06A.22.22,0,0,0,29,67.07Z"/><path class="cls-2" d="M55.43,83.64a.21.21,0,0,0-.3,0l-.64.64a.2.2,0,0,0,0,.3l.95,1a.22.22,0,0,0,.15.06.2.2,0,0,0,.15-.06l.65-.65a.22.22,0,0,0,0-.3Z"/><path class="cls-2" d="M34.89,81.46A.22.22,0,0,0,35,81.4l.64-.65a.22.22,0,0,0,0-.3l-1-1a.23.23,0,0,0-.31,0l-.64.65a.22.22,0,0,0,0,.3l.95,1A.23.23,0,0,0,34.89,81.46Z"/><path class="cls-2" d="M30.91,79.51a.26.26,0,0,0-.13-.08.31.31,0,0,0-.19.06l-.95,1a.2.2,0,0,0,0,.3l.63.64a.27.27,0,0,0,.13.07h0a.23.23,0,0,0,.16-.06l.95-1a.22.22,0,0,0,0-.3Z"/><path class="cls-2" d="M42.12,86.34a.23.23,0,0,0-.06-.16l-.65-.64a.22.22,0,0,0-.3,0l-.17.17-.17-.17a.22.22,0,0,0-.3,0L40,86l1.93.83a.43.43,0,0,0,.17.06s0-.06,0-.08l-.17-.17.17-.17A.22.22,0,0,0,42.12,86.34Z"/><path class="cls-2" d="M38.87,83.64a.21.21,0,0,0-.31,0l-.64.64a.22.22,0,0,0,0,.3l.94.94.17.08a.2.2,0,0,0,.15-.06l.64-.65a.22.22,0,0,0,0-.3Z"/><path class="cls-2" d="M37.92,82.69l-.17-.17.17-.17A.22.22,0,0,0,38,82.2a.23.23,0,0,0-.06-.16l-.65-.64a.22.22,0,0,0-.3,0l-.17.17-.17-.17a.22.22,0,0,0-.3,0l-.64.64a.2.2,0,0,0-.07.16.19.19,0,0,0,.07.15l.16.17-.16.17a.2.2,0,0,0,0,.3l.64.64a.2.2,0,0,0,.3,0l.17-.17.17.17a.22.22,0,0,0,.15.06.2.2,0,0,0,.15-.06l.65-.64A.22.22,0,0,0,37.92,82.69Z"/><path class="cls-2" d="M34.89,83.57a.24.24,0,0,0-.16.07l-.06.06.75.32L35,83.64A.23.23,0,0,0,34.89,83.57Z"/><path class="cls-2" d="M29.63,74.4l-.17-.17.17-.16a.26.26,0,0,0,.07-.16.21.21,0,0,0-.07-.15L29,73.12a.2.2,0,0,0-.25,0c.11.75.21,1.49.3,2.2l.59-.59A.21.21,0,0,0,29.63,74.4Z"/><path class="cls-2" d="M17.21,95.11,17,94.94l.17-.17a.21.21,0,0,0,0-.25.1.1,0,0,0,0,0l-.64-.65a.23.23,0,0,0-.31,0l-.17.17-.16-.17a.23.23,0,0,0-.16-.06.22.22,0,0,0-.15.06l-.64.65a.22.22,0,0,0,0,.3l.17.17-.17.17a.2.2,0,0,0,0,.3l.64.64a.21.21,0,0,0,.31,0l.16-.16.17.16a.21.21,0,0,0,.16.07.19.19,0,0,0,.15-.07l.64-.64A.22.22,0,0,0,17.21,95.11Z"/><path class="cls-2" d="M20.4,98l-.16.16L20.07,98a.23.23,0,0,0-.31,0l-.64.65a.22.22,0,0,0,0,.3l.17.17-.17.17a.22.22,0,0,0,0,.3l.64.65h0a6.09,6.09,0,0,0,1.34-1.82L20.71,98A.21.21,0,0,0,20.4,98Z"/><path class="cls-2" d="M17.22,97l1,.95a.22.22,0,0,0,.15.06.2.2,0,0,0,.15-.06l.64-.64a.21.21,0,0,0,0-.31l-.95-1a.2.2,0,0,0-.3,0l-.64.64a.2.2,0,0,0,0,.25Z"/><path class="cls-2" d="M21.36,97.32l.16.16c.12-.3.24-.62.35-1l-.51.51A.21.21,0,0,0,21.36,97.32Z"/><path class="cls-2" d="M26.44,79.49a.22.22,0,0,0-.3,0l-.34.34,1.63.71s0-.07,0-.09Z"/><path class="cls-2" d="M25.32,78.37l.17-.16a.23.23,0,0,0,.06-.16.22.22,0,0,0-.06-.15l-.64-.64a.23.23,0,0,0-.31,0l-.16.17-.17-.17a.21.21,0,0,0-.31,0l-.64.64a.22.22,0,0,0,0,.3l.17.17-.17.17a.23.23,0,0,0-.06.16,0,0,0,0,1,0,0h.08l1.61.71.59-.59a.23.23,0,0,0,.06-.16.22.22,0,0,0-.06-.15Z"/><path class="cls-2" d="M22,91.92l-.64.64a.23.23,0,0,0-.07.15.24.24,0,0,0,.07.16l.78.78,0-1.78A.22.22,0,0,0,22,91.92Z"/><path class="cls-2" d="M23.3,76.36l0-.06-1-1a.22.22,0,0,0-.3,0l-.64.64a.21.21,0,0,0,0,.31l.95,1a.19.19,0,0,0,.15.07.18.18,0,0,0,.15-.07l.65-.64A.23.23,0,0,0,23.3,76.36Z"/><path class="cls-2" d="M18.4,100.15a.22.22,0,0,0-.23,0l-1,1a.19.19,0,0,0,0,.2,4.82,4.82,0,0,0,1.86-.59l-.54-.54A.31.31,0,0,0,18.4,100.15Z"/><path class="cls-2" d="M71.11,74.55a.22.22,0,0,0-.06-.15l-.17-.17.16-.16a.21.21,0,0,0,0-.31l-.64-.64a.22.22,0,0,0-.3,0l-.17.17-.17-.17a.2.2,0,0,0-.3,0l-.24.23c-.08.51-.15,1-.22,1.54l.46.46a.22.22,0,0,0,.3,0l.17-.17.17.17a.22.22,0,0,0,.15.06.2.2,0,0,0,.15-.06l.65-.64A.23.23,0,0,0,71.11,74.55Z"/><path class="cls-2" d="M68.81,65.48a.22.22,0,0,0,0,.3l.1.1c.09-.27.19-.54.29-.79Z"/><path class="cls-2" d="M73,76.36a.1.1,0,0,0,0,0l-1-1a.23.23,0,0,0-.31,0l-.64.65a.22.22,0,0,0,0,.3l1,1a.25.25,0,0,0,.16.06.22.22,0,0,0,.15-.06l.64-.65A.21.21,0,0,0,73,76.36Z"/><path class="cls-2" d="M68.84,76.22a.15.15,0,0,0,0-.07.05.05,0,0,0,0,0A.45.45,0,0,1,68.84,76.22Z"/><path class="cls-2" d="M78,83.19c0-.37-.15-1-.31-1.72L77.1,82a.21.21,0,0,0,0,.31l.17.17-.17.17a.2.2,0,0,0,0,.3l.64.64a.23.23,0,0,0,.15.07.21.21,0,0,0,.15-.07l0,0A2.1,2.1,0,0,1,78,83.19Z"/><path class="cls-2" d="M68.75,66.27a0,0,0,0,0,0,0,1.34,1.34,0,0,1,.07-.18h0A.22.22,0,0,0,68.75,66.27Z"/><path class="cls-2" d="M75.25,78.7a.23.23,0,0,0-.06-.16L75,78.38l.17-.17a.22.22,0,0,0,.06-.15.23.23,0,0,0-.06-.16l-.65-.64a.22.22,0,0,0-.3,0l-.17.17-.17-.17a.22.22,0,0,0-.3,0L73,77.9a.21.21,0,0,0,0,.31l.16.17-.16.16s0,0,0,0a1,1,0,0,1,.68.12,1,1,0,0,1,.41.65l0,0,.17.17a.22.22,0,0,0,.3,0l.65-.64A.22.22,0,0,0,75.25,78.7Z"/><path class="cls-2" d="M76.45,83.64a.21.21,0,0,0-.31,0l-1,1a.23.23,0,0,0,0,.31l.19.19c.4,0,.78,0,1.14.06l.57-.57a.2.2,0,0,0,0-.3Z"/><path class="cls-2" d="M57,85.54,57,85.6l.24-.11h0A.23.23,0,0,0,57,85.54Z"/><path class="cls-2" d="M59.58,83.64l-.95,1a.23.23,0,0,0-.07.15.22.22,0,0,0,.06.13l1.73-.77-.47-.46A.2.2,0,0,0,59.58,83.64Z"/><path class="cls-2" d="M62.6,82.52l.16-.17a.2.2,0,0,0,0-.3l-.64-.65a.22.22,0,0,0-.3,0l-.17.17-.16-.16-.08-.06a.24.24,0,0,0-.24.05l-.64.64a.23.23,0,0,0,0,.31l.17.17-.17.17a.23.23,0,0,0,0,.25l0,0,.64.64a.21.21,0,0,0,.12.05l.25-.11.11-.11,0,.05,1-.45.07-.07a.21.21,0,0,0,0-.31Z"/><path class="cls-2" d="M64.67,80.14,64,79.5a.23.23,0,0,0-.31,0l-.95,1a.2.2,0,0,0,0,.3l.64.65a.22.22,0,0,0,.15.06.25.25,0,0,0,.16-.06l1-1a.23.23,0,0,0,0-.25Z"/><path class="cls-2" d="M58.68,78.7a.23.23,0,0,0-.06-.16l-.17-.16.17-.17a.21.21,0,0,0,0-.31L58,77.26a.22.22,0,0,0-.15-.06.23.23,0,0,0-.16.06l-.16.17-.17-.17a.23.23,0,0,0-.31,0l-.64.64a.23.23,0,0,0,0,.31l.17.17-.17.16a.23.23,0,0,0-.06.16.22.22,0,0,0,.06.15l.64.64a.23.23,0,0,0,.16.06.22.22,0,0,0,.15-.06l.17-.17.16.17a.23.23,0,0,0,.31,0l.64-.64A.22.22,0,0,0,58.68,78.7Z"/><path class="cls-2" d="M67.86,67.07l-1,1a.23.23,0,0,0,0,.31l.64.64a.23.23,0,0,0,.15.07.24.24,0,0,0,.16-.07l.2-.2c.11-.48.24-1,.38-1.43l-.27-.27A.23.23,0,0,0,67.86,67.07Z"/><path class="cls-2" d="M68.47,80.5l.27-.12-.25-.25C68.49,80.26,68.47,80.37,68.47,80.5Z"/><path class="cls-2" d="M66.91,72.16l.4.4c.07-.44.14-.89.23-1.33l-.63.62A.23.23,0,0,0,66.91,72.16Z"/><path class="cls-2" d="M66.11,77.2a.2.2,0,0,0-.15.06l-.17.17-.17-.17a.22.22,0,0,0-.3,0l-.65.64a.23.23,0,0,0,0,.31l.17.17-.17.16a.23.23,0,0,0-.06.16.22.22,0,0,0,.06.15l.65.64a.2.2,0,0,0,.15.06.22.22,0,0,0,.15-.06l.17-.17.17.17a.22.22,0,0,0,.3,0l.28-.27c0-.48.07-1,.13-1.55l-.41-.41A.2.2,0,0,0,66.11,77.2Z"/><path class="cls-2" d="M29.57,59.58a.24.24,0,0,0,.07.16l.95.95a.22.22,0,0,0,.15.06.23.23,0,0,0,.16-.06l.64-.64a.23.23,0,0,0,0-.31l-.95-1a.21.21,0,0,0-.31,0l-.64.64A.23.23,0,0,0,29.57,59.58Z"/><path class="cls-2" d="M22.46,69a.2.2,0,0,0,.15-.06l.65-.64a.22.22,0,0,0,.06-.15.23.23,0,0,0-.06-.16l-1-1a.22.22,0,0,0-.3,0l-.5.5c-.05.15-.09.3-.14.45l.95,1A.22.22,0,0,0,22.46,69Z"/><path class="cls-2" d="M23.9,62.92a.23.23,0,0,0,.15.07.24.24,0,0,0,.16-.07l.17-.17.16.17s.05,0,.07,0a.92.92,0,0,1,.32-.1l.56-.57a.22.22,0,0,0,0-.3l-.17-.17.17-.17a.22.22,0,0,0,0-.3L25,60.79l-.21.17-.53.42a5.55,5.55,0,0,0-1,.87s0,0,0,0Z"/><path class="cls-2" d="M23.25,63.57l-.4-.4-.5,1.62.9-.91A.21.21,0,0,0,23.25,63.57Z"/><path class="cls-2" d="M19.91,75.41a.23.23,0,0,0,.16-.06l.16-.17.17.17a.23.23,0,0,0,.16.06.22.22,0,0,0,.15-.06l.64-.64a.21.21,0,0,0,0-.25.21.21,0,0,0,0-.06l-.17-.17.17-.17a.22.22,0,0,0,0-.3l-.64-.64a.21.21,0,0,0-.31,0l-.17.17-.16-.17a.24.24,0,0,0-.16-.07l0,0c-.18.62-.36,1.24-.53,1.85l.42.43A.22.22,0,0,0,19.91,75.41Z"/><path class="cls-2" d="M22,73.1a.17.17,0,0,0,.13.07h0a.21.21,0,0,0,.15-.07l.95-1a.21.21,0,0,0,0-.31l-.63-.63a.19.19,0,0,0-.13-.07.21.21,0,0,0-.18.06l-.95,1a.21.21,0,0,0,0,.31Z"/><path class="cls-2" d="M19.88,92h0a.2.2,0,0,0,.16-.07l.17-.17.16.17a.21.21,0,0,0,.31,0l.64-.64a.22.22,0,0,0,0-.3l-.08-.09a.93.93,0,0,1-1.2.13,5.25,5.25,0,0,1-.88-.75l-.07.07a.19.19,0,0,0-.06.15.22.22,0,0,0,.06.15l.17.17-.17.17a.22.22,0,0,0,0,.3l.63.63A.19.19,0,0,0,19.88,92Z"/><path class="cls-2" d="M22.07,89.71l0-1.66-.68.68a.21.21,0,0,0,0,.31l.64.64S22,89.7,22.07,89.71Z"/><path class="cls-2" d="M19.12,83l.64.64a.23.23,0,0,0,.31,0l.16-.17.17.17a.23.23,0,0,0,.16.06.22.22,0,0,0,.15-.06l.64-.64a.23.23,0,0,0,0-.31l-.17-.16.17-.17a.23.23,0,0,0,0-.31l-.63-.63a.24.24,0,0,0-.13-.07.22.22,0,0,0-.19.06l-.17.17-.16-.17a.24.24,0,0,0-.16-.07.23.23,0,0,0-.15.07l-.64.64a.22.22,0,0,0-.06.15.23.23,0,0,0,.06.16l.17.16-.17.17A.23.23,0,0,0,19.12,83Z"/><path class="cls-2" d="M18.47,91.92a.2.2,0,0,0-.3,0l-1,1a.23.23,0,0,0,0,.25l0,.06.64.64a.22.22,0,0,0,.3,0l.95-.95a.21.21,0,0,0,0-.31Z"/><path class="cls-2" d="M25.43,68.18a.21.21,0,0,0,.07.15l.28.28c-.06-.24-.13-.45-.2-.67L25.5,68A.24.24,0,0,0,25.43,68.18Z"/><path class="cls-2" d="M28.16,58.84h0a.19.19,0,0,0,.15-.07l.17-.17.17.17a.2.2,0,0,0,.3,0l.64-.64a.2.2,0,0,0,0-.3l-.17-.17.17-.17a.2.2,0,0,0,0-.3h0c-.65.47-1.26.93-1.82,1.36l.22.22A.19.19,0,0,0,28.16,58.84Z"/><path class="cls-2" d="M23.26,70.57l.63.63a.24.24,0,0,0,.13.07h0a.22.22,0,0,0,.15-.06l.17-.17.16.17a.23.23,0,0,0,.31,0l.64-.64a.21.21,0,0,0,0-.31l-.17-.17.17-.16a.25.25,0,0,0,.06-.16.2.2,0,0,0-.06-.15L24.85,69a.23.23,0,0,0-.15-.07.24.24,0,0,0-.16.07l-.16.16L24.21,69a.21.21,0,0,0-.31,0l-.64.64a.22.22,0,0,0,0,.3l.17.17-.17.17A.23.23,0,0,0,23.26,70.57Z"/><path class="cls-2" d="M30.73,56.4l-.29.21a.2.2,0,0,0,.14-.06Z"/><path class="cls-2" d="M25.5,72.16l.95,1a.23.23,0,0,0,.15.07s.07,0,.11-.05c-.11-.68-.23-1.32-.35-1.95a.2.2,0,0,0-.22,0l-.64.64a.26.26,0,0,0-.07.16A.23.23,0,0,0,25.5,72.16Z"/><path class="cls-2" d="M21.36,84.28a.2.2,0,0,0,0,.3l.62.63,0-1.53Z"/><path class="cls-2" d="M26.29,60.75a.2.2,0,0,0,.15-.06l1-.95a.23.23,0,0,0,0-.31l-.33-.32-1.41,1.1.48.48A.2.2,0,0,0,26.29,60.75Z"/><path class="cls-2" d="M26.14,77.26a.22.22,0,0,0,.3,0l.71-.71-.09-.89-.31-.31a.2.2,0,0,0-.15-.06.22.22,0,0,0-.15.06l-.95,1a.2.2,0,0,0,0,.3Z"/><path class="cls-2" d="M27.4,63.88l-1-1a.2.2,0,0,0-.3,0l-.31.31.09.09a13,13,0,0,1,.74,1.54s.07,0,.09,0l.65-.64A.23.23,0,0,0,27.4,63.88Z"/><path class="cls-2" d="M14.33,96.06a.22.22,0,0,0-.3,0l-1,1a.23.23,0,0,0,0,.31l.65.64a.2.2,0,0,0,.15.06A.22.22,0,0,0,14,98L15,97a.24.24,0,0,0,.07-.16A.23.23,0,0,0,15,96.7Z"/><path class="cls-2" d="M8.28,93.82l0,0c.19.37.39.74.58,1.09l.12-.12a.22.22,0,0,0,0-.3Z"/><path class="cls-2" d="M7.34,87.77a.2.2,0,0,0,.24,0l-.43-.22Z"/><path class="cls-2" d="M10.87,97.07l0-.06-.95-1a.21.21,0,0,0-.31,0l-.05.06c.34.57.67,1.09,1,1.52l.32-.32a.21.21,0,0,0,0-.25Z"/><path class="cls-2" d="M6.05,87.78a.21.21,0,0,0-.31,0L5.48,88c.19.44.39.87.59,1.31l.62-.63a.22.22,0,0,0,0-.3Z"/><path class="cls-2" d="M13.72,100.2h0l.75.44L14,100.2A.22.22,0,0,0,13.72,100.2Z"/><path class="cls-2" d="M9.88,89.67a.24.24,0,0,0,.12.07h0a.22.22,0,0,0,.15-.06l.63-.63c-.61-.18-1.24-.39-1.87-.64h0a.22.22,0,0,0,0,.3Z"/><path class="cls-2" d="M12.9,99.08l.17-.17a.22.22,0,0,0,0-.3L12.43,98a.26.26,0,0,0-.16-.07.23.23,0,0,0-.15.07l-.17.16L11.78,98a.22.22,0,0,0-.3,0l-.41.41a3.88,3.88,0,0,0,.74.67l1.1.67.16-.16a.22.22,0,0,0,0-.3Z"/><path class="cls-2" d="M10.2,91.93a.21.21,0,0,0-.32,0l-1,1a.23.23,0,0,0,0,.31l.63.63a.24.24,0,0,0,.13.07h0a.22.22,0,0,0,.15-.06l.95-.95a.21.21,0,0,0,0-.31Z"/><path class="cls-2" d="M13.87,89.74a.22.22,0,0,0,.15-.06l.08-.08H14l-.35,0,.1.09A.2.2,0,0,0,13.87,89.74Z"/><path class="cls-2" d="M18.32,81.46a.21.21,0,0,0,.15-.07l.64-.64a.2.2,0,0,0,0-.3l-.95-1s-.05,0-.07,0c-.14.53-.27,1-.38,1.48l.46.46A.25.25,0,0,0,18.32,81.46Z"/><path class="cls-2" d="M19.11,84.58a.2.2,0,0,0,0-.3l-.64-.64a.2.2,0,0,0-.3,0l-.68.67c.21.38.45.79.7,1.2Z"/><path class="cls-2" d="M19.18,76.15a.26.26,0,0,0-.07-.16l-.06-.06c-.06.2-.11.4-.17.6l.23-.23A.23.23,0,0,0,19.18,76.15Z"/><path class="cls-2" d="M10.8,90.57a.21.21,0,0,0,0,.06l.17.17-.17.17a.2.2,0,0,0,0,.3l.63.63a.17.17,0,0,0,.13.07h0a.18.18,0,0,0,.15-.07l.17-.17.17.17a.21.21,0,0,0,.31,0l.64-.64a.22.22,0,0,0,0-.3l-.17-.17.17-.17a.22.22,0,0,0,0-.3l-.64-.65a.23.23,0,0,0-.31,0l-.17.17-.17-.17a.22.22,0,0,0-.3,0l-.64.64A.21.21,0,0,0,10.8,90.57Z"/><path class="cls-2" d="M18.15,89.66a.18.18,0,0,0,.09.06.11.11,0,0,0,.08,0,.2.2,0,0,0,.15-.06l.1-.1c-.37-.45-.74-.93-1.08-1.43l-.27.27a.2.2,0,0,0,0,.3Z"/><path class="cls-2" d="M15.93,87.77l.16-.17.17.17a.21.21,0,0,0,.31,0l.4-.4c-.44-.7-.84-1.36-1.12-1.86h0a13,13,0,0,1-.12,2.31s0,0,0,0A.24.24,0,0,0,15.93,87.77Z"/><path class="cls-2" d="M21.36,80.45a.2.2,0,0,0,0,.3l.55.56,0-1.39Z"/><path class="cls-2" d="M13.72,91.92l-.65.64a.22.22,0,0,0-.06.15.23.23,0,0,0,.06.16l1,.95a.2.2,0,0,0,.15.06.22.22,0,0,0,.15-.06l.64-.64a.21.21,0,0,0,0-.31l-1-1A.22.22,0,0,0,13.72,91.92Z"/><path d="M45,37.43a.56.56,0,0,0,.42.69,9.64,9.64,0,0,0,2.14.23,7,7,0,0,0,5.05-1.87.58.58,0,0,0,0-.81.57.57,0,0,0-.82,0C49.6,37.91,45.72,37,45.68,37A.57.57,0,0,0,45,37.43Z"/><ellipse cx="54.85" cy="27.35" rx="1.33" ry="1.47"/><path d="M41.11,28.81a1.47,1.47,0,1,0-1.33-1.46A1.4,1.4,0,0,0,41.11,28.81Z"/><path d="M59.23,6.06a1,1,0,0,0,1.35-1.5l-.39-.34a1,1,0,1,0-1.31,1.53Z"/><path d="M53.8,85.16h0a1,1,0,0,0,1-1c.2-5.28.08-12-.11-16.6a1,1,0,0,0-1.05-1,1,1,0,0,0-1,1c.18,4.53.31,11.22.11,16.44A1,1,0,0,0,53.8,85.16Z"/><path d="M53.62,65.1A1,1,0,0,0,54.55,64c0-.56-.07-1-.11-1.28a1,1,0,0,0-2,.24c0,.26.07.66.11,1.18a1,1,0,0,0,1,.94Z"/><path d="M68.76,59a1,1,0,0,0,.58.18,1,1,0,0,0,.59-1.82l-.81-.58a1,1,0,1,0-1.18,1.62Z"/><path d="M43.24,117.38a1,1,0,0,0,1-1V92.24a1,1,0,1,0-2,0v24.14A1,1,0,0,0,43.24,117.38Z"/><path d="M52.72,117.38a1,1,0,0,0,1-1v-9.5a1,1,0,0,0-2,0v9.5A1,1,0,0,0,52.72,117.38Z"/><path d="M52.72,103.46a1,1,0,0,0,1-1v-.86a1,1,0,1,0-2,0v.86A1,1,0,0,0,52.72,103.46Z"/><path d="M52.72,98.62a1,1,0,0,0,1-1V92.24a1,1,0,1,0-2,0v5.38A1,1,0,0,0,52.72,98.62Z"/><path d="M90.89,119.41a1,1,0,0,0-1.42.08,39.44,39.44,0,0,1-8.67,7,109.17,109.17,0,0,1-25.2,11.36,40.83,40.83,0,0,0-5.67-3.67,124.52,124.52,0,0,0,14.69-10.68c4-3.28,7.48-6.12,12.51-8.57a1,1,0,0,0,.47-1.34,1,1,0,0,0-1.35-.47c-5.25,2.55-8.8,5.46-12.91,8.83-1.91,1.57-4,3.24-6.37,5a12.3,12.3,0,0,1-6,.64c-.88-.06-1.87-.12-3-.12s-2.13.06-3,.12a12.18,12.18,0,0,1-6.08-.68c-2-1.54-3.53-3-5-4.32a46.41,46.41,0,0,0-14.18-9.52,1,1,0,1,0-.82,1.84,44.58,44.58,0,0,1,13.65,9.17,77,77,0,0,0,16.12,11.63,36.6,36.6,0,0,1,6.62,4.45,9.35,9.35,0,0,0-3,3.76,26.66,26.66,0,0,1-2.94-1.56,49.34,49.34,0,0,0-4.6-2.43c-.54-.23-1.09-.44-1.62-.61a133.65,133.65,0,0,1-27.88-12.87c-7.55-4.7-12.27-10.21-12.95-15.11a6.23,6.23,0,0,1,1.36-5.15c2.74-3,11.14-2.61,14.14-2.21a36.48,36.48,0,0,1,4.65,1l.12,6.31a1,1,0,0,0,.6.9l16.73,7.2a4.26,4.26,0,0,0,1.3.31,1.16,1.16,0,0,1,.7.4,9.49,9.49,0,0,0,12.34,0,1.16,1.16,0,0,1,.7-.4,4.26,4.26,0,0,0,1.3-.31l17.33-7.56a1,1,0,0,0,.6-.93V107.3A2.08,2.08,0,0,0,75,107c.8-.57,2.14-1.67,3.55-2.94a39.75,39.75,0,0,1,4.22-.23h.08a22.38,22.38,0,0,1,6.7.84,1.12,1.12,0,0,0,.31,0,1,1,0,0,0,.31-2,23.41,23.41,0,0,0-7.4-.94c-.7,0-1.36,0-2,.06a9.87,9.87,0,0,0,2.35-5.24c0-.24.09-.47.14-.69a1,1,0,0,0,.43-.74,18.91,18.91,0,0,0-.38-5.26A6.14,6.14,0,0,0,82,87.45a8.55,8.55,0,0,0-1.14-2.68A6.93,6.93,0,0,1,80,83c-.38-3.27-4.86-20.35-5.24-21.2A5,5,0,0,0,73,59.81l-.5-.4a1,1,0,0,0-1.42.14A1,1,0,0,0,71.23,61l.52.43c.68.53,1,.77,1.15,1.17.4,1,4.74,17.68,5.08,20.63a6.89,6.89,0,0,0,1,2.44,14,14,0,0,0-4.92-.53V79.55a1,1,0,0,0-.46-.84,1,1,0,0,0-1-.07l-4.2,1.86c.43-7.22,1.69-13.38,3.31-16.15a1,1,0,1,0-1.74-1C67.31,68,66.58,78,66.42,80.94a1,1,0,0,0,.08.43L53.33,87.21a.51.51,0,0,1-.22.07h0a3,3,0,0,0-2.23,1c-.64.64-.74.74-2.9.74s-2.93-.42-3.61-1.1a3.1,3.1,0,0,0-2.22-1,.5.5,0,0,1-.23-.07L29.43,81.41a.93.93,0,0,0,.11-.47c-.16-3-.9-12.94-3.62-17.61a1,1,0,1,0-1.74,1c1.63,2.78,2.89,9,3.32,16.22l-4.21-1.84a1,1,0,0,0-1,.09,1,1,0,0,0-.44.85l.3,16.25a1.1,1.1,0,0,0-.26.43c-1.38,4.71-3.92,4.93-5.15,5a2.71,2.71,0,0,0-.49.06c-.45,0-2.13-1-4.47-2.41-1.74-1.08-4.92-7.6-7.3-13.23A17.48,17.48,0,0,0,14,89.61a2.08,2.08,0,0,0,1-.18c.77-.44,1-2.14.9-3.93C16.71,87,18.52,90,20.07,91a1,1,0,0,0,1.09-1.69c-1.17-.75-3.07-3.84-4-5.67a1.27,1.27,0,0,0,.06-.18c.35-3.07,5.58-20.18,5.88-20.89.18-.42.47-.66,1.15-1.2l.53-.42s3.89-3.2,7.59-5.66c.76,2.14,2,4.84,3.06,4.84.48,0,.83-.26,1.61-.84a7.72,7.72,0,0,1,2.58-1.48,1,1,0,0,1,.11.45,1,1,0,0,0,1,1,1,1,0,0,0,1-1A2.73,2.73,0,0,0,41,56.4a2,2,0,0,0-1.52-.58c-1.25,0-2.66,1.1-3.68,1.87l-.16.11a21.65,21.65,0,0,1-2-5.23c-.05-.45,1.49-1.67,3.51-2.67a3.68,3.68,0,0,1,.36,1.78,2.73,2.73,0,0,1-1.24,2,1,1,0,0,0,.37,1.88,3.64,3.64,0,0,0,.48,0,5.29,5.29,0,0,0,4.09-1.94,17.57,17.57,0,0,1,.92,2.29,12.26,12.26,0,0,1,0,3.68,78.07,78.07,0,0,0-.85,8c-.19,4.57-.31,11.33-.11,16.6a1,1,0,0,0,1,1h0a1,1,0,0,0,1-1c-.21-5.21-.08-11.91.1-16.44,0,0,.17-3.68.82-7.79a13.59,13.59,0,0,0,0-4.51A12.06,12.06,0,0,0,43.55,54,6,6,0,0,0,48,55.53,6,6,0,0,0,52.41,54a10.37,10.37,0,0,0-.48,1.37,12,12,0,0,0,0,4.72,1.08,1.08,0,0,0,1,.68.79.79,0,0,0,.34-.06,1,1,0,0,0,.59-1.25,11.05,11.05,0,0,1,0-3.58,15.73,15.73,0,0,1,.92-2.28,5.28,5.28,0,0,0,4.56,1.9,1,1,0,0,0,.88-.79,1,1,0,0,0-.49-1.09,2.67,2.67,0,0,1-1.25-2,3.68,3.68,0,0,1,.36-1.78c2,1,3.56,2.22,3.51,2.67a21.65,21.65,0,0,1-2,5.23l-.16-.11c-1-.77-2.43-1.82-3.68-1.87A1.93,1.93,0,0,0,55,56.4a2.74,2.74,0,0,0-.7,1.93,1,1,0,0,0,1,1,1,1,0,0,0,1-1c0-.16.06-.39.14-.43A7.47,7.47,0,0,1,59,59.3c.78.58,1.13.84,1.61.84,1.09,0,2.34-2.79,3.09-4.94.7.4,1.45.84,2.08,1.23a1,1,0,0,0,.53.15,1,1,0,0,0,.53-1.86c-.76-.48-1.71-1-2.53-1.5a3.22,3.22,0,0,0,.08-.37c.27-2-2.45-3.69-4.41-4.67a17,17,0,0,1,2.22-2.28,20.17,20.17,0,0,0,5.88-8c.89,2.32,2.46,3.68,4.76,5.26a6.82,6.82,0,0,1,2.92,6.52A6.6,6.6,0,0,1,70.89,55a1,1,0,0,0,.31,2,.81.81,0,0,0,.31,0A8.51,8.51,0,0,0,77.71,50a8.82,8.82,0,0,0-3.77-8.46c-3.17-2.19-4.83-3.63-4.77-10.13a.53.53,0,0,0,0-.18,22.63,22.63,0,0,0-.65-4.61c1.43-6.52-.63-13.84-5.56-19.62a1,1,0,0,0-1.53,1.31c4.57,5.37,6.47,12.13,5.08,18.1a.94.94,0,0,0,0,.47,21.21,21.21,0,0,1,.69,4.57v.43c0,3.79-1.33,8.2-6.32,12.53-3.13,2.72-4.59,5.25-4.35,7.54a5,5,0,0,0,.14.71,4.19,4.19,0,0,1-1.16-2.73c-.41-3.76,1.55-6.36,3.62-9.12a31.36,31.36,0,0,0,2.76-4.11c2.54-4.8-.87-18.25-1.26-19.77h0c0-.06,0-.1,0-.1a1,1,0,0,0-1.91.61c.07.26.14.56.22.89.29,1.44.69,4.32.87,6.23a23.76,23.76,0,0,1-2.66-2.42c-1-1.07-1.92-4.92-2.37-7.23A11.54,11.54,0,0,0,54.47,13a1.05,1.05,0,0,0-.93-.86,1,1,0,0,0-1,.56,7.33,7.33,0,0,0,.22,2.94,38,38,0,0,1-.08,4.51,8.78,8.78,0,0,0-2.14-.21,8.24,8.24,0,0,1-1.31-.09c-.45-.75-.6-3.94-.68-5.68-.06-1.1-.11-2.14-.19-3a1,1,0,0,0-1-.9,1,1,0,0,0-1,1c-.15,5.17-.61,7.92-.93,8.74a6.45,6.45,0,0,0-3.23.65,13.17,13.17,0,0,1-.51-4.31c.17-1,.31-2.2.43-3.55a1,1,0,0,0-2-.32,19.29,19.29,0,0,0-.46,3.68c-.65,3.93-1.57,5.39-2,6.1l-.21.34a11.38,11.38,0,0,1-2.33,2.62c.24-3.58.71-7.09,1-9A1,1,0,0,0,35.42,15a1,1,0,0,0-1.2.62C33.33,18,32.07,26.16,33,28.17c-.06,3.41.19,6.68,1.16,8.5a31.36,31.36,0,0,0,2.76,4.11c2.07,2.76,4,5.36,3.62,9.12a4.24,4.24,0,0,1-1.16,2.73,5,5,0,0,0,.14-.71c.24-2.29-1.22-4.82-4.35-7.54-4.31-3.74-6-7.2-6.38-10.46a23.59,23.59,0,0,1,.55-6.32,4.61,4.61,0,0,0,.11-1.76c-.61-4.43.61-18.1,9.79-20.66a1,1,0,0,0,.4-.22s4.22-3.73,12-2.79a12,12,0,0,1,4.56,1.65,1,1,0,1,0,1-1.74A13.92,13.92,0,0,0,51.86.17C44-.78,39.41,2.5,38.43,3.3,28,6.4,26.71,21.08,27.41,26.12a2.69,2.69,0,0,1-.07,1,19.55,19.55,0,0,0-.61,6.9c-.25,3.42-1.26,4.19-4,6.24l-1,.75c-3.12,2.4-4.43,7.28-3,11.34A8.25,8.25,0,0,0,25.22,58c-1,.8-1.69,1.35-1.76,1.41l-.5.39a5,5,0,0,0-1.74,2c-.29.63-4.25,13.56-5.6,19.3a8.92,8.92,0,0,1-.48-1h0c-.59-1.86-2-6.11-2-6.11l-1,.32a6.14,6.14,0,0,0-1.8-2.75.89.89,0,0,0-.27-.15,11,11,0,0,1-.1-1.67A6.58,6.58,0,0,0,11.55,69a5.2,5.2,0,0,1,1.57-.74,3.77,3.77,0,0,0,2.54-1.77,2.6,2.6,0,0,0,.21-2l0-.12a2.55,2.55,0,0,0,.93-1.69,2.81,2.81,0,0,0-.53-1.89,1.63,1.63,0,0,0,.17-.35A3.86,3.86,0,0,0,16,57.47a1.43,1.43,0,0,0-.25-.35,1.15,1.15,0,0,1,.26,0A2.12,2.12,0,0,0,17.7,56a3.1,3.1,0,0,0,.23-2.77c-.82-1.84-2.41-1.78-4.44-1.6l-.26-4,2.44-.17a.26.26,0,0,0,.12,0,.37.37,0,0,0,.17-.05v0l0-.05a.51.51,0,0,0,.11-.22l0,0s0,0,0,0,0,0,0-.07l-1.5-24a.55.55,0,0,0-.35-.46l-1.85-.66h0a.76.76,0,0,0-.21,0l-4.63.31a.54.54,0,0,0-.36.18.51.51,0,0,0-.12.38l1.5,24s0,.06,0,.09a.48.48,0,0,0,.09.19.4.4,0,0,0,.12.1s0,.06.09.07l1.85.66a.47.47,0,0,0,.17,0h0l.36,0L11.68,52c-2.31.68-6,2.3-6.91,4.11A60.22,60.22,0,0,0,1.8,68Q1.67,69,1.59,70.12a.93.93,0,0,0-.39.37,9.48,9.48,0,0,0-.88,2.3,1.06,1.06,0,0,0-.2.5,46.27,46.27,0,0,0,0,6.59A5.13,5.13,0,0,0,1,82.57c.77,2,6.29,16.06,9.73,18.18.63.39,1.16.73,1.66,1-3.65.08-8.12.71-10.34,3.14a8.15,8.15,0,0,0-1.86,6.78c.44,3.23,2.84,9.67,13.87,16.54A136.87,136.87,0,0,0,38.51,140a1.29,1.29,0,0,0-.09.73s0,0,0,0a2.32,2.32,0,0,1-.41.34,1.32,1.32,0,0,0-.44-.18,2.58,2.58,0,0,0-2.13,1.06s0,0,0,0a1.92,1.92,0,0,0-.77.74l-.32.23a4.63,4.63,0,0,0-.4.3,3.23,3.23,0,0,0-2.78.58,22.44,22.44,0,0,0-2.17,2.6,31.85,31.85,0,0,1-2.07,2.54c-1.38,1.38-3,3.24-2.87,5.44a42.42,42.42,0,0,0,1,6.24c0,.1,0,.26.08.46.37,2.19,1.5,8.84,7.36,10a9.48,9.48,0,0,0,1.91.2,6.5,6.5,0,0,0,6.39-4.46,1,1,0,1,0-1.93-.57c-.05.15-1.19,3.82-6,2.86-4-.81-5.23-5.17-5.77-8.37-.05-.25-.08-.44-.11-.57a42.66,42.66,0,0,1-.93-5.87,3.57,3.57,0,0,1,.64-2v.57a1,1,0,1,0,2,0v-2.55a.88.88,0,0,0-.07-.33c.57-.63,1.26-1.52,1.94-2.41a24.71,24.71,0,0,1,1.89-2.31.74.74,0,0,1,.22-.1,1.22,1.22,0,0,0-.07.38,7.25,7.25,0,0,0,.13,1.19,7.3,7.3,0,0,0-.56,3c0,2.13,1.75,2.84,3.46,3.26a1,1,0,0,0,.24,0,1,1,0,0,0,.24-2c-1.93-.48-1.93-.92-1.93-1.31a7.59,7.59,0,0,1,.27-2,2.84,2.84,0,0,1,1.78,0,5.42,5.42,0,0,1,1.17,1,4,4,0,0,0,.64.55.8.8,0,0,1,.15.94c-.18.3-.35.53-.49.73a2.84,2.84,0,0,0-.64,1.37c0,.12-.07.39-.13.75a13.48,13.48,0,0,0-.42,3.66,2.34,2.34,0,0,0,.4.85c-1.78-.47-4-.64-5.54.39a1,1,0,0,0-.29,1.39,1,1,0,0,0,1.39.29c1.72-1.13,5.33.29,6,.66a1.05,1.05,0,0,0,.64.22,1,1,0,0,0,.29,0,.83.83,0,0,0,.15,0,1.07,1.07,0,0,0,.43-.09,1,1,0,0,0,.49-1.34,9.9,9.9,0,0,0-1.4-2.06l-.54-.67a22.74,22.74,0,0,1,.42-2.94c.08-.44.14-.78.14-.87a4.85,4.85,0,0,1,.3-.45c.15-.22.34-.49.55-.83a2.69,2.69,0,0,0,.22-2.39,5.13,5.13,0,0,0,.77-.85l.22-.19a1.93,1.93,0,0,0,.89-1.45h0a1.77,1.77,0,0,0-.05-.32,1.29,1.29,0,0,1,.57-.36,1.12,1.12,0,0,0,.21.17,1.52,1.52,0,0,0,.67.14c1,0,2.27-.74,4.28-1.91L48,144l.27.15c2,1.17,3.3,1.91,4.28,1.91a1.52,1.52,0,0,0,.67-.14,1.12,1.12,0,0,0,.21-.17,1.34,1.34,0,0,1,.57.36,1.75,1.75,0,0,0,0,.33,1.93,1.93,0,0,0,.89,1.45l.2.16a4.82,4.82,0,0,0,.79.88,2.69,2.69,0,0,0,.22,2.39c.21.34.4.61.55.83l.29.41c0,.13.07.47.15.91.13.69.46,2.53.44,2.86a6.73,6.73,0,0,1-.56.75,9.9,9.9,0,0,0-1.4,2.06A1,1,0,0,0,56,160.5a1.06,1.06,0,0,0,.42.09.75.75,0,0,0,.16,0,.92.92,0,0,0,.29,0,1.08,1.08,0,0,0,.64-.22c.63-.37,4.24-1.78,6-.66A1,1,0,1,0,64.56,158c-1.57-1-3.77-.86-5.54-.39a2.52,2.52,0,0,0,.4-.85,13.48,13.48,0,0,0-.42-3.66c-.06-.36-.12-.63-.13-.75a2.84,2.84,0,0,0-.64-1.37c-.14-.2-.31-.43-.49-.73a.8.8,0,0,1,.15-.94,4,4,0,0,0,.64-.55,5.42,5.42,0,0,1,1.17-1,2.84,2.84,0,0,1,1.78,0,7.73,7.73,0,0,1,.27,2c0,.39,0,.83-1.93,1.31a1,1,0,0,0,.24,2,1,1,0,0,0,.24,0c1.71-.42,3.46-1.13,3.46-3.26a7.3,7.3,0,0,0-.56-3,7.25,7.25,0,0,0,.13-1.19,1.22,1.22,0,0,0-.07-.38.59.59,0,0,1,.21.1,24.62,24.62,0,0,1,1.91,2.32c.67.88,1.36,1.77,1.93,2.4a.88.88,0,0,0-.07.33v2.55a1,1,0,1,0,2,0v-.57a3.51,3.51,0,0,1,.65,2,42.66,42.66,0,0,1-.93,5.87c0,.13-.07.32-.11.57-.54,3.21-1.73,7.56-5.77,8.37-4.66.93-5.85-2.48-6-2.86a1,1,0,1,0-1.93.57,6.49,6.49,0,0,0,6.39,4.46,9.48,9.48,0,0,0,1.91-.2c5.86-1.17,7-7.82,7.36-10,0-.21.06-.37.08-.47a42.42,42.42,0,0,0,1-6.24c.08-2.2-1.49-4.06-2.87-5.44A31.85,31.85,0,0,1,67,146.38a22.44,22.44,0,0,0-2.17-2.6A3.23,3.23,0,0,0,62,143.2a4.7,4.7,0,0,0-.41-.3c-.1-.08-.27-.18-.26-.15a2.07,2.07,0,0,0-.85-.84,2.62,2.62,0,0,0-2.12-1,1.24,1.24,0,0,0-.44.18,2,2,0,0,1-.41-.34,1.48,1.48,0,0,0,0-.19,1.8,1.8,0,0,0-.39-1,111.26,111.26,0,0,0,24.7-11.27,41.81,41.81,0,0,0,9.1-7.39A1,1,0,0,0,90.89,119.41ZM45.65,33.74a1.63,1.63,0,0,0,1.13.67h.08A.57.57,0,0,0,47,33.27H46.9L47,31.54c.2-.47.44-1,.63-1.39a.57.57,0,0,0-.28-.76.5.5,0,0,0-.21-.05,7.16,7.16,0,0,0,.35-1.47,1.42,1.42,0,0,1,.47-.06,1.14,1.14,0,0,1,.47.07,6.7,6.7,0,0,0,6.61,5.89h0a6.71,6.71,0,0,0,4.61-1.85,15.28,15.28,0,0,1-3.6,8.15A10.81,10.81,0,0,1,48,43.16a11.33,11.33,0,0,1-8.73-3.52,17.34,17.34,0,0,1-3.84-8.7,6.68,6.68,0,0,0,10.29.76,4.51,4.51,0,0,0-.26.75A1.64,1.64,0,0,0,45.65,33.74ZM53.42,49a1.92,1.92,0,0,0-.18-.28,3.48,3.48,0,0,1-.79-1.76,7.47,7.47,0,0,1,1.08.39A12.47,12.47,0,0,0,53.42,49Zm.6-3.63a8.37,8.37,0,0,0-1.68-.5,2.46,2.46,0,0,1,0-.28,12.6,12.6,0,0,0,2.47-1A12.8,12.8,0,0,0,54,45.35Zm-11.6,2A7.5,7.5,0,0,1,43.5,47a3.56,3.56,0,0,1-.78,1.75c-.07.08-.12.19-.19.28A9.8,9.8,0,0,0,42.42,47.33Zm1.17-2.74c0,.08,0,.17,0,.26a8,8,0,0,0-1.66.5,12.81,12.81,0,0,0-.77-1.73A12.87,12.87,0,0,0,43.59,44.59Zm8.21,6.55c-.34,1.17-1.07,2.37-3.82,2.37s-3.48-1.2-3.82-2.37a1.24,1.24,0,0,1,0-1.07,6.56,6.56,0,0,0,1.43-4.29v0c0-.26,0-.51,0-.74a16.26,16.26,0,0,0,4.69,0,7.09,7.09,0,0,0,1.44,5.07A1.24,1.24,0,0,1,51.8,51.14Zm2.31-29.07a1.58,1.58,0,0,0,.33-.64,11.11,11.11,0,0,0,.68,1.38,3.21,3.21,0,0,0-2.48.75.81.81,0,0,0,0,1.14.81.81,0,0,0,1.14,0,2.32,2.32,0,0,1,2.26,0,1.66,1.66,0,0,1,1,1.84.81.81,0,0,0,.71.89h.09a.8.8,0,0,0,.79-.72,3.49,3.49,0,0,0,0-.46l.06.05a12.6,12.6,0,0,1,1.21,1,.91.91,0,0,0,.19.13c0,.44,0,.91,0,1.4a5.27,5.27,0,0,1-4.94,3.48h0a5.27,5.27,0,0,1-2.18-10.06l.12,0A1.18,1.18,0,0,0,54.11,22.07ZM45.79,22c.47,0,1.05,0,1.55-1.47a1.84,1.84,0,0,0,1.33,1.22,9.12,9.12,0,0,0,1.85.16h.26a6.7,6.7,0,0,0-2.39,4.82,1.71,1.71,0,0,0-.82,0A6.69,6.69,0,0,0,45.29,22Zm-8.44,3.87a3.12,3.12,0,0,0,0,.81.8.8,0,0,0,.79.72h.09a.81.81,0,0,0,.71-.89,1.66,1.66,0,0,1,1-1.84,2.32,2.32,0,0,1,2.26,0,.8.8,0,0,0,1.13-1.14,3.75,3.75,0,0,0-3.84-.44,11,11,0,0,0,.87-1.69,3.07,3.07,0,0,0,.5.87,1.49,1.49,0,0,0,1.25.56,1.67,1.67,0,0,0,.88-.35,2,2,0,0,1,.28-.17,5.28,5.28,0,1,1-7.63,5.07C36.14,27,36.75,26.46,37.35,25.88Zm-10,30.33c-4.49,0-6.13-2.82-6.7-4.51-1.1-3.23-.06-7.23,2.36-9.09l1-.74c1.86-1.4,3.06-2.39,3.81-3.79a21.31,21.31,0,0,0,6,7.82A17,17,0,0,1,36,48.18c-2,1-4.69,2.7-4.41,4.67a4.54,4.54,0,0,0,.1.46c-1.44.93-2.9,2-4.19,2.93ZM13.22,80.71h0c.08.23.14.43.18.57a25.2,25.2,0,0,1,.36,6.34c-1.43-.1-5.72-1.24-7.9-3.31C5.11,83.6,4.48,83.08,4,82.65c-1.36-1.14-1.68-1.41-1.84-3-.06-.57-.09-1.18-.1-1.8,1.32,1.3,3.55,3.21,5.52,3.63.66.14,1.15.27,1.53.36a5,5,0,0,0,1.16.22,1.19,1.19,0,0,0,.75-.25,1.51,1.51,0,0,0,.52-1.27c0-.25.14-.93.27-1.58s.22-1.22.31-1.77C12.5,78.47,13,79.86,13.22,80.71Zm.42-57.32,1.41,22.84L14.28,46,13,29.35l-.15-6.23Zm-5.42-.24,3.58-.24,1.25,20.64.17,2.29-.57,0-3,.2Zm4.12,24.58.08,1.13.19,2.92-.38.09h0l-.27-4.11ZM3.8,68.23A61.26,61.26,0,0,1,6.56,57c.67-1.3,5.31-3.22,6.82-3.35,2.44-.23,2.51-.07,2.71.37a1.11,1.11,0,0,1-.18,1c-1.65.09-4,1.35-6,2.51-.36.21-.62.36-.75.42a1,1,0,0,0-.54,1.29,1,1,0,0,0,1.27.59,21.05,21.05,0,0,1,4.54-1.14,2.35,2.35,0,0,1,.14.81l-1.08.36a11.92,11.92,0,0,0-2.19.71,1,1,0,0,0,.7,1.89l1.93-.62a2.58,2.58,0,0,1,.66-.07.79.79,0,0,1,.21.56.74.74,0,0,1-.4.49c-.14.09-.29.17-.44.25a3.28,3.28,0,0,0-.5.17,13.57,13.57,0,0,1-1.67.53,1,1,0,0,0,.38,2A9.35,9.35,0,0,0,14,65.3a.46.46,0,0,1-.08.21,2,2,0,0,1-1.27.77,6.85,6.85,0,0,0-2.13,1A4.12,4.12,0,0,1,7.83,68a1,1,0,1,0,0,2H8a16.46,16.46,0,0,0,1.89,7.23c0,.07.1.1.15.16-.07.42-.15.83-.22,1.18-.1.51-.18,1-.23,1.31-.4-.1-.92-.23-1.61-.38a9.76,9.76,0,0,1-3.66-2.3,1.13,1.13,0,0,0-.22-.4C3.75,76.22,3.18,72.78,3.8,68.23Zm77.38,28a7.74,7.74,0,0,1-2,4.46,50.5,50.5,0,0,1-5.32,4.64c-.07,0-.13.06-.28,0a.6.6,0,0,1,.18-.28c1.18-1.25,4.75-4.68,4.79-4.72a1,1,0,0,0,0-1.41,1,1,0,0,0-.73-.32,1,1,0,0,0-.69.28,35.28,35.28,0,0,1-6.72,5.3l-.48.29a.78.78,0,0,1,.28-.46c.71-.64,5.11-4.35,5.11-4.35a1,1,0,0,0-1.27-1.57l-3.48,2.69A10.33,10.33,0,0,1,67,102.65a1.53,1.53,0,0,1,.62-.74c1.15-.77,6.32-4.79,6.54-5a1,1,0,0,0-1.23-1.59s-2.62,2-3.67,2.66l-.42.27c-1.28.86-1.48.77-1.62.67.09-.32,1-1,1.57-1.43.25-.19.51-.38.74-.57,1.35-1.08,4.15-3.25,4.15-3.25a1,1,0,0,0,.39-.8V90.39a26.92,26.92,0,0,1,3.18.59c1.82.55,4.3,3.5,4.12,4.26C81.31,95.54,81.25,95.86,81.18,96.2Zm.25-5.73a7.69,7.69,0,0,1,.24,1.34,9.94,9.94,0,0,0-3.83-2.75,29.15,29.15,0,0,0-3.76-.7V87.11C78.19,86.89,80.67,88,81.43,90.47ZM41.11,88.7a2.61,2.61,0,0,0,1.09.23c.08,0,.37,0,.75.41,1.2,1.19,2.66,1.68,5,1.68s3.12-.13,4.32-1.33a1.11,1.11,0,0,1,.75-.4,2.74,2.74,0,0,0,1.09-.23l17.93-8V92.42l-3.79,3-.69.54c-1.34,1-3.17,2.38-2,4a2.66,2.66,0,0,0,.54.6,2.86,2.86,0,0,0-1,3.1,1.62,1.62,0,0,0,1.1,1,3.26,3.26,0,0,0,1.7-.12,2.23,2.23,0,0,0,.43,1.36,1.83,1.83,0,0,0,2.51.38l.58-.36.17-.1a2.05,2.05,0,0,0,.44.84l0,0v3.68l-16.73,7.31a2.2,2.2,0,0,1-.68.14,3.1,3.1,0,0,0-1.93,1,7.49,7.49,0,0,1-9.5,0,3.1,3.1,0,0,0-1.93-1,2,2,0,0,1-.69-.15l-16.13-6.94L23.92,81.2ZM22.27,100.36l.05,2.6c-.59-.16-1.34-.34-2.21-.53A7.06,7.06,0,0,0,22.27,100.36Zm18.54,44.13c-.17-.16-.36-.33-.63-.6s-.72-.72-1.09-1.13a4,4,0,0,0,.78-.64A7.36,7.36,0,0,1,41.51,144,3.12,3.12,0,0,0,40.81,144.49Zm-3.53,1.57a3.48,3.48,0,0,0-1.74-.41,5.92,5.92,0,0,0-.88.07,6.87,6.87,0,0,1,.42-.86,3,3,0,0,1,.39-.3,2.3,2.3,0,0,0,.87-.82l.14-.09a2.3,2.3,0,0,0,.48-.37,15.9,15.9,0,0,0,1.88,2.12l.66.61c.07.08.15.15.23.23a1.2,1.2,0,0,0,0,.2,2.74,2.74,0,0,0-.52.55,2.38,2.38,0,0,1-.36.4A7.87,7.87,0,0,0,37.28,146.06ZM43.76,144a9.7,9.7,0,0,0-2-2.9l.69.22a21.28,21.28,0,0,1,3.49,1.56A18.37,18.37,0,0,1,43.76,144Zm1.34-14.32c.86-.06,1.8-.12,2.88-.12s2,.06,2.88.12,1.47.09,2.2.09h.06c-1.57,1.07-3.27,2.17-5.18,3.32-2-1.17-3.74-2.27-5.27-3.32C43.47,129.77,44.27,129.72,45.1,129.67Zm11,12.45a4.28,4.28,0,0,0,.78.63c-.38.44-.86.92-1.17,1.23s-.37.35-.54.51a2.91,2.91,0,0,0-.7-.46A7.72,7.72,0,0,1,56.08,142.12Zm3.4,1.53s.09,0,.07,0a2.55,2.55,0,0,0,.94.91,4,4,0,0,1,.38.29,6.41,6.41,0,0,1,.43.87,4.06,4.06,0,0,0-2.62.34,7.87,7.87,0,0,0-1.6,1.33,2.38,2.38,0,0,1-.36-.4,2.5,2.5,0,0,0-.52-.55l0-.2a2.39,2.39,0,0,1,.23-.22c.2-.18.42-.39.74-.71a13.74,13.74,0,0,0,1.8-2A2.3,2.3,0,0,0,59.48,143.65Z"/><path d="M93.14,116.65a1,1,0,0,1-.45-.11,1,1,0,0,1-.44-1.36,11,11,0,0,0,1.32-4.81,1,1,0,0,1,1-1h0a1,1,0,0,1,1,1A13.11,13.11,0,0,1,94,116.1,1,1,0,0,1,93.14,116.65Z"/><path d="M93.32,107.12a1,1,0,0,1-.81-.41c-.12-.16-.24-.3-.37-.45a1,1,0,0,1,1.49-1.36c.18.2.34.41.5.62a1,1,0,0,1-.22,1.41A1,1,0,0,1,93.32,107.12Z"/><path d="M68.87,51.44a1,1,0,0,0,.31,2,.84.84,0,0,0,.31,0A5.46,5.46,0,0,0,73.41,49,5.58,5.58,0,0,0,71,43.59a1,1,0,1,0-1.14,1.65,3.58,3.58,0,0,1,1.54,3.43A3.46,3.46,0,0,1,68.87,51.44Z"/><path d="M66.25,48.09a1,1,0,0,0,.31,2,1.12,1.12,0,0,0,.31-.05A3,3,0,0,0,69,47.6a3,3,0,0,0-1.3-2.94,1,1,0,1,0-1.14,1.65,1,1,0,0,1,.45,1A1,1,0,0,1,66.25,48.09Z"/><path d="M26.88,51.62a3.46,3.46,0,0,1-2.55-2.77,3.57,3.57,0,0,1,1.54-3.42,1,1,0,1,0-1.14-1.66,5.62,5.62,0,0,0-2.39,5.37,5.5,5.5,0,0,0,3.92,4.4,1.1,1.1,0,0,0,.31,0,1,1,0,0,0,.31-2Z"/><path d="M55.84,164.75a1,1,0,0,0,.69-1.25,2,2,0,0,1,0-.94A1,1,0,1,0,54.6,162a4,4,0,0,0,0,2.06,1,1,0,0,0,1,.73A.86.86,0,0,0,55.84,164.75Z"/><path d="M40.12,161.31a1,1,0,0,0-.69,1.25,2.05,2.05,0,0,1,0,.94,1,1,0,0,0,.69,1.25.86.86,0,0,0,.28,0,1,1,0,0,0,1-.73,4,4,0,0,0,0-2.06A1,1,0,0,0,40.12,161.31Z"/><path d="M65.91,159.63a2.82,2.82,0,0,1-.27.57,8.33,8.33,0,0,0-1,2.64A3.37,3.37,0,0,1,63.28,165a4.82,4.82,0,0,1-3.77.4,1,1,0,1,0-.42,2,9.69,9.69,0,0,0,2,.23,6,6,0,0,0,3.29-.91,5.36,5.36,0,0,0,2.27-3.49,6.1,6.1,0,0,1,.75-2.05,4.35,4.35,0,0,0,.44-1,1,1,0,0,0-.71-1.23A1,1,0,0,0,65.91,159.63Z"/><path d="M67.54,157.87l.18,0a1,1,0,0,0,1-.83l.21-1.17a1,1,0,1,0-2-.36l-.21,1.17A1,1,0,0,0,67.54,157.87Z"/><path d="M28.55,161.17a6.1,6.1,0,0,1,.75,2.05,5.36,5.36,0,0,0,2.27,3.49,6,6,0,0,0,3.29.91,9.76,9.76,0,0,0,2-.23,1,1,0,1,0-.42-2,4.82,4.82,0,0,1-3.77-.4,3.37,3.37,0,0,1-1.41-2.18,8.33,8.33,0,0,0-.95-2.64,2.82,2.82,0,0,1-.27-.57,1,1,0,1,0-1.94.52A4.35,4.35,0,0,0,28.55,161.17Z"/><path d="M29.23,156.7,29,155.53a1,1,0,0,0-2,.36l.21,1.17a1,1,0,0,0,1,.83l.18,0A1,1,0,0,0,29.23,156.7Z"/><path d="M10.88,82.43a1,1,0,0,0-.52,1.33c.1.22.58,1.3.82,1.72a1,1,0,0,0,.87.5,1,1,0,0,0,.51-.14,1,1,0,0,0,.36-1.38c-.14-.24-.51-1.06-.71-1.51A1,1,0,0,0,10.88,82.43Z"/><polygon class="cls-3" points="13.64 23.39 15.05 46.23 14.28 45.95 13.08 25.95 12.87 23.12 13.64 23.39"/><polygon class="cls-4" points="8.22 23.15 11.8 22.91 13.05 43.55 13.22 45.84 12.65 45.88 9.65 46.08 8.22 23.15"/><path class="cls-5" d="M12.34,47.73l.08,1.13.19,2.92-.38.09h0l-.27-4.11Z"/><path class="cls-1" d="M72.8,43.16c-2.3-1.58-3.87-2.94-4.76-5.26a20.17,20.17,0,0,1-5.88,8,17,17,0,0,0-2.22,2.28c2,1,4.68,2.7,4.41,4.67a3.22,3.22,0,0,1-.08.37c.82.47,1.77,1,2.53,1.5a1,1,0,0,1,.32,1.38.82.82,0,0,1-.25.24l.86.62a1,1,0,0,1,.83-.39,16.48,16.48,0,0,0,1.68-.42A1,1,0,0,1,70.89,55a6.6,6.6,0,0,0,4.83-5.29A6.82,6.82,0,0,0,72.8,43.16ZM66.87,50a1.12,1.12,0,0,1-.31.05,1,1,0,0,1-.31-2A1,1,0,0,0,67,47.3a1,1,0,0,0-.45-1,1,1,0,1,1,1.14-1.65A3,3,0,0,1,69,47.6,3,3,0,0,1,66.87,50Zm6.54-1a5.46,5.46,0,0,1-3.92,4.39.84.84,0,0,1-.31,0,1,1,0,0,1-.31-2,3.46,3.46,0,0,0,2.55-2.77,3.58,3.58,0,0,0-1.54-3.43A1,1,0,1,1,71,43.59,5.58,5.58,0,0,1,73.41,49Z"/><path class="cls-1" d="M45.79,22c.47,0,1.05,0,1.55-1.47a1.84,1.84,0,0,0,1.33,1.22,9.12,9.12,0,0,0,1.85.16h.26a6.7,6.7,0,0,0-2.39,4.82,1.71,1.71,0,0,0-.82,0A6.69,6.69,0,0,0,45.29,22Z"/><path class="cls-1" d="M56.18,3.82a12,12,0,0,0-4.56-1.65c-7.81-.94-12,2.75-12,2.79a1,1,0,0,1-.4.22C30,7.74,28.79,21.41,29.4,25.84a4.61,4.61,0,0,1-.11,1.76,23.59,23.59,0,0,0-.55,6.32c.39,3.26,2.07,6.72,6.38,10.46,3.13,2.72,4.59,5.25,4.35,7.54a5,5,0,0,1-.14.71,4.24,4.24,0,0,0,1.16-2.73c.41-3.76-1.55-6.36-3.62-9.12a31.36,31.36,0,0,1-2.76-4.11c-1-1.82-1.22-5.09-1.16-8.5-.88-2,.38-10.18,1.27-12.52a1,1,0,0,1,1.2-.62,1,1,0,0,1,.73,1.14c-.32,1.94-.79,5.45-1,9a11.38,11.38,0,0,0,2.33-2.62l.21-.34c.44-.71,1.36-2.17,2-6.1a19.29,19.29,0,0,1,.46-3.68,1,1,0,0,1,2,.32c-.12,1.35-.26,2.52-.43,3.55a13.17,13.17,0,0,0,.51,4.31A6.45,6.45,0,0,1,45.42,20c.32-.82.78-3.57.93-8.74a1,1,0,0,1,1-1,1,1,0,0,1,1,.9c.08.83.13,1.87.19,3,.08,1.74.23,4.93.68,5.68a8.24,8.24,0,0,0,1.31.09,8.78,8.78,0,0,1,2.14.21,38,38,0,0,0,.08-4.51,7.33,7.33,0,0,1-.22-2.94,1,1,0,0,1,1-.56,1.05,1.05,0,0,1,.93.86,11.54,11.54,0,0,1,.23,1.91c.45,2.31,1.4,6.16,2.37,7.23a23.76,23.76,0,0,0,2.66,2.42c-.18-1.91-.58-4.79-.87-6.23-.08-.33-.15-.63-.22-.89a1,1,0,0,1,1.91-.61s0,0,0,.1h0c.39,1.52,3.8,15,1.26,19.77a31.36,31.36,0,0,1-2.76,4.11c-2.07,2.76-4,5.36-3.62,9.12a4.19,4.19,0,0,0,1.16,2.73,5,5,0,0,1-.14-.71c-.24-2.29,1.22-4.82,4.35-7.54,5-4.33,6.32-8.74,6.32-12.53v-.43a21.21,21.21,0,0,0-.69-4.57.94.94,0,0,1,0-.47c1.39-6-.51-12.73-5.08-18.1a1,1,0,0,1,0-1.33,33.34,33.34,0,0,0-4-3.32A1,1,0,0,1,56.18,3.82Z"/><path class="cls-1" d="M69.25,152.32v.57a1,1,0,1,1-2,0v-2.55a.88.88,0,0,1,.07-.33c-.57-.63-1.26-1.52-1.93-2.4a26.62,26.62,0,0,0-1.9-2.32.74.74,0,0,0-.22-.1,1.22,1.22,0,0,1,.07.38,7.25,7.25,0,0,1-.13,1.19,7.3,7.3,0,0,1,.56,3c0,2.13-1.75,2.84-3.46,3.26a1,1,0,0,1-.24,0,1,1,0,0,1-.24-2c1.93-.48,1.93-.92,1.93-1.31a7.73,7.73,0,0,0-.27-2,2.84,2.84,0,0,0-1.78,0,5.42,5.42,0,0,0-1.17,1,4,4,0,0,1-.64.55.8.8,0,0,0-.15.94c.18.3.35.53.49.73a2.84,2.84,0,0,1,.64,1.37c0,.12.07.39.13.75a13.48,13.48,0,0,1,.42,3.66,2.52,2.52,0,0,1-.4.85c1.77-.47,4-.64,5.54.39a1,1,0,1,1-1.11,1.68c-1.71-1.12-5.32.29-6,.66a1.08,1.08,0,0,1-.64.22.92.92,0,0,1-.29,0,.75.75,0,0,1-.16,0,1.06,1.06,0,0,1-.42-.09l0,0a7.08,7.08,0,0,0-.24.82h.11a1,1,0,0,1,.69,1.25,2,2,0,0,0,0,.94,1,1,0,0,1-.69,1.25.86.86,0,0,1-.28,0h0c0,.3.06.59.12.89a1.67,1.67,0,0,1,.23-.12,1,1,0,0,1,1.25.69c.12.38,1.31,3.79,6,2.86,4-.81,5.23-5.16,5.77-8.37,0-.25.08-.44.11-.57a42.66,42.66,0,0,0,.93-5.87A3.51,3.51,0,0,0,69.25,152.32Zm-1.4,7.83a4.35,4.35,0,0,1-.44,1,6.1,6.1,0,0,0-.75,2.05,5.36,5.36,0,0,1-2.27,3.49,6,6,0,0,1-3.29.91,9.69,9.69,0,0,1-2-.23,1,1,0,1,1,.42-2,4.82,4.82,0,0,0,3.77-.4,3.37,3.37,0,0,0,1.41-2.18,8.33,8.33,0,0,1,1-2.64,2.82,2.82,0,0,0,.27-.57,1,1,0,0,1,1.23-.71A1,1,0,0,1,67.85,160.15Zm.86-3.09a1,1,0,0,1-1,.83l-.18,0a1,1,0,0,1-.81-1.17l.21-1.17a1,1,0,1,1,2,.36Z"/><path class="cls-1" d="M26.06,154.29a42.66,42.66,0,0,0,.93,5.87c0,.13.07.32.11.57.54,3.21,1.73,7.56,5.77,8.37,4.66.93,5.85-2.48,6-2.86a1,1,0,0,1,1.25-.69,1.67,1.67,0,0,1,.23.12c.06-.31.08-.59.12-.89h0a.86.86,0,0,1-.28,0,1,1,0,0,1-.69-1.25,2,2,0,0,0,0-.94,1,1,0,0,1,.69-1.25h.11a7.08,7.08,0,0,0-.24-.82l0,0a1.06,1.06,0,0,1-.42.09.75.75,0,0,1-.16,0,.92.92,0,0,1-.29,0,1.05,1.05,0,0,1-.64-.22c-.63-.37-4.24-1.78-6-.66a1,1,0,0,1-1.39-.29A1,1,0,0,1,31.4,158c1.57-1,3.77-.86,5.54-.39a2.34,2.34,0,0,1-.4-.85,13.48,13.48,0,0,1,.42-3.66c.06-.36.12-.63.13-.75a2.84,2.84,0,0,1,.64-1.37c.14-.2.31-.43.49-.73a.8.8,0,0,0-.15-.94,4,4,0,0,1-.64-.55,5.42,5.42,0,0,0-1.17-1,2.84,2.84,0,0,0-1.78,0,7.73,7.73,0,0,0-.27,2c0,.39,0,.83,1.93,1.31a1,1,0,0,1-.24,2,1,1,0,0,1-.24,0c-1.71-.42-3.46-1.13-3.46-3.26a7.3,7.3,0,0,1,.56-3,7.25,7.25,0,0,1-.13-1.19,1.22,1.22,0,0,1,.07-.38.74.74,0,0,0-.22.1,26.62,26.62,0,0,0-1.9,2.32c-.67.88-1.36,1.77-1.93,2.4a.88.88,0,0,1,.07.33v2.55a1,1,0,1,1-2,0v-.57A3.57,3.57,0,0,0,26.06,154.29Zm2.76,4.63a1,1,0,0,1,1.23.71,2.82,2.82,0,0,0,.27.57,8.33,8.33,0,0,1,.95,2.64A3.37,3.37,0,0,0,32.68,165a4.82,4.82,0,0,0,3.77.4,1,1,0,1,1,.42,2,9.76,9.76,0,0,1-2,.23,6,6,0,0,1-3.29-.91,5.36,5.36,0,0,1-2.27-3.49,6.1,6.1,0,0,0-.75-2.05,4.35,4.35,0,0,1-.44-1A1,1,0,0,1,28.82,158.92Zm-1.78-3a1,1,0,0,1,2-.36l.21,1.17a1,1,0,0,1-.81,1.17l-.18,0a1,1,0,0,1-1-.83Z"/></g></g></svg>