<svg xmlns="http://www.w3.org/2000/svg" viewBox="0 0 120.05 32.82"><defs><style>.cls-1{fill:#ffcc1e;}</style></defs><title>melona-amarillo</title><g id="Capa_2" data-name="Capa 2"><g id="Capa_1-2" data-name="Capa 1"><polygon class="cls-1" points="89.11 9.07 89.12 10.22 85.64 0 86.03 0 89.11 9.07"/><polygon class="cls-1" points="21.4 0.61 19.3 0.61 16.68 0.61 12.26 24.91 7.84 0.63 5.22 0.63 3.13 0.63 0.51 0.63 0.51 31.28 5.22 31.28 5.22 9.02 9.82 31.28 13.42 31.28 13.41 31.25 14.71 31.25 19.3 9 19.3 31.25 24.01 31.25 24.01 0.61 21.4 0.61"/><polygon class="cls-1" points="41.2 6.14 41.2 0.63 31.14 0.63 26.07 0.63 26.07 6.14 26.07 12.63 26.07 17.85 26.07 25.77 26.07 31.28 31.14 31.28 41.2 31.28 41.2 25.77 31.14 25.77 31.14 17.85 41.2 17.85 41.2 12.63 31.14 12.63 31.14 6.14 41.2 6.14"/><polygon class="cls-1" points="90.29 0.63 90.29 17.91 84.66 0.63 82.56 0.63 79.77 0.63 77.66 0.63 77.66 30.78 82.56 30.78 82.56 10.78 89.6 30.78 90.29 30.78 94.49 30.78 95.19 30.78 95.19 0.63 90.29 0.63"/><path class="cls-1" d="M58.67,7.86V24.1a7.18,7.18,0,0,0,7.17,7.18h2.7a7.18,7.18,0,0,0,7.17-7.18V7.86A7.23,7.23,0,0,0,68.49.63h-2.6A7.23,7.23,0,0,0,58.67,7.86ZM67.19,26.5h0a3,3,0,0,1-3-3V8.37a3,3,0,0,1,3-3h0a3,3,0,0,1,3,3V23.5A3,3,0,0,1,67.19,26.5Z"/><path class="cls-1" d="M112.84,30.78H118L111.15.63h-7.57L96.71,30.78h5.18l1.14-5h8.67ZM104.12,21l3.24-14.26L110.61,21Z"/><polygon class="cls-1" points="6.28 20.17 6.28 32.37 0 32.37 0 32.82 6.28 32.82 6.94 32.82 6.94 32.37 6.94 23.08 6.28 20.17"/><polygon class="cls-1" points="83.69 17.68 83.69 31.93 77.21 31.93 77.21 32.38 83.69 32.38 84.36 32.38 84.36 31.93 84.36 19.31 83.69 17.68"/><polygon class="cls-1" points="110.71 27.36 110.64 26.91 104.63 26.91 104.13 26.91 103.97 26.91 102.85 31.93 89.31 31.93 89.45 32.38 103.42 32.38 104.53 27.36 110.71 27.36"/><polygon class="cls-1" points="58.86 28.71 58.86 32.37 18.73 32.37 18.73 32.82 58.86 32.82 59.19 32.82 59.52 32.82 59.52 29.52 58.86 28.71"/><polygon class="cls-1" points="15.75 32.37 9.38 32.37 9.38 32.82 15.66 32.82 16.08 32.82 16.28 32.82 18.03 23.82 18.05 20.51 15.75 32.37"/><polygon class="cls-1" points="12.28 18.5 12.52 16.61 9.47 0.04 8.85 0.04 12.28 18.5"/><polygon class="cls-1" points="41.99 18.99 32.95 18.99 32.28 18.99 32.28 19.44 32.28 24.69 32.95 24.69 32.95 19.44 41.99 19.44 41.99 18.99"/><polygon class="cls-1" points="41.99 7.2 32.95 7.2 32.28 7.2 32.28 7.65 32.28 11.44 32.95 11.44 32.95 7.65 41.99 7.65 41.99 7.2"/><rect class="cls-1" x="49.74" y="0.02" width="0.66" height="24.68"/><polygon class="cls-1" points="96.98 24.32 96.98 0.03 96.35 0.03 96.35 26.98 96.98 24.32"/><path class="cls-1" d="M67.13,6.49c-.82,0-1.84.78-1.84,2.38V23.49c0,.9,1.15,1.61,1.15,1.61S66,24.74,66,23.49V9.24C66,6.36,68.38,7,68.38,7A1.69,1.69,0,0,0,67.13,6.49Z"/><path class="cls-1" d="M76.5,26.62s-2.08,5.75-7.61,5.75H65.5A7.79,7.79,0,0,1,61.28,31a8,8,0,0,0,4.82,1.8h3.67c3.9,0,6.73-4.35,6.73-4.35Z"/><path class="cls-1" d="M76.5,5.43v-1A8.82,8.82,0,0,0,74,1.56,8.26,8.26,0,0,1,76.5,5.43Z"/><polygon class="cls-1" points="107.46 14.82 107.56 14.37 107.63 14.05 107.3 12.53 105.68 19.84 106.35 19.84 107.46 14.82"/><polygon class="cls-1" points="112.69 0.03 112.22 0.03 119.48 31.93 112.36 31.93 112.49 32.38 119.58 32.38 119.93 32.38 120.05 32.38 112.69 0.03"/><path class="cls-1" d="M48.63,25.77v0h0V.63H43.1V25.74h0v5.54H57.71V25.77Zm-.5,5H43.6V26.24h4.53Z"/></g></g></svg>