<svg xmlns="http://www.w3.org/2000/svg" viewBox="0 0 210.96 165.27"><defs><style>.cls-1{isolation:isolate;}.cls-2{mix-blend-mode:multiply;}.cls-3{fill:#f1a0bc;}.cls-4{fill:#bbb572;}.cls-5{fill:#fdf7cb;}.cls-6{fill:#fff;}.cls-7{fill:#d6e3a6;}.cls-8{fill:#f2a1be;}.cls-9{fill:#b86181;}.cls-10{fill:#e17a9d;}.cls-11{fill:#e3de96;}.cls-12{fill:#929d42;}.cls-13{fill:#b2c65d;}.cls-14{fill:#1b1819;}.cls-15{fill:none;stroke:#1b1819;stroke-linecap:round;stroke-linejoin:round;stroke-width:1.54px;}</style></defs><title>pareja</title><g class="cls-1"><g id="Capa_2" data-name="Capa 2"><g id="Capa_1-2" data-name="Capa 1"><g class="cls-2"><ellipse class="cls-3" cx="55.63" cy="37.74" rx="1.93" ry="2.4"/><path class="cls-3" d="M59.45,53.76a1.73,1.73,0,1,0,1.72,1.72A1.72,1.72,0,0,0,59.45,53.76Zm-2.76,3.55A1.73,1.73,0,1,0,58.42,59,1.73,1.73,0,0,0,56.69,57.31Zm6.31,0A1.73,1.73,0,1,0,64.73,59,1.73,1.73,0,0,0,63,57.31Zm-2.76,3.55A1.73,1.73,0,1,0,62,62.59,1.72,1.72,0,0,0,60.24,60.86Zm3.55,3.55a1.73,1.73,0,0,0,0,3.46c1,0,.94-.78.94-1.73S64.75,64.41,63.79,64.41ZM34.21,53.76a1.73,1.73,0,1,0,1.72,1.72A1.72,1.72,0,0,0,34.21,53.76Zm-2.76,3.55A1.73,1.73,0,1,0,33.18,59,1.73,1.73,0,0,0,31.45,57.31Zm12.62,0A1.73,1.73,0,1,0,45.8,59,1.73,1.73,0,0,0,44.07,57.31Zm6.31,0A1.73,1.73,0,1,0,52.11,59,1.73,1.73,0,0,0,50.38,57.31Zm-9.07,3.55c-1,0-1.21.77-1.21,1.73s.26,1.72,1.21,1.72a1.73,1.73,0,1,0,0-3.45Zm6.31,0a1.73,1.73,0,1,0,1.73,1.73A1.72,1.72,0,0,0,47.62,60.86Zm6.31,0a1.73,1.73,0,1,0,1.73,1.73A1.72,1.72,0,0,0,53.93,60.86Zm-9.06,3.55a1.73,1.73,0,1,0,1.72,1.73A1.73,1.73,0,0,0,44.87,64.41Zm6.31,0a1.73,1.73,0,1,0,1.72,1.73A1.73,1.73,0,0,0,51.18,64.41Zm6.3,0a1.73,1.73,0,1,0,1.73,1.73A1.73,1.73,0,0,0,57.48,64.41ZM42.11,68a1.73,1.73,0,1,0,1.72,1.72A1.72,1.72,0,0,0,42.11,68Zm6.31,0a1.73,1.73,0,1,0,1.72,1.72A1.72,1.72,0,0,0,48.42,68Zm6.31,0a1.73,1.73,0,1,0,1.72,1.72A1.72,1.72,0,0,0,54.73,68ZM61,68a1.73,1.73,0,1,0,1.72,1.72A1.72,1.72,0,0,0,61,68ZM39.35,71.52a1.73,1.73,0,1,0,1.73,1.72A1.73,1.73,0,0,0,39.35,71.52Zm6.31,0a1.73,1.73,0,1,0,1.73,1.72A1.73,1.73,0,0,0,45.66,71.52Zm6.31,0a1.73,1.73,0,1,0,1.73,1.72A1.73,1.73,0,0,0,52,71.52Zm6.31,0A1.73,1.73,0,1,0,60,73.24,1.73,1.73,0,0,0,58.28,71.52ZM42.9,75.07a1.73,1.73,0,1,0,1.73,1.73A1.72,1.72,0,0,0,42.9,75.07Zm6.31,0a1.73,1.73,0,1,0,1.73,1.73A1.72,1.72,0,0,0,49.21,75.07Zm6.31,0a1.73,1.73,0,1,0,1.73,1.73A1.72,1.72,0,0,0,55.52,75.07Zm6.31,0a1.73,1.73,0,0,0,0,3.45c1,0,.38-1,.38-2S62.79,75.07,61.83,75.07ZM46.46,78.62a1.73,1.73,0,1,0,1.72,1.73A1.73,1.73,0,0,0,46.46,78.62Zm6.31,0a1.73,1.73,0,1,0,1.72,1.73A1.73,1.73,0,0,0,52.77,78.62Zm6.31,0a1.73,1.73,0,1,0,1.72,1.73A1.73,1.73,0,0,0,59.08,78.62ZM50,82.18a1.73,1.73,0,1,0,1.72,1.72A1.72,1.72,0,0,0,50,82.18Zm6.31,0A1.73,1.73,0,1,0,58,83.9,1.72,1.72,0,0,0,56.32,82.18Zm6.31,0a1.73,1.73,0,1,0,1.72,1.72A1.72,1.72,0,0,0,62.63,82.18Zm-9.07,3.55a1.73,1.73,0,1,0,1.73,1.72A1.73,1.73,0,0,0,53.56,85.73Zm6.31,0a1.73,1.73,0,1,0,1.73,1.72A1.73,1.73,0,0,0,59.87,85.73Zm6.31,0a1.73,1.73,0,1,0,1.73,1.72A1.73,1.73,0,0,0,66.18,85.73Zm-9.07,3.55A1.73,1.73,0,1,0,58.84,91,1.72,1.72,0,0,0,57.11,89.28Zm6.31,0A1.73,1.73,0,1,0,65.15,91,1.72,1.72,0,0,0,63.42,89.28Zm6.08,0A1.52,1.52,0,0,0,68,91a1.72,1.72,0,0,0,1.72,1.72c1,0,1-.42.63-1.31S70.45,89.3,69.5,89.3Zm-8.83,3.53a1.73,1.73,0,1,0,1.72,1.73A1.73,1.73,0,0,0,60.67,92.83Zm6.31,0a1.73,1.73,0,1,0,1.72,1.73A1.73,1.73,0,0,0,67,92.83Zm-2.76,3.56a1.73,1.73,0,1,0,1.72,1.72A1.72,1.72,0,0,0,64.22,96.39Zm6.31,0a1.73,1.73,0,1,0,1.72,1.72A1.72,1.72,0,0,0,70.53,96.39ZM40.15,78.62c-1,0-.49.78-.49,1.73a3.73,3.73,0,0,0,.49,1.73,1.73,1.73,0,0,0,0-3.46Zm3.55,3.56a1.73,1.73,0,1,0,1.72,1.72A1.73,1.73,0,0,0,43.7,82.18Zm3.55,3.55A1.73,1.73,0,1,0,49,87.45,1.73,1.73,0,0,0,47.25,85.73Zm-2.76,3.55A1.73,1.73,0,1,0,46.22,91,1.72,1.72,0,0,0,44.49,89.28Zm6.31,0A1.73,1.73,0,1,0,52.53,91,1.72,1.72,0,0,0,50.8,89.28Zm-9.06,3.55a1.73,1.73,0,1,0,1.72,1.73A1.73,1.73,0,0,0,41.74,92.83Zm6.31,0a1.73,1.73,0,1,0,1.72,1.73A1.73,1.73,0,0,0,48.05,92.83Zm6.31,0a1.73,1.73,0,1,0,1.72,1.73A1.73,1.73,0,0,0,54.36,92.83ZM39,96.39a1.73,1.73,0,1,0,1.73,1.72A1.73,1.73,0,0,0,39,96.39Zm6.31,0A1.73,1.73,0,1,0,47,98.11,1.73,1.73,0,0,0,45.29,96.39Zm6.31,0a1.73,1.73,0,1,0,1.72,1.72A1.73,1.73,0,0,0,51.6,96.39Zm6.31,0a1.73,1.73,0,1,0,1.72,1.72A1.73,1.73,0,0,0,57.91,96.39Zm-2.76,3.55a1.73,1.73,0,1,0,1.73,1.72A1.73,1.73,0,0,0,55.15,99.94Zm6.31,0a1.73,1.73,0,1,0,1.73,1.72A1.73,1.73,0,0,0,61.46,99.94Zm6.31,0a1.73,1.73,0,1,0,1.73,1.72A1.73,1.73,0,0,0,67.77,99.94Zm-9.07,3.55a1.73,1.73,0,1,0,1.73,1.73A1.72,1.72,0,0,0,58.7,103.49Zm6.31,0a1.73,1.73,0,1,0,1.73,1.73A1.72,1.72,0,0,0,65,103.49Zm6.31,0a1.73,1.73,0,0,0,0,3.45c1,0,.93-.77.93-1.72S72.28,103.49,71.32,103.49ZM62.26,107A1.73,1.73,0,1,0,64,108.77,1.73,1.73,0,0,0,62.26,107Zm6.31,0a1.73,1.73,0,1,0,1.72,1.73A1.73,1.73,0,0,0,68.57,107Zm-2.76,3.56a1.73,1.73,0,1,0,1.72,1.72A1.73,1.73,0,0,0,65.81,110.6ZM36.22,99.94A1.73,1.73,0,1,0,38,101.66,1.72,1.72,0,0,0,36.22,99.94Zm6.31,0a1.73,1.73,0,1,0,1.73,1.72A1.72,1.72,0,0,0,42.53,99.94Zm6.31,0a1.73,1.73,0,1,0,1.73,1.72A1.72,1.72,0,0,0,48.84,99.94Zm-22.41,5.82c0,.95-.23,1.18.73,1.18a1.72,1.72,0,0,0,1.72-1.72,1.7,1.7,0,0,0-.41-1.12C28.15,103.73,26.43,104.81,26.43,105.76Zm7-2.27a1.73,1.73,0,1,0,1.73,1.73A1.72,1.72,0,0,0,33.46,103.49Zm6.31,0a1.73,1.73,0,1,0,1.73,1.73A1.72,1.72,0,0,0,39.77,103.49Zm6.31,0a1.73,1.73,0,1,0,1.73,1.73A1.72,1.72,0,0,0,46.08,103.49Zm6.31,0a1.73,1.73,0,1,0,1.73,1.73A1.72,1.72,0,0,0,52.39,103.49ZM23.18,110a1.72,1.72,0,1,0,2.37-2.5C25.25,107.21,22.86,109.68,23.18,110ZM30.71,107a1.73,1.73,0,1,0,1.72,1.73A1.73,1.73,0,0,0,30.71,107ZM37,107a1.73,1.73,0,1,0,1.72,1.73A1.73,1.73,0,0,0,37,107Zm6.31,0a1.73,1.73,0,1,0,1.72,1.73A1.73,1.73,0,0,0,43.33,107Zm6.31,0a1.73,1.73,0,1,0,1.72,1.73A1.73,1.73,0,0,0,49.64,107ZM56,107a1.73,1.73,0,1,0,1.72,1.73A1.73,1.73,0,0,0,56,107Zm-35,6.85a1.77,1.77,0,0,0,.73.16,1.72,1.72,0,0,0,1-3.11C22.39,110.72,20.32,113.61,20.91,113.89Zm7-3.29a1.73,1.73,0,1,0,1.73,1.72A1.73,1.73,0,0,0,28,110.6Zm6.31,0A1.73,1.73,0,1,0,36,112.32,1.73,1.73,0,0,0,34.26,110.6Zm6.31,0a1.73,1.73,0,1,0,1.73,1.72A1.73,1.73,0,0,0,40.57,110.6Zm6.31,0a1.73,1.73,0,1,0,1.73,1.72A1.73,1.73,0,0,0,46.88,110.6Zm6.31,0a1.73,1.73,0,1,0,1.73,1.72A1.73,1.73,0,0,0,53.19,110.6Zm6.31,0a1.73,1.73,0,1,0,1.72,1.72A1.73,1.73,0,0,0,59.5,110.6Zm-34.31,3.55a1.73,1.73,0,1,0,1.73,1.72A1.72,1.72,0,0,0,25.19,114.15Zm6.31,0a1.73,1.73,0,1,0,1.73,1.72A1.72,1.72,0,0,0,31.5,114.15Zm6.31,0a1.73,1.73,0,1,0,1.73,1.72A1.72,1.72,0,0,0,37.81,114.15Zm6.31,0a1.73,1.73,0,1,0,1.73,1.72A1.72,1.72,0,0,0,44.12,114.15Zm6.31,0a1.73,1.73,0,1,0,1.73,1.72A1.72,1.72,0,0,0,50.43,114.15Zm6.31,0a1.73,1.73,0,0,0,0,3.45c.37-1.3,1.3-1.11,1.73-1.73A1.73,1.73,0,0,0,56.74,114.15Zm-34.3,3.55a1.73,1.73,0,1,0,1.72,1.73A1.72,1.72,0,0,0,22.44,117.7Zm6.31,0a1.73,1.73,0,1,0,1.72,1.73A1.72,1.72,0,0,0,28.75,117.7Zm6.31,0a1.73,1.73,0,1,0,1.72,1.73A1.72,1.72,0,0,0,35.06,117.7Zm6.3,0a1.73,1.73,0,1,0,1.73,1.73A1.72,1.72,0,0,0,41.36,117.7Zm6.31,0a1.73,1.73,0,1,0,1.73,1.73A1.72,1.72,0,0,0,47.67,117.7Zm6.31,0a1.73,1.73,0,1,0,1.73,1.73A1.72,1.72,0,0,0,54,117.7Zm-34.3,3.55c-.95,0-1.17.78-1.17,1.73s.22,1.73,1.17,1.73a1.73,1.73,0,0,0,0-3.46Zm6.31,0A1.73,1.73,0,1,0,27.71,123,1.73,1.73,0,0,0,26,121.25Zm6.31,0A1.73,1.73,0,1,0,34,123,1.73,1.73,0,0,0,32.3,121.25Zm6.31,0A1.73,1.73,0,1,0,40.33,123,1.73,1.73,0,0,0,38.61,121.25Zm6.31,0A1.73,1.73,0,1,0,46.64,123,1.73,1.73,0,0,0,44.92,121.25Zm6.31,0A1.73,1.73,0,1,0,53,123,1.73,1.73,0,0,0,51.23,121.25Zm-2.76,3.56a1.73,1.73,0,1,0,1.73,1.72A1.73,1.73,0,0,0,48.47,124.81ZM52,128.36a1.73,1.73,0,1,0,1.73,1.72A1.72,1.72,0,0,0,52,128.36Zm-28.79-3.55A1.73,1.73,0,1,0,25,126.53,1.73,1.73,0,0,0,23.23,124.81Zm6.31,0a1.73,1.73,0,1,0,1.73,1.72A1.73,1.73,0,0,0,29.54,124.81Zm6.31,0a1.73,1.73,0,1,0,1.73,1.72A1.73,1.73,0,0,0,35.85,124.81Zm6.31,0a1.73,1.73,0,1,0,1.73,1.72A1.73,1.73,0,0,0,42.16,124.81Zm-21.69,3.55a1.73,1.73,0,1,0,1.73,1.72A1.72,1.72,0,0,0,20.47,128.36Zm6.31,0a1.73,1.73,0,1,0,1.73,1.72A1.72,1.72,0,0,0,26.78,128.36Zm6.31,0a1.73,1.73,0,1,0,1.73,1.72A1.72,1.72,0,0,0,33.09,128.36Zm6.31,0a1.73,1.73,0,1,0,1.73,1.72A1.72,1.72,0,0,0,39.4,128.36Zm6.31,0a1.73,1.73,0,1,0,1.73,1.72A1.72,1.72,0,0,0,45.71,128.36Zm-28,3.55c.62,1.49.84,3.29,1.15,3a1.73,1.73,0,0,0-1.15-3Zm6.31,0a1.73,1.73,0,1,0,1.72,1.73A1.72,1.72,0,0,0,24,131.91Zm6.31,0a1.73,1.73,0,1,0,1.72,1.73A1.72,1.72,0,0,0,30.34,131.91Zm6.31,0a1.73,1.73,0,1,0,1.72,1.73A1.72,1.72,0,0,0,36.65,131.91Zm6.31,0a1.73,1.73,0,1,0,1.72,1.73A1.72,1.72,0,0,0,43,131.91Zm6.3,0A1.73,1.73,0,1,0,51,133.64,1.72,1.72,0,0,0,49.26,131.91Zm-28,3.55A1.73,1.73,0,1,0,23,137.19,1.74,1.74,0,0,0,21.27,135.46Zm6.31,0a1.73,1.73,0,1,0,1.72,1.73A1.74,1.74,0,0,0,27.58,135.46Zm6.31,0a1.73,1.73,0,1,0,1.72,1.73A1.73,1.73,0,0,0,33.89,135.46Zm6.31,0a1.73,1.73,0,1,0,1.72,1.73A1.73,1.73,0,0,0,40.2,135.46Zm6.31,0a1.73,1.73,0,1,0,1.72,1.73A1.73,1.73,0,0,0,46.51,135.46ZM24.82,139a1.73,1.73,0,1,0,1.73,1.73A1.73,1.73,0,0,0,24.82,139Zm6.31,0a1.73,1.73,0,1,0,1.73,1.73A1.74,1.74,0,0,0,31.13,139Zm6.31,0a1.73,1.73,0,1,0,1.73,1.73A1.74,1.74,0,0,0,37.44,139Zm6.31,0a1.73,1.73,0,1,0,1.73,1.73A1.74,1.74,0,0,0,43.75,139Zm6.31,0a1.73,1.73,0,1,0,1.73,1.73A1.74,1.74,0,0,0,50.06,139Z"/><circle class="cls-4" cx="154.55" cy="104.88" r="1.42"/><circle class="cls-4" cx="152.27" cy="107.81" r="1.42"/><circle class="cls-4" cx="151.62" cy="101.95" r="1.42"/><circle class="cls-4" cx="153.89" cy="99.02" r="1.42"/><circle class="cls-4" cx="159.09" cy="99.02" r="1.42"/><circle class="cls-4" cx="156.82" cy="101.95" r="1.42"/><path class="cls-4" d="M157.47,109.23a1.43,1.43,0,1,0-1.42-1.42A1.43,1.43,0,0,0,157.47,109.23Z"/><path class="cls-4" d="M142.22,135.58a1.36,1.36,0,0,0,.53-.11l-1-2.65a1.42,1.42,0,0,0,.45,2.76Z"/><circle class="cls-4" cx="141.87" cy="107.81" r="1.42"/><circle class="cls-4" cx="144.14" cy="104.88" r="1.42"/><circle class="cls-4" cx="142.53" cy="113.66" r="1.42"/><circle class="cls-4" cx="148.69" cy="99.02" r="1.42"/><circle class="cls-4" cx="147.07" cy="107.81" r="1.42"/><circle class="cls-4" cx="149.35" cy="104.88" r="1.42"/><path class="cls-4" d="M147.84,102a1.43,1.43,0,1,0-1.42,1.42A1.42,1.42,0,0,0,147.84,102Z"/><path class="cls-4" d="M153.23,94.59a1.42,1.42,0,0,0,1.41-1.35c-1.07-.1-2-.23-2.77-.37a1.45,1.45,0,0,0-.06.3A1.43,1.43,0,0,0,153.23,94.59Z"/><circle class="cls-4" cx="161.36" cy="96.09" r="1.42"/><path class="cls-4" d="M163.64,94.59a1.43,1.43,0,0,0,1.42-1.42,1.17,1.17,0,0,0-.08-.38c-.87.14-1.79.27-2.77.38A1.43,1.43,0,0,0,163.64,94.59Z"/><path class="cls-4" d="M158.43,94.59a1.4,1.4,0,0,0,1.39-1.26c-1,0-1.9.06-2.77,0A1.41,1.41,0,0,0,158.43,94.59Z"/><circle class="cls-4" cx="166.56" cy="96.09" r="1.42"/><circle class="cls-4" cx="156.16" cy="96.09" r="1.42"/><path class="cls-4" d="M151,97.52a1.43,1.43,0,1,0-1.42-1.43A1.42,1.42,0,0,0,151,97.52Z"/><circle class="cls-4" cx="159.75" cy="104.88" r="1.42"/><path class="cls-4" d="M137.22,125.37a1.42,1.42,0,0,0,1.42,1.43,1.35,1.35,0,0,0,.81-.29c-.39-1.07-.72-2-.93-2.54A1.41,1.41,0,0,0,137.22,125.37Z"/><path class="cls-4" d="M168.84,94.59a1.43,1.43,0,0,0,1.42-1.42,1.41,1.41,0,0,0-.91-1.32c-.49.13-1,.27-1.58.4a1.4,1.4,0,0,0-.36.92A1.43,1.43,0,0,0,168.84,94.59Z"/><path class="cls-4" d="M163.44,102a1.42,1.42,0,1,0-1.42,1.42A1.42,1.42,0,0,0,163.44,102Z"/><circle class="cls-4" cx="164.95" cy="104.88" r="1.42"/><circle class="cls-4" cx="164.29" cy="99.02" r="1.42"/><circle class="cls-4" cx="169.49" cy="99.02" r="1.42"/><circle class="cls-4" cx="167.22" cy="101.95" r="1.42"/><circle class="cls-4" cx="134.09" cy="131.23" r="1.42"/><circle class="cls-4" cx="139.29" cy="131.23" r="1.42"/><circle class="cls-4" cx="141.22" cy="101.95" r="1.42"/><circle class="cls-4" cx="138.94" cy="104.88" r="1.42"/><circle class="cls-4" cx="126.93" cy="113.66" r="1.42"/><path class="cls-4" d="M140.26,115.17a1.42,1.42,0,0,0-1.43,1.42s0,0,0,0c.68-.18,1.62-.36,2.73-.56A1.4,1.4,0,0,0,140.26,115.17Z"/><circle class="cls-4" cx="135.71" cy="122.44" r="1.42"/><circle class="cls-4" cx="137.33" cy="113.66" r="1.42"/><circle class="cls-4" cx="171.76" cy="96.09" r="1.42"/><circle class="cls-4" cx="124.65" cy="116.59" r="1.42"/><path class="cls-4" d="M174,94.59a1.41,1.41,0,0,0,1.19-.69c-.08-.58-.17-1.18-.28-1.8a1.42,1.42,0,1,0-.91,2.49Z"/><circle class="cls-4" cx="139.6" cy="110.73" r="1.42"/><path class="cls-4" d="M172.36,90.88q-.8.3-1.86.63a1.37,1.37,0,0,0,.61.15A1.41,1.41,0,0,0,172.36,90.88Z"/><circle class="cls-4" cx="121.73" cy="113.66" r="1.42"/><circle class="cls-4" cx="124" cy="110.73" r="1.42"/><circle class="cls-4" cx="135.05" cy="116.59" r="1.42"/><circle class="cls-4" cx="136.67" cy="107.81" r="1.42"/><circle class="cls-4" cx="133.44" cy="125.37" r="1.42"/><circle class="cls-4" cx="130.51" cy="122.44" r="1.42"/><circle class="cls-4" cx="136.37" cy="128.3" r="1.42"/><path class="cls-4" d="M148,94.59a1.41,1.41,0,0,0,1.06-2.36l-.21-.06-2.23.82a1,1,0,0,0,0,.18A1.43,1.43,0,0,0,148,94.59Z"/><circle class="cls-4" cx="137.02" cy="134.16" r="1.42"/><path class="cls-4" d="M131.28,116.59a1.43,1.43,0,1,0-1.43,1.42A1.42,1.42,0,0,0,131.28,116.59Z"/><path class="cls-4" d="M134.21,119.52a1.43,1.43,0,1,0-1.43,1.42A1.43,1.43,0,0,0,134.21,119.52Z"/><path class="cls-4" d="M127.58,120.94a1.43,1.43,0,1,0-1.42-1.42A1.42,1.42,0,0,0,127.58,120.94Z"/><path class="cls-4" d="M133,110.73a1.42,1.42,0,1,0,1.42-1.42A1.42,1.42,0,0,0,133,110.73Z"/><circle class="cls-4" cx="133.74" cy="104.88" r="1.42"/><circle class="cls-4" cx="132.13" cy="113.66" r="1.42"/><circle class="cls-4" cx="129.2" cy="110.73" r="1.42"/><circle class="cls-4" cx="131.47" cy="107.81" r="1.42"/><path class="cls-4" d="M138.3,120.84c-.4-1.1-.69-2-.86-2.64-.67.11-.88.61-.88,1.32a1.43,1.43,0,0,0,1.42,1.42C138.21,120.94,138.11,120.93,138.3,120.84Z"/><path class="cls-4" d="M140,135.66a1.43,1.43,0,1,0,1.42,1.42A1.42,1.42,0,0,0,140,135.66Z"/><path class="cls-4" d="M137.68,138.59a1.4,1.4,0,0,0-1.39,1.24c.38.53.76,1.06,1.14,1.55a1,1,0,0,0,.25.05,1.42,1.42,0,0,0,0-2.84Z"/><path class="cls-4" d="M134.75,135.66a1.44,1.44,0,0,0-1,.43q.78,1.18,1.56,2.31a1.42,1.42,0,0,0-.54-2.74Z"/><circle class="cls-4" cx="142.88" cy="140.01" r="1.42"/><path class="cls-4" d="M144.44,115.59l1.66-.25a1.42,1.42,0,0,0-.64-.17A1.44,1.44,0,0,0,144.44,115.59Z"/><circle class="cls-4" cx="147.73" cy="113.66" r="1.42"/><circle class="cls-4" cx="144.8" cy="110.73" r="1.42"/><path class="cls-4" d="M121.61,125.37a1.43,1.43,0,0,0,.51,1.07l1.5-2.36A1.41,1.41,0,0,0,123,124,1.43,1.43,0,0,0,121.61,125.37Z"/><circle class="cls-4" cx="150" cy="110.73" r="1.42"/><path class="cls-4" d="M119.34,128.3a1.41,1.41,0,0,0,.79,1.25c.51-.81,1-1.59,1.5-2.35a1.39,1.39,0,0,0-.87-.32A1.42,1.42,0,0,0,119.34,128.3Z"/><path class="cls-4" d="M122.38,118.09a1.43,1.43,0,1,0,1.42,1.43A1.43,1.43,0,0,0,122.38,118.09Z"/><path class="cls-4" d="M125.31,121a1.42,1.42,0,0,0-1.42,1.42,1.34,1.34,0,0,0,.27.79l1.23-1.94.74,1.78.19.37a1.4,1.4,0,0,0,.41-1A1.42,1.42,0,0,0,125.31,121Z"/><path class="cls-4" d="M131.82,132.73a.8.8,0,0,0-.21.05c.45.72.9,1.44,1.37,2.16a1.4,1.4,0,0,0-1.16-2.21Z"/><circle class="cls-4" cx="131.17" cy="128.3" r="1.42"/><path class="cls-4" d="M128.24,124a1.4,1.4,0,0,0-1.26.8q.48.93,1.08,2a1.16,1.16,0,0,0,.18,0,1.43,1.43,0,0,0,0-2.85Z"/><path class="cls-4" d="M169.46,110.32a13.7,13.7,0,0,0,1.4-1h-.06A1.41,1.41,0,0,0,169.46,110.32Z"/><circle class="cls-4" cx="170.15" cy="104.88" r="1.42"/><path class="cls-4" d="M117.07,131.23a1.41,1.41,0,0,0,1.11,1.36l1.42-2.22a1.41,1.41,0,0,0-2.53.86Z"/><path class="cls-4" d="M171.65,107.81a1.44,1.44,0,0,0,.18.65,11.36,11.36,0,0,0,1.57-2,1.21,1.21,0,0,0-.33-.07A1.43,1.43,0,0,0,171.65,107.81Z"/><path class="cls-4" d="M174.69,97.6a1.42,1.42,0,1,0,.71,2.63c.07-.73.11-1.51.11-2.34A1.38,1.38,0,0,0,174.69,97.6Z"/><path class="cls-4" d="M152.93,112.24a1.42,1.42,0,0,0-1.42,1.42,1.39,1.39,0,0,0,.29.83l2.46-.36a1.45,1.45,0,0,0,.09-.47A1.43,1.43,0,0,0,152.93,112.24Z"/><circle class="cls-4" cx="167.87" cy="107.81" r="1.42"/><path class="cls-4" d="M173.92,104.88a1.71,1.71,0,0,0,.09.45,13.54,13.54,0,0,0,.68-1.69A1.4,1.4,0,0,0,173.92,104.88Z"/><circle class="cls-4" cx="172.42" cy="101.95" r="1.42"/><path class="cls-4" d="M165.6,109.31a1.43,1.43,0,0,0-1.42,1.42,1.4,1.4,0,0,0,1.13,1.37c.46-.14.91-.29,1.36-.46a1.4,1.4,0,0,0-1.07-2.33Z"/><path class="cls-4" d="M158.13,112.24a1.42,1.42,0,0,0-1.42,1.42s0,.06,0,.1l2.76-.44A1.4,1.4,0,0,0,158.13,112.24Z"/><circle class="cls-4" cx="155.2" cy="110.73" r="1.42"/><circle class="cls-4" cx="160.4" cy="110.73" r="1.42"/><path class="cls-4" d="M162.2,112.83l.51-.09,1.31-.29a1.34,1.34,0,0,0-.69-.21A1.41,1.41,0,0,0,162.2,112.83Z"/><circle class="cls-4" cx="162.67" cy="107.81" r="1.42"/><circle class="cls-4" cx="120.11" cy="122.44" r="1.42"/><circle class="cls-4" cx="126.27" cy="107.81" r="1.42"/><path class="cls-4" d="M116.22,132.73a1.43,1.43,0,0,0,0,2.85h0l1.28-2A1.43,1.43,0,0,0,116.22,132.73Z"/><path class="cls-4" d="M127,102a1.06,1.06,0,0,0,0-.19,23.93,23.93,0,0,0-2.1,1.39,1.36,1.36,0,0,0,.72.22A1.42,1.42,0,0,0,127,102Z"/><circle class="cls-4" cx="128.54" cy="104.88" r="1.42"/><circle class="cls-4" cx="119.45" cy="116.59" r="1.42"/><path class="cls-4" d="M120.22,110.73a1.41,1.41,0,0,0-.63-1.15c-.47.78-.93,1.59-1.39,2.43a1.33,1.33,0,0,0,.6.15A1.43,1.43,0,0,0,120.22,110.73Z"/><path class="cls-4" d="M122.49,107.81a1.42,1.42,0,0,0-.86-1.31c-.52.7-1,1.46-1.58,2.3a1.44,1.44,0,0,0,1,.43A1.42,1.42,0,0,0,122.49,107.81Z"/><path class="cls-4" d="M140.56,97.52A1.42,1.42,0,0,0,142,96.09a1.38,1.38,0,0,0-.53-1.08q-1.11.43-2.28.93a.8.8,0,0,0,0,.15A1.43,1.43,0,0,0,140.56,97.52Z"/><circle class="cls-4" cx="143.49" cy="99.02" r="1.42"/><path class="cls-4" d="M143.94,94l-1.33.52a.79.79,0,0,0,.22,0A1.39,1.39,0,0,0,143.94,94Z"/><circle class="cls-4" cx="115.56" cy="128.3" r="1.42"/><circle class="cls-4" cx="130.82" cy="101.95" r="1.42"/><path class="cls-4" d="M133.09,100.44a1.4,1.4,0,0,0,1.07-2.33c-.83.38-1.65.76-2.45,1.15A1.41,1.41,0,0,0,133.09,100.44Z"/><circle class="cls-4" cx="138.29" cy="99.02" r="1.42"/><circle class="cls-4" cx="136.02" cy="101.95" r="1.42"/><path class="cls-4" d="M124.77,104.88a1.41,1.41,0,0,0-.62-1.14,14.9,14.9,0,0,0-1.91,2,1.41,1.41,0,0,0,1.1.55A1.43,1.43,0,0,0,124.77,104.88Z"/><path class="cls-4" d="M113.29,129.81a1.42,1.42,0,1,0,1.42,1.42A1.42,1.42,0,0,0,113.29,129.81Z"/><path class="cls-4" d="M111.79,128.3a1.41,1.41,0,0,0-.37-.93c-.3.79-.58,1.56-.85,2.31A1.41,1.41,0,0,0,111.79,128.3Z"/><path class="cls-4" d="M110.17,137.08a1.43,1.43,0,0,0-1.42-1.42.93.93,0,0,0-.24.05c-.31,1-.56,1.79-.73,2.4a1.4,1.4,0,0,0,1,.4A1.43,1.43,0,0,0,110.17,137.08Z"/><circle class="cls-4" cx="111.02" cy="134.16" r="1.42"/><path class="cls-4" d="M114,135.66a1.43,1.43,0,1,0,0,2.85,1.57,1.57,0,0,0,.43-.09l1-1.47A1.4,1.4,0,0,0,114,135.66Z"/><path class="cls-4" d="M108.8,141.66a4.21,4.21,0,0,0,1.64.33,1.38,1.38,0,0,0-1.64-.33Z"/><path class="cls-4" d="M111.67,138.59a1.42,1.42,0,1,0,0,2.84,1.37,1.37,0,0,0,.88-.33l.46-.64a1.34,1.34,0,0,0,.09-.45A1.43,1.43,0,0,0,111.67,138.59Z"/><path class="cls-4" d="M107.51,139.12a2.17,2.17,0,0,0,.19,1.57,1.32,1.32,0,0,0,.2-.68,1.39,1.39,0,0,0-.38-.94S107.51,139.11,107.51,139.12Z"/><circle class="cls-4" cx="145.76" cy="96.09" r="1.42"/><path class="cls-4" d="M118,113.66a1.43,1.43,0,0,0-.23-.73c-.37.69-.72,1.4-1.08,2.13A1.41,1.41,0,0,0,118,113.66Z"/><path class="cls-4" d="M114.06,125.37a1.41,1.41,0,0,0-1.33-1.4c-.33.85-.66,1.68-1,2.5a1.4,1.4,0,0,0,2.3-1.1Z"/><path class="cls-4" d="M119.26,125.37a1.43,1.43,0,1,0-1.42,1.43A1.43,1.43,0,0,0,119.26,125.37Z"/><path class="cls-4" d="M117.18,120.94a1.43,1.43,0,1,0-1.42-1.42A1.42,1.42,0,0,0,117.18,120.94Z"/><circle class="cls-4" cx="114.91" cy="122.44" r="1.42"/><path class="cls-5" d="M178,49.74c-.73-1.1-4.5-5.41-6.2-5.9s-7.41-.36-10.21-.42-5.83-.31-5.83-.31h0a16.9,16.9,0,0,1-1.33,5.55c-.36.24-1.13-.93-2.3-.65S150,51.86,150,51.86l-1.11.18c0,.06-.57-1.52-1.85-1.52s-1.76,2.19-1.76,2.19a8.05,8.05,0,0,1-3.91-1.88h0c-3.44.35-5.75,3.27-8,5.21s-2.4,2.25-2.46,3.35S132,62,133.39,64s1.43,4.86,2.34,5.59,3.22-1.46,3.77-1.88,8.25,7.59,9.38,12.63-1.91,8.39-1.73,10.33,6.14,3.1,13.25,2.86,14-2.13,14.64-4.32,1.52-11.72,0-19.25a60.32,60.32,0,0,0-3.28-11.49,9.28,9.28,0,0,0,2.43.91c.67,0-.49-1.64,1.28-3.88s2.79-2.74,3.76-2.74S178.75,50.83,178,49.74Z"/><path class="cls-6" d="M175.2,72.16a1,1,0,0,0-.45-.7L172,69.53a1.06,1.06,0,0,0-1.34.11l-3.55,3.42a1,1,0,0,1-1.41,0l-2.91-2.44a1.06,1.06,0,0,0-1.47.09L157,75.47a1.06,1.06,0,0,1-1.3.21l-5.49-3.08L149,74.24c-.65.92-1.22,1.7-1.72,2.4a13.75,13.75,0,0,1,1.57,3.65,10.81,10.81,0,0,1,.22,1.62L151,79.29a1,1,0,0,1,1.37-.3l4.26,2.39a1.06,1.06,0,0,0,1.3-.21l3.8-4.15a1.07,1.07,0,0,1,1.47-.1l2.7,2.28a1.07,1.07,0,0,0,1.42,0l3.81-3.67a1.06,1.06,0,0,1,1.34-.11l3.35,2.34A48.06,48.06,0,0,0,175.2,72.16Z"/><path class="cls-7" d="M170.11,83.23l-3.83,3.11a1,1,0,0,1-1.41-.07l-2.7-2.68a1,1,0,0,0-1.46,0L156,87.9a1.07,1.07,0,0,1-1.31.1l-5.21-3.53-.74.87c-.61,2.34-1.72,4.08-1.61,5.28.06.6.71,1.12,1.73,1.55l1.44-1.68,4.19,2.84c.69.06,1.41.1,2.16.13l3.92-3.63a1.07,1.07,0,0,1,1.47,0l2.5,2.49a1,1,0,0,0,1.42.07l4.1-3.33a1.07,1.07,0,0,1,1.35,0l2,1.66A3.22,3.22,0,0,0,175,89.16a17.16,17.16,0,0,0,.46-2.57l-4.05-3.35A1,1,0,0,0,170.11,83.23Z"/><path class="cls-7" d="M149,67.78l4.5,1.89a1.06,1.06,0,0,0,1.27-.36l3.31-4.55a1.06,1.06,0,0,1,1.44-.26l2.95,2a1.05,1.05,0,0,0,1.4-.21l3.37-4.08a1.06,1.06,0,0,1,1.32-.26l5.31,2.87A51.78,51.78,0,0,0,172,58.89a1,1,0,0,0-.47-.53l-4.07-2.19a1.06,1.06,0,0,0-1.32.25L163,60.22a1.06,1.06,0,0,1-1.4.21l-3.17-2.1a1.06,1.06,0,0,0-1.44.26l-3.75,5.16a1,1,0,0,1-1.27.35l-5.79-2.43-1,1.76-3,5.36A1,1,0,0,0,142.3,70c.52.56,1.08,1.19,1.64,1.88a1.06,1.06,0,0,0,1.74-.15l2-3.52A1.05,1.05,0,0,1,149,67.78Z"/><path class="cls-3" d="M130.05,38a.58.58,0,0,1-.58-.55l-.06-1.14a.57.57,0,0,1,.55-.61.61.61,0,0,1,.61.55l.06,1.14a.57.57,0,0,1-.54.61Z"/><path class="cls-8" d="M143.71,32.93a.59.59,0,0,1-.44-.2l-.76-.86a.58.58,0,0,1,.06-.82.57.57,0,0,1,.82.05l.75.86a.59.59,0,0,1-.43,1Z"/><path class="cls-3" d="M133.71,36.46a.62.62,0,0,1-.49-.26l-.63-1a.58.58,0,0,1,1-.65l.63.95a.58.58,0,0,1-.16.81A.63.63,0,0,1,133.71,36.46Z"/><path class="cls-3" d="M141.81,34a.59.59,0,0,1-.53-.35l-.46-1a.59.59,0,0,1,.3-.77.58.58,0,0,1,.77.3l.46,1a.6.6,0,0,1-.3.77A.67.67,0,0,1,141.81,34Z"/><path class="cls-3" d="M132.1,37.63a.59.59,0,0,1-.55-.38l-.4-1.08a.58.58,0,0,1,.35-.74.59.59,0,0,1,.75.34l.39,1.07a.58.58,0,0,1-.34.75A.45.45,0,0,1,132.1,37.63Z"/><path class="cls-3" d="M139.51,34.7a.58.58,0,0,1-.58-.55L138.87,33a.57.57,0,0,1,.54-.61A.6.6,0,0,1,140,33l.06,1.14a.57.57,0,0,1-.54.61Z"/><rect class="cls-3" x="90.19" y="21.58" width="4.58" height="19.15" transform="translate(-5.05 34.42) rotate(-20.54)"/><polygon class="cls-9" points="97.98 39.31 93.7 40.92 95.64 41.02 99.92 39.41 97.98 39.31"/><polygon class="cls-10" points="97.98 39.31 99.92 39.41 93.2 21.48 91.27 21.38 97.98 39.31"/><rect class="cls-5" x="97.14" y="39.96" width="0.93" height="6.51" transform="translate(-8.95 36.98) rotate(-20.54)"/><polygon class="cls-4" points="99.18 46.09 98.31 46.42 98.74 46.54 99.61 46.21 99.18 46.09"/><polygon class="cls-11" points="99.18 46.09 99.61 46.21 97.33 40.12 96.9 40 99.18 46.09"/><rect class="cls-7" x="204.73" y="8.31" width="4.58" height="19.15" transform="translate(410.38 60.54) rotate(-173.09)"/><polygon class="cls-12" points="203.59 27.11 208.14 27.66 206.28 28.21 201.74 27.66 203.59 27.11"/><polygon class="cls-13" points="203.59 27.11 201.74 27.66 204.04 8.65 205.9 8.1 203.59 27.11"/><rect class="cls-5" x="204.42" y="27.56" width="0.93" height="6.51" transform="translate(404.57 86.04) rotate(-173.09)"/><polygon class="cls-4" points="204.03 33.98 204.95 34.09 204.56 34.31 203.64 34.2 204.03 33.98"/><polygon class="cls-11" points="204.03 33.98 203.64 34.2 204.42 27.74 204.81 27.52 204.03 33.98"/><circle class="cls-3" cx="44.56" cy="38.95" r="2.4"/><path class="cls-7" d="M35.52,151a1.42,1.42,0,1,0,1.42,1.42A1.43,1.43,0,0,0,35.52,151Zm10.4,0a1.42,1.42,0,1,0,0,2.84c.78,0,1-.63,1-1.42S46.7,151,45.92,151Zm-7.48,2.93a1.42,1.42,0,0,0,0,2.84c.79,0,.22-.47.22-1.26S39.23,153.93,38.44,153.93Zm5.2,0a1.42,1.42,0,1,0,1.43,1.42A1.42,1.42,0,0,0,43.64,153.93Zm-2.27,2.93a1.42,1.42,0,1,0,1.42,1.42A1.42,1.42,0,0,0,41.37,156.86ZM28,153.93a1.42,1.42,0,1,0,0,2.84c.79,0,0-.63,0-1.42S28.83,153.93,28,153.93Zm5.2,0a1.42,1.42,0,1,0,1.43,1.42A1.42,1.42,0,0,0,33.24,153.93Zm-7.47,2.93c-.78,0-1,.63-1,1.42s.25,1.42,1,1.42a1.42,1.42,0,1,0,0-2.84Zm5.2,0a1.42,1.42,0,1,0,1.42,1.42A1.42,1.42,0,0,0,31,156.86Zm5.2,0c-.78,0-.69.63-.69,1.42s-.09,1.42.69,1.42a1.42,1.42,0,1,0,0-2.84Zm-7.47,2.92a1.43,1.43,0,1,0,1.42,1.43A1.42,1.42,0,0,0,28.7,159.78Zm10.4,0a1.43,1.43,0,1,0,1.42,1.43A1.42,1.42,0,0,0,39.1,159.78Zm-12.67,2.93A1.43,1.43,0,0,0,25,164.13c0,.79.64.73,1.43.73s1.42.06,1.42-.73A1.43,1.43,0,0,0,26.43,162.71Zm10.4,0a1.43,1.43,0,0,0-1.43,1.42c0,.79.64.73,1.43.73s1.42.06,1.42-.73A1.43,1.43,0,0,0,36.83,162.71Z"/><path class="cls-14" d="M46,29.35a.52.52,0,0,0-.33-.65,3.93,3.93,0,0,0-2.82.09,2.41,2.41,0,0,0-1.18,1.53A.51.51,0,0,0,42,31a.32.32,0,0,0,.14,0,.51.51,0,0,0,.49-.37,1.42,1.42,0,0,1,.68-.91,2.89,2.89,0,0,1,2,0A.52.52,0,0,0,46,29.35Z"/><path class="cls-14" d="M55.9,31a.52.52,0,0,0,.36-.64,2.41,2.41,0,0,0-1.18-1.53,4,4,0,0,0-2.83-.09.52.52,0,1,0,.33,1,2.89,2.89,0,0,1,2,0,1.37,1.37,0,0,1,.67.91.53.53,0,0,0,.5.37A.36.36,0,0,0,55.9,31Z"/><path class="cls-14" d="M44.77,34.64a1.07,1.07,0,0,0,0-2.13.86.86,0,0,0-.57.23.87.87,0,0,1-.52-.59.38.38,0,0,0-.5-.24.39.39,0,0,0-.24.49,1.66,1.66,0,0,0,.91,1s0,.08,0,.13A1,1,0,0,0,44.77,34.64Z"/><path class="cls-14" d="M132.52,16.88s4.63-3.89,9.08-3c4.79,1,6,3.16,6.83,5.45,1.11,2.92,2.68,3.69,2.86,3.77a.71.71,0,0,0,.58-1.3s-1.21-.61-2.11-3c-1.18-3.14-2.91-5.29-7.86-6.34-5.16-1.11-10.1,3.09-10.31,3.28a.71.71,0,0,0-.07,1A.7.7,0,0,0,132.52,16.88Z"/><path class="cls-14" d="M146.24,21a.71.71,0,0,0,.09-1.41c-2.81-.36-5.65-3.2-5.68-3.23a.71.71,0,0,0-1,1c.14.13,3.22,3.22,6.52,3.64Z"/><path class="cls-14" d="M137.84,18.05a4.08,4.08,0,0,0-4.36-.8.7.7,0,0,0-.33.94.69.69,0,0,0,.94.34,2.74,2.74,0,0,1,2.87.64c1.74,1.55,3.55,3.15,6.23,3.15a.72.72,0,0,0,0-1.43C141.05,20.89,139.59,19.6,137.84,18.05Z"/><path class="cls-14" d="M126,19.75a.71.71,0,0,0-1,.11,10.2,10.2,0,0,0-2.09,6.8.7.7,0,0,0,.7.64h.08a.71.71,0,0,0,.63-.78,8.91,8.91,0,0,1,1.79-5.76A.72.72,0,0,0,126,19.75Z"/><path class="cls-14" d="M126.37,26.91h0a.71.71,0,0,0,.68-.74c-.1-2.5,1.12-3.45,1.18-3.5a.71.71,0,0,0-.82-1.16c-.08.06-1.91,1.38-1.77,4.72A.7.7,0,0,0,126.37,26.91Z"/><path class="cls-14" d="M137.92,25.16a4.23,4.23,0,0,0-2.3,2.26.7.7,0,0,0,.39.92.65.65,0,0,0,.27.05.72.72,0,0,0,.66-.44,2.29,2.29,0,0,1,3.68-1,.72.72,0,0,0,1-.25.72.72,0,0,0-.25-1A4.06,4.06,0,0,0,137.92,25.16Z"/><path class="cls-14" d="M138.18,41.14a.71.71,0,0,0,.71.68h0c.15,0,3.55-.21,5-5.57a.71.71,0,0,0-.51-.87.69.69,0,0,0-.87.51c-1.11,4.27-3.52,4.5-3.65,4.51A.71.71,0,0,0,138.18,41.14Z"/><path class="cls-14" d="M139.89,31a1.07,1.07,0,0,0-.75-2,1.07,1.07,0,0,0,.75,2Z"/><path class="cls-14" d="M130.56,32.92a1.07,1.07,0,1,0,1.25.67A1,1,0,0,0,130.56,32.92Z"/><path class="cls-14" d="M134.8,34a.7.7,0,0,0-.85.53,7.08,7.08,0,0,0-.27,3.3c.36.8,1.58,1.16,1.94,1.25l.17,0a.71.71,0,0,0,.69-.54.7.7,0,0,0-.51-.86,3.18,3.18,0,0,1-1-.42,9.31,9.31,0,0,1,.33-2.44A.71.71,0,0,0,134.8,34Z"/><path class="cls-14" d="M208.9,31.74a1.94,1.94,0,0,0-1.83-2.24,1.89,1.89,0,0,0-1.36.43l.16-1.25.35.05h.06l.15,0,1.85-.55s.05,0,.08-.06a.38.38,0,0,0,.1,0s0,0,0-.06a.4.4,0,0,0,.11-.2s.05,0,.05-.08l2.3-19a.51.51,0,0,0-.45-.58L206,7.6h-.08a.55.55,0,0,0-.18,0l-1.86.55a.5.5,0,0,0-.36.43l-2.31,19s0,0,0,0,0,0,0,.07a.53.53,0,0,0,.17.33s0,0,0,0,.08,0,.12,0a.44.44,0,0,0,.15.08l2.41.29-.05.4a1.35,1.35,0,0,0-.76-.33c-1.13-.18-6.13,1.49-7.16,2.59-.7.74-1.34,2.87-2.31,6.29a41.94,41.94,0,0,1-1.54,4.8l-.3.64c-.5,1.09-1,2.07-1.4,3H188.1a.71.71,0,0,0-.71.71v5.53c-1.89,3.43-2.67,4.12-3,4.21-1.17.21-2.71-1.42-3.24-2.11v0a2.91,2.91,0,0,0-1-2,7.12,7.12,0,0,0-1.29-2.39l-.33-.48c-.68-1-4.56-5.6-6.59-6.18-1.39-.4-4.9-.41-8-.43-.9,0-1.73,0-2.39,0-2,0-4.16-.18-5.18-.25h0a1.06,1.06,0,0,0-.8-.95,36.14,36.14,0,0,0-5.53,0h-.05c-.59-1-1.21-1.94-1.41-2.26a14.34,14.34,0,0,0,.9-6.27,19.06,19.06,0,0,0-.36-2.64c.71-.54,1.91-1.9,1.76-5a2.81,2.81,0,0,0-1-2.18,3.94,3.94,0,0,0-2.24-.74h0a19.94,19.94,0,0,0-4.41.42c-1,.16-1.89.31-2.68.36-2.46.19-3.81-.85-5.25-1.93-.49-.36-1-.71-1.45-1a4,4,0,0,0-4.31,0,.71.71,0,0,0,.84,1.15,2.54,2.54,0,0,1,2.74,0,15.15,15.15,0,0,1,1.33.92c1.5,1.13,3.21,2.43,6.19,2.21.87-.06,1.81-.21,2.82-.38s2-.33,3-.39a3.42,3.42,0,0,0,.05,2.38A24.62,24.62,0,0,1,148.15,33c.32,5.34-2.09,8-2.58,8.53a.7.7,0,0,0,0,1,.71.71,0,0,0,1,0,9,9,0,0,0,1.36-1.82c.53.84,1.29,2.07,1.71,2.79s.23,1.06-.22,2.19c-.09.24-.19.5-.3.77-.67,1.86,1.27,4.72,1.49,5a.74.74,0,0,0,.59.31.69.69,0,0,0,.24,0,.73.73,0,0,0,.47-.73c-.11-1.13.13-2.27.38-2.33a1.45,1.45,0,0,1,1.13.34,1.24,1.24,0,0,0,1.4.2c.6-.39,1.37-3.4,1.59-5.38,1.05.08,3.18.22,5.18.26l2.42,0c2.7,0,6.4,0,7.6.38,1.41.4,5,4.4,5.81,5.6l.34.5c.24.35.67,1,.91,1.41-1,.19-1.92,1-3.44,3A7.34,7.34,0,0,0,174,60.15v.06a13.39,13.39,0,0,1-1.48-1.07.7.7,0,0,0-.9,0,.71.71,0,0,0-.18.89s1.42,2.73,2.89,10c.07.34.13.69.19,1,0,0,0,0,0,0s0,.06.05.1c1.2,7.28.36,15.89-.2,17.72-.49,1.59-6.57,3.55-14,3.81-5.62.17-9.34-.5-11.18-1.24h0c-.82-.33-1.29-.67-1.32-1a6.41,6.41,0,0,1,.65-2.29,13,13,0,0,0,1.06-8.13,15.93,15.93,0,0,0-2.18-4.72,0,0,0,0,1,0,0,41.38,41.38,0,0,0-3.55-4.73l-.06-.06A16.81,16.81,0,0,0,139.89,67a1,1,0,0,0-.83.11c-.12.09-.32.28-.57.51a8.7,8.7,0,0,1-2.26,1.81,6,6,0,0,1-.71-2A12,12,0,0,0,134,63.54l-.25-.35c-1.14-1.6-2.12-3-2.08-3.75s.06-.95,2.22-2.85c.58-.51,1.08-1,1.58-1.54a13.22,13.22,0,0,1,5.4-3.72,8.86,8.86,0,0,0,4.36,2.09h.07a.71.71,0,0,0,.69-.55c.13-.55.58-1.63,1.07-1.63s.91.58,1.14,1a1,1,0,0,0,.68.51.79.79,0,0,0,.63-.34c.09-.14.24-.39-.11-1.42a4.23,4.23,0,0,0-2.46-2.66,4.16,4.16,0,0,1-2.28-2.43l-.12-.26c-.3-.59-1-2.32-1-2.32a.7.7,0,0,0-.51-.42.69.69,0,0,0-.63.16c-.1.1-2.53,2.24-6.86,1.41-3.62-.69-6.33-7.74-7.68-12.59h0a.69.69,0,0,0,.2,0,.71.71,0,0,0,.68-.52,1.22,1.22,0,0,1,.58-.79,2.67,2.67,0,0,1,1.85,0,.71.71,0,1,0,.45-1.35,4.18,4.18,0,0,0-3,.1,2.53,2.53,0,0,0-1.11,1.33c-.18-.71-.32-1.34-.43-1.86a.71.71,0,1,0-1.39.27c0,.19.32,1.55.84,3.4a11.79,11.79,0,0,1-.57,1.13,1.87,1.87,0,0,0-.07-.22,9.45,9.45,0,0,0-2.55-4.61c-2.1-1.88-2.31-5.16-.54-8.16s6.5-2.81,6.55-2.81a.72.72,0,0,0,.72-.69.71.71,0,0,0-.69-.73c-.22,0-5.66-.1-7.8,3.51s-1.81,7.59.81,9.94a8.12,8.12,0,0,1,2.14,4c.25.84.48,1.63,1.21,1.63h.11a2,2,0,0,0,1.25-1c1.5,4.63,4.18,10.71,8.14,11.47a10,10,0,0,0,7.3-1.18l.28.64a.61.61,0,0,0-.24.21c-2.86,4-2.8,4.24-2.74,4.57l0,.06a14.77,14.77,0,0,0-5.44,3.88c-.48.49-.95,1-1.5,1.46s-1,.91-1.38,1.26h-14c-2.09-2.17-4-4.33-4.94-5.46a41.61,41.61,0,0,1-2.63-4.3c-1.75-3.09-2.87-5-3.73-5.57-1.26-.82-6.48-1.19-7.57-.83a1.32,1.32,0,0,0-.65.51l-.14-.39,2.26-.85a.38.38,0,0,0,.18-.15l.06,0v0a.5.5,0,0,0,.09-.36s0,0,0-.06,0,0,0,0L93.69,21.3a.52.52,0,0,0-.46-.34l-1.94-.09a.38.38,0,0,0-.18,0H91L86.8,22.5a.52.52,0,0,0-.3.67L93.21,41.1l.07.08a.61.61,0,0,0,.16.16s0,0,0,0a.45.45,0,0,0,.16,0l0,0,1.94.09h0a.58.58,0,0,0,.19,0l.33-.12.44,1.17a2,2,0,0,0-1.42-.1,2,2,0,0,0-1.25,2.62,2.57,2.57,0,0,0,1.48,1.68,1,1,0,0,0-.21.21,1.34,1.34,0,0,0-.12,1.17,1.65,1.65,0,0,0,.68.94c0,.06-.13.1-.18.17a1.38,1.38,0,0,0-.12,1.17,1.66,1.66,0,0,0,.85,1.05.9.9,0,0,0-.1.09,1.16,1.16,0,0,0-.09,1,1.71,1.71,0,0,0,1.83,1.08A8,8,0,0,0,99,53.56l.39,0a7.63,7.63,0,0,0,.82-.12c.06.08.1.18.19.22a5.47,5.47,0,0,0,3.95.37,3.79,3.79,0,0,1,.49-.09c.32.06,1.46,1,3,2.87H71.48c-.08,0-.13.06-.2.08L70.07,55.7a5.06,5.06,0,0,0,2.41-1.3,6.21,6.21,0,0,0,1.63-4.59c0-3.46-2.78-5.09-5.47-6.65s-5-2.92-5.52-5.84a.71.71,0,0,0-.82-.58.71.71,0,0,0-.58.83c.63,3.56,3.59,5.29,6.2,6.81s4.77,2.79,4.77,5.43a4.82,4.82,0,0,1-1.2,3.56A3.88,3.88,0,0,1,69,54.43h0c-.07,0-.12.06-.18.08a44.88,44.88,0,0,1-4.1-4.14,17,17,0,0,1-1.6-2.75c-.16-.35-.32-.67-.5-1A15.2,15.2,0,0,0,61.48,45a10.42,10.42,0,0,1-1-1.55l-.21-.39a4.56,4.56,0,0,0,1.41-1.79.52.52,0,0,0-.24-.69.51.51,0,0,0-.69.23c-.72,1.45-1.37,1.54-1.35,1.54h0a1.67,1.67,0,0,0-.71.14,1.13,1.13,0,0,0-.6.83v.09c-.36-.35-.7-.66-1-.95l.06,0c7.2-7.43,1.51-13.15,1.45-13.21a.71.71,0,0,0-1,0,.57.57,0,0,0-.11.27.67.67,0,0,0-.23.56c0,.08.7,7.88-1.23,11.07a.75.75,0,0,0-.06.39c-.66-.55-1.44-1.17-2.14-.56a1.19,1.19,0,0,0-.37.59,1.07,1.07,0,0,0-.77-.21,1,1,0,0,0-.76.52,1.3,1.3,0,0,0-.17,1.21,1.39,1.39,0,0,0-.75.48c-.62.72-.24,1.38.31,2a1.33,1.33,0,0,0-1,.69l0,.08a1.08,1.08,0,0,0-.36,0c.35-.73.53-1.47-.27-2a1.45,1.45,0,0,0-.86-.24,1.27,1.27,0,0,0-.51-1.11,1,1,0,0,0-.88-.29,1.13,1.13,0,0,0-.67.43,1.13,1.13,0,0,0-.53-.46c-.88-.41-1.49.52-2,1.26-.11.18-.23.35-.35.52l-.61.88a16.94,16.94,0,0,1-3.89-10.63,16.1,16.1,0,0,1,4.18-10.23,7.43,7.43,0,0,0,2.82,3.11,8.65,8.65,0,0,0,5.87,1c1.37-.13,2.45-.24,3.48.5a.71.71,0,0,0,1-.17.71.71,0,0,0-.16-1c-1.47-1.05-3-.9-4.45-.75a7.26,7.26,0,0,1-5-.83C43.47,24.1,44,19.76,44,19.58a.72.72,0,0,0-.62-.8.71.71,0,0,0-.79.61,9.76,9.76,0,0,0,.33,3.55,17.46,17.46,0,0,0-5,11.69,18,18,0,0,0,3.64,10.82,1,1,0,0,0-.6.17,1.82,1.82,0,0,0-.49,1.28A4.9,4.9,0,0,1,40.13,48a8.34,8.34,0,0,0-.46,1.41,4.36,4.36,0,0,1-.38,1c-2.61-1.82-5-3.69-5-12.32a.52.52,0,0,0-1,0,31.64,31.64,0,0,0,.32,4.84,16.75,16.75,0,0,1-2.24-7.7c0-7.77,3.41-13.39,9.58-15.83a.7.7,0,0,0,.4-.92.71.71,0,0,0-.92-.4c-6.66,2.63-10.48,8.88-10.48,17.15,0,3.76,1.56,6.76,2.81,9.18a9.91,9.91,0,0,1,1.44,3.72,4.6,4.6,0,0,1-.47,2.08V46.56a.71.71,0,0,0-.71-.71H28.52a.71.71,0,0,0-.71.71V56.78H21.64a.71.71,0,0,0-.71.71v4.78a.71.71,0,0,0,.71.71h6.17v7.44H21.64a.71.71,0,0,0-.71.72v4.77a.71.71,0,0,0,.71.72h6.17v7.44H21.64a.71.71,0,0,0-.71.71v4.78a.71.71,0,0,0,.71.71h6.17v7.45H21.64a.71.71,0,0,0-.71.71v4.78a.71.71,0,0,0,.71.71h6a27.7,27.7,0,0,0-6,7.17c-4.69,8.56-5.89,26.74-.7,30.53a12,12,0,0,0,6.83,2.63v7.87l0,.11s-.14.61-.28,1.38a.66.66,0,0,0-.34.18c-3.55,4.12-4.05,9.07-3.32,10.57a1.66,1.66,0,0,0,1.13.76,5.2,5.2,0,0,0,1.29.15,7.72,7.72,0,0,0,4.31-1.44,7.23,7.23,0,0,0,3-4.38,3.59,3.59,0,0,1,.76-1.63,9.23,9.23,0,0,1,.76-.56l.12-.08c-1.51,3.12-1.65,6.08-1.12,7.18a1.69,1.69,0,0,0,1.14.76,5.11,5.11,0,0,0,1.28.15,7.75,7.75,0,0,0,4.32-1.44,7.21,7.21,0,0,0,3-4.38,3.59,3.59,0,0,1,.77-1.63,6.75,6.75,0,0,1,.76-.56c1.18-.8,2.51-1.71,1.86-5.23A5.35,5.35,0,0,0,45,148.55c0-.31-.1-.61-.16-.92s-.11-.61-.16-.95c-.15-1-.23-1.85-.28-2.77l.48.1a15.49,15.49,0,0,0,3.21.49,4,4,0,0,0,3.51-1.88c2-2.84,2.08-8,2.17-12.51.07-3,.12-5.75.68-7.44a24.45,24.45,0,0,1,.88-2.36.68.68,0,0,0,.64.53h57.28A166.86,166.86,0,0,0,106.82,139a3.23,3.23,0,0,0-.06.81,63.79,63.79,0,0,1-3.5,6.68,2.39,2.39,0,0,0-1.65-.57h0c-1.44,0-1.72,1.14-1.86,1.76a11.62,11.62,0,0,1-1.61,2.63,1.17,1.17,0,0,0-.21.93,5.4,5.4,0,0,1-2.65,1.8c-.09,0-8.46,2.35-9,5.39a2.34,2.34,0,0,0-.85,1.49,2.29,2.29,0,0,0,.46,1.69,3,3,0,0,0,0,1.52c.27.68,1,.88,4.86.88l3,0,2.82,0h2.88c2.53,0,5.49,0,6.75,0s3.34-.07,3.58-1.74a6.08,6.08,0,0,0,0-1.3,1.86,1.86,0,0,0,.54-1.38,1.47,1.47,0,0,0-.47-1,10.75,10.75,0,0,0,.46-2.67,17.24,17.24,0,0,0-.29-3.2l-.08-.48a5.77,5.77,0,0,1,0-.79c.08-1.47.1-2.55-.41-3.07a.24.24,0,0,0-.08-.06c1.9-2.86,3.35-5.19,3.59-5.58.1-.07.25-.1.33-.18.9-.89,9-14.65,11.88-19.62.07.17.12.33.2.5,2.3,4.88,9.54,16.43,13.11,18.93a.61.61,0,0,0,.11.29,10.2,10.2,0,0,1,1.07,1.33,4.17,4.17,0,0,0-.73.13,1.85,1.85,0,0,0-1.19,2.29,11.43,11.43,0,0,1-.62,3,1.16,1.16,0,0,0,.11.94,5.48,5.48,0,0,1-1.89,2.59l-.66.41c-2.24,1.4-5.91,3.69-5.41,5.91a2.81,2.81,0,0,0-.33,1.86,2.28,2.28,0,0,0,1.14,1.47,1.93,1.93,0,0,0,.43,1.18,4.16,4.16,0,0,0,2.62.57,12.35,12.35,0,0,0,6.63-1.81c1.92-1.34,4.84-1.9,7-2.31a15.91,15.91,0,0,0,2.55-.6c1-.39,3.18-1.22,2.82-3a5.82,5.82,0,0,0-.39-1.25,1.88,1.88,0,0,0,0-1.48,1.45,1.45,0,0,0-.77-.75,10.41,10.41,0,0,0-.47-2.67,16.73,16.73,0,0,0-1.35-2.9l-.24-.43a7.84,7.84,0,0,1-.25-.77c-.42-1.4-.77-2.41-1.42-2.74a1,1,0,0,0-.79,0,2,2,0,0,0-.56.32,29.48,29.48,0,0,1-1.65-3.86,4.92,4.92,0,0,0-.18-1.72c-.21-.78-1-3-2-5.76-1.15-3.25-3-8.38-4-11.73h49.13v42.42a.71.71,0,0,0,.71.71h5.23a.71.71,0,0,0,.71-.71V120.84h4.76a.71.71,0,0,0,.71-.71v-9.4a.71.71,0,0,0-.71-.71H194v-6.1h4.76a.71.71,0,0,0,.71-.71V98.43a.71.71,0,0,0-.71-.71H194V90.27h4.76a.71.71,0,0,0,.71-.71V84.78a.71.71,0,0,0-.71-.71H194V76.63h4.76a.71.71,0,0,0,.71-.72V71.14a.71.71,0,0,0-.71-.72H194V63h4.76a.71.71,0,0,0,.71-.71V57.49a.71.71,0,0,0-.71-.71h-4.74c1-2.22,1.82-4.51,2.55-6.5.6-1.61,1.11-3,1.52-3.88,1-2.19,1.91-3.36,2.2-3.49a3,3,0,0,1,.5,0,5.48,5.48,0,0,0,3.76-1.28.7.7,0,0,0,.14-.27c.27,0,.55,0,.81-.07l.39,0c1.15-.15,2.46-.31,2.6-1.66a1.11,1.11,0,0,0-.31-1,1.29,1.29,0,0,0-.16-.09,1.61,1.61,0,0,0,.61-1.2,1.34,1.34,0,0,0-.39-1.11c-.07-.06-.16-.08-.23-.13a1.69,1.69,0,0,0,.46-1.07,1.34,1.34,0,0,0-.4-1.11,1.56,1.56,0,0,0-.28-.16A2.51,2.51,0,0,0,208.9,31.74Zm-60.85-7.92a2.21,2.21,0,0,1,1,.39,1.37,1.37,0,0,1,.48,1.14,5.13,5.13,0,0,1-.71,3.28,29.15,29.15,0,0,0-.94-3A2,2,0,0,1,148.05,23.82Zm6,24a2.68,2.68,0,0,0-2.11-.47,1.85,1.85,0,0,0-1.26,1.35,2.79,2.79,0,0,1-.24-1.71l.28-.74c.46-1.14.85-2.13.16-3.37,2.56-.08,3.68-.05,4.16,0A18.54,18.54,0,0,1,154.08,47.79Zm-10.63-1a5.32,5.32,0,0,0,3,2.93,2.07,2.07,0,0,1,.34.15c-1.12.16-1.72,1.31-2,2.07a8.64,8.64,0,0,1-3.42-2C141.69,49.29,142.59,48,143.45,46.75Zm63.55-16c.59,0,.69.53.66.94,0,.7-.43,1.15-.81,1.14s-.71-.53-.68-1.22S206.51,30.74,207,30.73Zm-1.46,7.32c-1.69.23-2.64,0-2.69-.34a.28.28,0,0,1,0-.23c.26-.32,1.32-.39,2-.44l.53,0,.3,0a10.44,10.44,0,0,1,1.09-.08,1.16,1.16,0,0,1,.71.14s0,.09,0,.19h0c0,.5-.28.62-1.57.78Zm-.16-2.31a9.85,9.85,0,0,1-2.18.09c-.7-.07-1-.25-1-.36a.18.18,0,0,1,0-.17c.33-.41,1.77-.52,2.46-.57l.78-.07a10.65,10.65,0,0,1,1.1-.08,1.24,1.24,0,0,1,.71.14.3.3,0,0,1,0,.19c0,.5-.28.62-1.57.78Zm.27-2.26-.27,0h-.1l.05-.43A2.08,2.08,0,0,0,205.65,33.48ZM205.07,31a2.33,2.33,0,0,0-.13.55c0,.09,0,.17,0,.26l-.22,1.78h-.12l-.29,0,.38-3.12.23-1.91.4.05Zm2.62-3.88-3.52-.43,2.18-18,3.52.43Zm-3.18-18,.78-.23-2.17,17.89-.78.23Zm-15.7,38.23h1.06c-.38.76-.73,1.47-1.06,2.11Zm-12.44,8.58c1.74-2.27,2.26-2.44,2.86-2.44.06,0,.07,0,.12,0a2.65,2.65,0,0,1,.43.62c0,.25-.29.45-.74.8a5,5,0,0,0-2,2.44,8.8,8.8,0,0,0-.41,2.8,3.48,3.48,0,0,1-.14,1.1l-.22,0v.31c-.06,0-.11.06-.17,0a1.54,1.54,0,0,1-.73-.45,4.45,4.45,0,0,0,0-1A6,6,0,0,1,176.37,55.86ZM174.06,63H177s0,0,.06,0a13.93,13.93,0,0,0,8.21,3.28l.37,0a4.3,4.3,0,0,0,1.75-.4v4.57H175.86l-.12-.66C175.14,66.81,174.56,64.59,174.06,63Zm2.38,21.09a66.74,66.74,0,0,0,.09-7.44h10.86v7.44Zm-.22,13.65a36.69,36.69,0,0,0-.89-7.45h12.06v7.45ZM171.1,110a12.08,12.08,0,0,0,2.81-3,13.35,13.35,0,0,0,1.44-3.1h12V110Zm-52.63,0H71.15a16,16,0,0,0,1.65-6.1h50.09A30.67,30.67,0,0,0,118.47,110Zm6-7.46c-.06,0-.1-.06-.16-.06H72.87a30,30,0,0,0-.14-3.36h57.6A42.32,42.32,0,0,0,124.5,102.56Zm8.77-4.83H72.56c0-.26,0-.51-.09-.77a22.46,22.46,0,0,0-2.24-6.68h76.23a1.84,1.84,0,0,0,.75,1.75C144.56,93,138.7,95.22,133.27,97.73Zm13.92-10c-.16.39-.29.76-.41,1.11H69.41a25.37,25.37,0,0,0-2.54-3.35H148A23.22,23.22,0,0,1,147.19,87.74Zm1.1-3.67H65.59s0,0,0,0l-.24-.25a15.34,15.34,0,0,1-1.47-1.64c-1-1.34-1.19-3.67-1.22-5.57h83.83a13.84,13.84,0,0,1,1.73,3.82A9.7,9.7,0,0,1,148.29,84.07ZM64.91,66.16a26.9,26.9,0,0,0,5.47,1.76,8.46,8.46,0,0,0,2.07.28,3.72,3.72,0,0,0,3.37-1.58A4.52,4.52,0,0,0,76.06,63h36.08a45.76,45.76,0,0,0,6.2,7.44H63.73A25.61,25.61,0,0,0,64.91,66.16Zm-2.17,7.76a10.06,10.06,0,0,1,.52-2.07H120l.06,0a7.91,7.91,0,0,0,4.41,1.65,5.35,5.35,0,0,0,.89-.08,20.37,20.37,0,0,0,5.15-1.55H143c.87,1,1.77,2.17,2.59,3.35H62.66C62.68,74.67,62.71,74.22,62.74,73.92Zm76.73-5.28.18-.16a16.46,16.46,0,0,1,2,1.94h-4.39A12.1,12.1,0,0,0,139.47,68.64ZM132.57,64l.24.34a10.89,10.89,0,0,1,1.34,3.46,15.35,15.35,0,0,0,.44,1.5c-.37.25-.57.29-.67.27s-.46-.39-.75-1.2-.45-1.39-.54-1.7a7.82,7.82,0,0,0-.6-1.57,8.26,8.26,0,0,0-1.38-1.89c-.58-.65-1.17-1.31-1.1-1.79a1.32,1.32,0,0,1,.84-1A15.9,15.9,0,0,0,132.57,64Zm-2.31-5a2.81,2.81,0,0,0-2.12,2.25,1.13,1.13,0,0,0,0,.32h-5.7c-1-.87-2.29-2.07-3.57-3.35h11.57A3.07,3.07,0,0,0,130.26,59Zm-5.37,4-.22,0-.1,0ZM98.67,50.41l-.4,0c-1.28.15-1.56.08-1.71-.39a.25.25,0,0,1,0-.19c.19-.29,1.24-.42,1.75-.49l.28,0,.53-.08a8.68,8.68,0,0,1,1.39-.16,1.09,1.09,0,0,1,.61.12s.08.06.1.21C101.24,49.77,100.36,50.23,98.67,50.41Zm-.39-2.29-.4.05c-1.28.15-1.55.08-1.7-.39,0-.1,0-.16,0-.19.18-.29,1.24-.43,1.75-.49l.77-.12a11.82,11.82,0,0,1,1.73-.18,1.45,1.45,0,0,1,.8.16.19.19,0,0,1,.07.15C101.32,47.4,100.27,47.92,98.28,48.12Zm.88-9.27-.81,0L96.18,33,92,21.94l.81,0ZM91,22.05l3.18,8.48L97.32,39l-1.66.62L94,40.25l-6.35-17Zm6.05,19,1.78,4.74-.29.05h-.12l-.63-1.68a2.34,2.34,0,0,0,0-.26,2.23,2.23,0,0,0-.24-.49l-.84-2.23Zm-1.48,2.58a.93.93,0,0,1,.25,0,.66.66,0,0,1,.32.08,1,1,0,0,1,.43.6c.2.67,0,1.25-.37,1.35s-.85-.25-1.06-.92C95,44.31,95,43.81,95.53,43.63Zm2.17,1.88.15.42h-.08l-.3.05A1.93,1.93,0,0,0,97.7,45.51Zm1.61,6.86-.41,0c-1.18.13-1.56.11-1.69-.24h0c.16-.24,1.34-.39,1.78-.45l.29,0,.5-.08a8.38,8.38,0,0,1,1-.11.67.67,0,0,1,.36.07s0,.1,0,.14,0,.19-.35.34A5.8,5.8,0,0,1,99.31,52.37Zm5.65.11a2.69,2.69,0,0,0-.9.12,4.22,4.22,0,0,1-2.1.07,1.38,1.38,0,0,0,.39-1.07,1.3,1.3,0,0,0-.5-1l-.07,0a1.44,1.44,0,0,0,.58-1.29,1.42,1.42,0,0,0-.54-1l0,0a1.39,1.39,0,0,0,.67-1.28,1.32,1.32,0,0,0-.53-1,3.24,3.24,0,0,0-2.23-.36l-.52-1.38a2.15,2.15,0,0,0,.37.19l.28.07a12.7,12.7,0,0,1,2.75.95l.07.27c.3,1.22,1.1,4.45,3.23,5.28a.71.71,0,1,0,.51-1.32c-1.44-.56-2.13-3.37-2.36-4.3l-.08-.31c-.24-.86-1.45-1.33-3.75-1.94l-.28-.08a1.21,1.21,0,0,1-.64-.63,4.76,4.76,0,0,1-.18-.51c.79-.26,5.54.15,6.34.67.63.41,2.15,3.11,3.26,5.08a40.24,40.24,0,0,0,2.76,4.49c.07.1,6.15,7.21,10.25,10.53l.06,0a6.28,6.28,0,0,0,2.93,1.64h.06A9,9,0,0,0,128.6,63h0a11.61,11.61,0,0,0,1,1.2,6.62,6.62,0,0,1,1.16,1.54,6.27,6.27,0,0,1,.52,1.34c.09.33.21.78.57,1.8,0,.15.11.26.16.39-.59.6-2.6,2-6.86,2.75-4.64.78-10.38-7.66-13.79-12.73-1-1.4-1.76-2.61-2.4-3.39C107.72,54.36,106.05,52.54,105,52.48Zm5.2,7.59,1,1.48H75.56s0,0-.08,0a7.25,7.25,0,0,0-.64-1c-.55-.68-1.33-1.5-2.2-2.37h36.25ZM58.34,38.34A31.88,31.88,0,0,0,58.71,32,6.92,6.92,0,0,1,58.34,38.34ZM51.4,46.55c.25,0,.82.18,1.58.92a16.39,16.39,0,0,0,2.7,2,.52.52,0,0,0,.7-.16.51.51,0,0,0-.14-.7A25.11,25.11,0,0,1,53.14,46c-.25-.28-.5-.52-.72-.75-.79-.78-.82-.9-.71-1s.16-.15.2-.15h0c.16,0,.49.3.72.5l.18.17,3.56,3.06a.51.51,0,0,0,.72,0,.53.53,0,0,0,0-.73L53.5,43.73c-1-.93-.89-1.13-.8-1.37a5,5,0,0,1,1,.89l.66.62.11.11,0,0c1.29,1.2,2.66,2.37,2.68,2.38a.51.51,0,0,0,.67-.78s-1.47-1.28-2.64-2.36l-.14-.12s0,0,0,0c-.69-.66-.74-1.08-.74-1.2a.32.32,0,0,1,0-.17c.17,0,.64.4.93.65l.52.43a24.52,24.52,0,0,1,1.85,1.69l1,1c.51.54,1.52,2,1.53,2a.52.52,0,0,0,.7.15.51.51,0,0,0,.19-.68,9.43,9.43,0,0,0-1.69-2.24,1.65,1.65,0,0,1-.4-1.37l.15-.07a3.6,3.6,0,0,1,.26.52,11.84,11.84,0,0,0,1.16,1.74,15.94,15.94,0,0,1,1.06,1.52c.17.3.31.61.47.94A18.53,18.53,0,0,0,63.86,51a46.66,46.66,0,0,0,4.42,4.46l.19.18,0,0A72.63,72.63,0,0,1,74,61.22c1.27,1.56,1.66,3.64.9,4.85s-2.2,1.36-4.32.85A23.68,23.68,0,0,1,65,65.07c0-.13,0-.26,0-.39a9.38,9.38,0,0,0-.15-2,4.16,4.16,0,0,1,1.51-1.52,28.61,28.61,0,0,0,3,3.59.51.51,0,0,0,.73,0,.52.52,0,0,0,0-.73,59,59,0,0,1-5.26-6.67c-.54-.75-1-1.38-1.3-1.77a5.83,5.83,0,0,0-3-2.14L59.51,53a12.87,12.87,0,0,1-2.64-1.67c-.52-.4-1.1-.84-1.84-1.33-.51-.34-1-.65-1.34-.94l0,0a8.64,8.64,0,0,1-2.48-2.29A.29.29,0,0,1,51.4,46.55Zm4.08,10h0s-.12,0-.36,0a2.26,2.26,0,0,0-1.62,0,2.41,2.41,0,0,0-1,.86l0,.06a1.51,1.51,0,0,0-1.4-.3,1.78,1.78,0,0,0-1.21.71,1.42,1.42,0,0,0-1.17-.35l-.08,0a3.77,3.77,0,0,0,.51-.54,4.13,4.13,0,0,0-.33-5.38,14.5,14.5,0,0,0,2.24-3.45,15.23,15.23,0,0,0,1.85,1.58c.13.69.56,2.94.76,3.78a.53.53,0,0,0,.51.39h.12a.47.47,0,0,0,.26-.2,3.2,3.2,0,0,0,.91,1.06,2.72,2.72,0,0,0,.82.4,1.53,1.53,0,0,0-.82,1.24C55.47,56.47,55.45,56.54,55.48,56.54Zm-7.32-4.09a3.07,3.07,0,0,1,.18,3.91,1.75,1.75,0,0,1-1.36.8,2.89,2.89,0,0,1-.73-.18,1.54,1.54,0,0,0,.7-.24,1.28,1.28,0,0,0,.53-1.1,2.24,2.24,0,0,0-.59-1.53l.19-.26C47.36,53.47,47.71,53,48.16,52.45Zm-1.93,2.49a1.26,1.26,0,0,1,.22.7c0,.18-.06.23-.09.24a1.64,1.64,0,0,1-1.06,0A10.16,10.16,0,0,0,46.23,54.94Zm-1.08,2.59c-.13,0-.31.09-.31.12A4.52,4.52,0,0,1,44.5,57,6.42,6.42,0,0,0,45.15,57.53Zm11.1-5.41.2.16a2.7,2.7,0,0,0,1.34,1.63,1.74,1.74,0,0,0,.48.14,2.41,2.41,0,0,1-2.2-.11A3.39,3.39,0,0,1,55,51.68ZM40.68,49.65a6.78,6.78,0,0,1,.41-1.25,5.54,5.54,0,0,0,.4-1.36,3.63,3.63,0,0,0,0-.57h.19a1.73,1.73,0,0,1-.15,1.34,16.54,16.54,0,0,0-.91,1.89A.09.09,0,0,1,40.68,49.65ZM40.14,51v0a.51.51,0,0,0,.29.66.52.52,0,0,0,.67-.27s1-2.43,1.4-3.13c.29-.49.65-1.06,1-1.62,0,0,0,0,.06,0s0-.11.06-.16c.37-.55.74-1.08,1-1.51.13-.18.25-.38.38-.57a3.62,3.62,0,0,1,.68-.88.2.2,0,0,1,.11.15c0,.12.12.57-.43,1.48-.82,1.38-1.89,3.07-1.89,3.07a.51.51,0,0,0,.15.71.52.52,0,0,0,.72-.15s1.06-1.64,2-3.21l.46-.81c.26-.47.58-1.06.73-1.08.16.14.34.3-.37,1.48l-2.46,4.19a.52.52,0,0,0,.88.54l2.54-4,.13-.21c.15-.27.4-.66.54-.69a.41.41,0,0,1,.23.08c.15.1.15.22-.38,1.2-.15.28-.32.58-.48.92A24.62,24.62,0,0,1,46,50.66a.53.53,0,0,0,.08.71.51.51,0,0,0,.71,0,17,17,0,0,0,2-2.71c.53-.92,1-1.29,1.26-1.33a.31.31,0,0,1,.21,0c.08.31-.6,1.75-2.7,4.28-.57.67-1,1.18-1.27,1.63a10,10,0,0,1-1.82,2l-.42.36a9.8,9.8,0,0,0-3.11,3.76,46.44,46.44,0,0,0-1.68,5.14,44.31,44.31,0,0,1-2.31,6.65.65.65,0,0,0-.09.16A6.11,6.11,0,0,1,34,74.49a2.19,2.19,0,0,1-2.28-.25c-1.37-1-2.21-3.48-2.51-6V63.92c0-.07,0-.15,0-.22,0-.27,0-.51.05-.73a12.49,12.49,0,0,0,3.84.6l.42,0a35.26,35.26,0,0,0-2,3.88.52.52,0,0,0,.28.67.52.52,0,0,0,.68-.28,52.51,52.51,0,0,1,3.33-6.13,32,32,0,0,0,2.44-4.5c.67-2,1.19-3.89,1.21-4A5.32,5.32,0,0,1,40.14,51Zm-1.63,25.6c.12.46.22.91.29,1.33a15.28,15.28,0,0,0,2,6.11h-6.3V76.63ZM34.83,75.2a6.56,6.56,0,0,0,2.39-2.43c.25.63.57,1.49.87,2.43ZM33.76,52.74a.52.52,0,0,0,.49-.44,1.08,1.08,0,0,1,.52-.7.9.9,0,0,1,.75,0,.62.62,0,0,1,.32.22c0,.11,0,.21.08.32.11.47.26,1.1.88,1.28a2.31,2.31,0,0,0,.6.06c.69,0,.81.09.84.27,0,0,0,0,0,0-.21.73-.56,1.89-1,3.09A33.73,33.73,0,0,1,35,61.16c-.26.42-.52.86-.78,1.31-1.67.22-4.56-.16-5.47-.93-.06,0-.19-.16-.19-.26,0-.45.08-.52.18-.62a1.23,1.23,0,0,0,.4-.83c0-.11,0-.28,0-.49,0-1.14.09-3.8,1.67-5A6.74,6.74,0,0,1,33.76,52.74Zm4.77-1.63.34.24a5.71,5.71,0,0,0-.33,1.27,2.92,2.92,0,0,0-1.12-.21H37.1a1.39,1.39,0,0,1-.16-.48l1.57-.78Zm-.93-.68L36.5,51a1.86,1.86,0,0,0-.61-.38,2.09,2.09,0,0,0-.78-.12,6.43,6.43,0,0,0,.44-2.11A9.77,9.77,0,0,0,37.6,50.43Zm-5.36-3.15v4.89a11.66,11.66,0,0,0-2.08,1.32,4.14,4.14,0,0,0-.93,1V47.28ZM22.35,58.2h5.79c0,.44,0,.83-.05,1.12s0,.33,0,.42,0,.09-.09.18a1.64,1.64,0,0,0-.48,1.36.94.94,0,0,0,.06.27H22.35Zm0,13.65H29a6.82,6.82,0,0,0,2.14,3.22,1.83,1.83,0,0,0,.24.13h-9Zm6.88,4.78H33v7.44h-3.8ZM22.35,85.5H42s.05,0,.08,0a3.58,3.58,0,0,0,.29.26,11.1,11.1,0,0,0,2,1.15c0,.06,0,.11,0,.16a3.78,3.78,0,0,1-.57,1.82H22.35ZM35.44,97.78s-.09-.06-.15-.06h-.83V90.27H43a27.17,27.17,0,0,1-1.68,2.37A33.34,33.34,0,0,1,35.44,97.78Zm-6.21-7.51H33v7.45h-3.8Zm-.35,12.23H22.35V99.14H33.62c-1.47,1.1-3,2.25-4.46,3.47A.69.69,0,0,0,28.88,102.5Zm3.83,41.27c.06,1.09.14,2.14.28,3.12.06.36.12.69.18,1a4.43,4.43,0,0,1-.49,3.75,20.31,20.31,0,0,1-4,4.84,23.49,23.49,0,0,1,.52-3.9c.34-1.36.66-2.45.69-2.63a35.88,35.88,0,0,0-.1-5.75c.89-.09,1.79-.24,2.75-.4Zm1.58,12.31a10.9,10.9,0,0,0-.89.67A4.56,4.56,0,0,0,32.21,159a5.79,5.79,0,0,1-2.43,3.62c-2.44,1.63-4.43,1.22-4.66,1.1-.36-.74-.25-4.2,2.1-7.69,0,1.11.1,2.08.68,2.25l.16,0c1.37,0,4.58-3.82,5.84-6a5.76,5.76,0,0,0,.75-1.94,3.89,3.89,0,0,1,.9,1.88C36,154.9,35.34,155.37,34.29,156.08ZM37,152a5.35,5.35,0,0,0-2.23-3.48c0-.31-.09-.61-.15-.92s-.08-.42-.11-.64V143.5a27.81,27.81,0,0,1,4-.32h0a37.63,37.63,0,0,1,.25,6.53s-.33,1.12-.68,2.52c0,0-.14.61-.28,1.38a.74.74,0,0,0-.35.18c-.11.13-.2.27-.31.41A8.24,8.24,0,0,0,37,152Zm8.86.26c.48,2.61-.21,3.08-1.26,3.79a11,11,0,0,0-.9.67A4.55,4.55,0,0,0,42.47,159,5.79,5.79,0,0,1,40,162.65a5.72,5.72,0,0,1-4.67,1.1c-.35-.74-.25-4.21,2.11-7.7,0,1.12.1,2.09.67,2.26l.17,0c1.36,0,4.58-3.82,5.84-6a6.22,6.22,0,0,0,.75-1.94A4,4,0,0,1,45.81,152.29Zm-2.56-5.4c0,.36.12.69.18,1a4.43,4.43,0,0,1-.5,3.75,20.56,20.56,0,0,1-4,4.84,24.59,24.59,0,0,1,.51-3.9c.35-1.36.67-2.45.7-2.63a38.21,38.21,0,0,0-.21-6.71,25.73,25.73,0,0,1,3.09.39c0,.05,0,.08,0,.12A27.45,27.45,0,0,0,43.25,146.89Zm9.82-24.66c-.62,1.89-.68,4.79-.74,7.86-.09,4.32-.19,9.23-1.92,11.71-1.15,1.65-2.37,1.46-5.24.82a29.89,29.89,0,0,0-6.72-.87,34.82,34.82,0,0,0-6.19.65c-3.67.62-6.31,1.08-10.44-1.93s-3.53-20.22,1.1-28.7c2.68-4.88,7.79-8.69,12.3-12,3-2.26,5.65-4.21,7.22-6.22,2.56-3.27,3.23-5.1,3.33-6.1a12.37,12.37,0,0,0,3.52.49,19.17,19.17,0,0,0,2.32-.15c3.9-.5,10.11-3.25,10.37-3.37a.71.71,0,1,0-.58-1.3c-.06,0-6.28,2.79-10,3.26-3.43.43-6-.12-8.26-1.77-2.09-1.52-2.58-4.47-3-6.84a36,36,0,0,0-2.07-6.49s-.06,0-.08-.08a48.43,48.43,0,0,0,2.15-6.36,44.77,44.77,0,0,1,1.64-5,7,7,0,0,1,1.71-2.37,5.19,5.19,0,0,0,.42.81c.4.58,1.05.4,1.48.28a1.63,1.63,0,0,1,1.34.17,4.79,4.79,0,0,0,.56.26,1.05,1.05,0,0,0,1-.22.6.6,0,0,1,.36-.17c.33,0,.38,0,.42.1a.75.75,0,0,0,.58.35h.06a1.06,1.06,0,0,0,.88-.49.73.73,0,0,1,.55-.33c.44-.06.49,0,.62.11a2.09,2.09,0,0,0,.22.2.79.79,0,0,0,.5.14c.34-.05.55-.32.78-.61a1.61,1.61,0,0,1,.52-.52,1.3,1.3,0,0,1,1,0A1.43,1.43,0,0,0,56,57.43a1.09,1.09,0,0,0,.48-.87c0-.28.07-.39.28-.5a.69.69,0,0,1,.63,0,.88.88,0,0,0,.94-.07,2.2,2.2,0,0,0,.53-.8,1.7,1.7,0,0,1,.47-.7.86.86,0,0,1,.8-.14h0a4.91,4.91,0,0,1,2.59,1.8c.3.39.75,1,1.28,1.76l1.73,2.37a4.56,4.56,0,0,0-1.15,1A16.12,16.12,0,0,0,63,57.46a.71.71,0,1,0-1.2.76,13.16,13.16,0,0,1,1.84,6.4,20.8,20.8,0,0,1-1.37,5.63,16.38,16.38,0,0,0-1,3.55c-.17,1.94-.39,6.73,1.37,9.22a15.71,15.71,0,0,0,1.61,1.81,21.88,21.88,0,0,1,6.76,12.36c1.41,8.17-.86,14.81-5.4,15.78l-2.28.46C57.93,114.49,55.44,115,53.07,122.23ZM56,119.42a.56.56,0,0,0-.26.11c1.7-3.43,3.7-3.88,8-4.71l2.3-.46a7.37,7.37,0,0,0,4.42-3.08.69.69,0,0,0,.42.17h46.87c-1.34,2.47-2.64,5.2-3.83,8Zm52,28.85a2.64,2.64,0,0,0-1,2.26,1.31,1.31,0,0,1-.53.83A2.67,2.67,0,0,1,105,152a3.06,3.06,0,0,1-2.54-1.74l.06-.08s.1-.06.13-.12a69.39,69.39,0,0,0,4.81-8.45,3.89,3.89,0,0,0,1,.81,6.13,6.13,0,0,0,2.66.67c-.71,1.13-1.86,2.93-3.2,4.93C107.9,148.08,107.92,148.18,107.9,148.27Zm-6.8-.3c.15-.62.2-.67.45-.67h0c.62,0,.76.16.76.16a.93.93,0,0,1-.12.53,7.26,7.26,0,0,1-.51.89h0a11.23,11.23,0,0,1-1.4,1.66,2.76,2.76,0,0,1-.93.38A11.26,11.26,0,0,0,101.1,148Zm7.72,11.89a.7.7,0,0,0-.47.81,4.42,4.42,0,0,1,0,1.3c0,.23-.32.48-2.2.52-1.26,0-4.2,0-6.71,0H96.54l-2.84,0a49.51,49.51,0,0,1-6.49-.14,5.89,5.89,0,0,1,.11-.74c.08-.4.17-.87-.24-1.16a.61.61,0,0,0-.23-.11,1.57,1.57,0,0,1,0-.38c0-.17.29-.48.53-.65a.72.72,0,0,0,.3-.63c-.09-1.3,5.25-3.7,7.9-4.33a6.65,6.65,0,0,0,3.28-2.1,1.58,1.58,0,0,0,.44.11,1.74,1.74,0,0,0,.39,0,4.17,4.17,0,0,0,1.56-.69l0,0,.25-.25a4.54,4.54,0,0,0,3.36,2,3.55,3.55,0,0,0,2.42-.95,2.65,2.65,0,0,0,1-1.84,2.05,2.05,0,0,1,.25-1,14.2,14.2,0,0,1,0,1.74,9.64,9.64,0,0,0,0,1.06c0,.14,0,.31.08.52a14.61,14.61,0,0,1,.28,2.93,9.85,9.85,0,0,1-.53,2.69.7.7,0,0,0,.25.82c.12.1.28.26.28.17A.59.59,0,0,1,108.82,159.86Zm3.59-18.38a4.08,4.08,0,0,1-3.27-.35,1.58,1.58,0,0,1-.94-1.86c.72-3.21,9.2-29.22,16.59-35.16,5.39-4.33,21.79-10.35,24.06-11.18a19.4,19.4,0,0,0,4.63,1c-6.23,2.46-20.55,8.32-24.79,11.81-4.78,3.93-6.17,9.36-4.07,15.44C120.21,128.74,113.13,140.71,112.41,141.48Zm33,4.39a4.24,4.24,0,0,0,.17.76,1.36,1.36,0,0,1-.22,1,2.32,2.32,0,0,1-1.07,1,3.07,3.07,0,0,1-3-.77,8.51,8.51,0,0,0,.41-1.92,2.29,2.29,0,0,0-.22-1.22.75.75,0,0,0,0-.57,9,9,0,0,0-.87-1.4,4.64,4.64,0,0,0,2.81-.95A34.59,34.59,0,0,0,145.44,145.87Zm-6.17.32c-.07-.69,0-.7.25-.8a2.1,2.1,0,0,1,.61-.13.33.33,0,0,1,.16,0s.09.15.06.54a9.26,9.26,0,0,1-.93,3,2.76,2.76,0,0,1-.75.67A11.16,11.16,0,0,0,139.27,146.19Zm7.58-1a15.25,15.25,0,0,1,.57,1.63,7.66,7.66,0,0,0,.35,1c.06.12.15.28.26.47a14.91,14.91,0,0,1,1.24,2.66,9.3,9.3,0,0,1,.41,2.7.73.73,0,0,0,.52.7c.13,0,.33.12.32,0,.1.27,0,.38,0,.38h0a.72.72,0,0,0-.17.93,4.53,4.53,0,0,1,.43,1.22c.08.37-.58.82-1.94,1.35a17.69,17.69,0,0,1-2.3.53c-2.26.43-5.34,1-7.51,2.54a11.82,11.82,0,0,1-7.36,1.47.67.67,0,0,1-.09-.45c0-.23,0-.94-.73-1.06a.78.78,0,0,1-.46-.59,2.1,2.1,0,0,1,.34-1,.71.71,0,0,0,0-.65c-.52-1.2,3.44-3.67,4.74-4.48l.69-.43A6.71,6.71,0,0,0,138.6,151a1.56,1.56,0,0,0,.81-.25,4,4,0,0,0,1.24-1.19l0,0s.07-.13.16-.32a4.54,4.54,0,0,0,3.84.78,3.61,3.61,0,0,0,2-1.71,2.66,2.66,0,0,0,.34-2.08A2,2,0,0,1,146.85,145.16Zm-4-6.47a2.23,2.23,0,0,1-.08,1.91c-.39.52-1.39.78-3,.78-1.73-.25-9.74-11.74-13-18.62-3-6.41-2-11.91,2.82-15.91s25.63-12.08,27.17-12.67c.66,0,1.32,0,1.94,0s1.18,0,1.71,0c5.17-.18,10.85-1.25,13.64-3,1.31,6.56.88,11.63-1.35,15-2.52,3.89-7,5.17-10.14,5.8-2.74.55-7.07,1.23-11.26,1.88-12,1.88-14.49,2.4-15,3.09s0,3.06,4.58,16C141.81,135.68,142.61,138,142.8,138.69Zm49.81,23.86h-3.8V120.84h3.8Zm5.47-43.13H137.85a10.18,10.18,0,0,1-.33-1.55c1.41-.57,8.37-1.66,14-2.54,4.2-.66,8.55-1.34,11.32-1.9a23.2,23.2,0,0,0,6-2h29.21Zm-5.47-9.4h-3.8v-6.1h3.8Zm5.47-7.52H175.73a20.35,20.35,0,0,0,.45-3.36h21.9Zm-5.47-4.78h-3.8V90.27h3.8Zm5.47-8.87H175.85a30.72,30.72,0,0,0,.48-3.35h21.75Zm-5.47-4.78h-3.8V76.63h3.8Zm5.47-8.87H176.44c-.08-1.12-.19-2.25-.35-3.35h22Zm-5.47-4.78h-3.8V64.93a11.48,11.48,0,0,0,1.83-2h2Zm5.47-8.87H191.6a33,33,0,0,0,1.81-3.35h4.67Zm2.74-20.09a2.93,2.93,0,0,0-.91.09c-1,.31-2.24,2.48-3.06,4.24-.44.93-1,2.35-1.57,4-2.13,5.76-5.73,15.39-9.88,15-4.41-.41-6.87-2.34-7.57-3.08a4.9,4.9,0,0,0,.24-1.66,7.37,7.37,0,0,1,.34-2.35,3.68,3.68,0,0,1,1.48-1.79c.18-.13.36-.28.54-.43.72.83,2.17,2.24,3.78,2.24a2.5,2.5,0,0,0,.47,0c1.13-.2,2.95-2.07,8.57-14.24l.3-.64a40.85,40.85,0,0,0,1.62-5c.62-2.18,1.46-5.16,2-5.71s5.06-2.18,5.91-2.18h0a.84.84,0,0,1,0,.57,1.21,1.21,0,0,1-.47.77l-.27.15c-2.12,1.16-3.14,1.87-3.17,2.75v.34c0,1,0,3.84-1.28,4.72a.72.72,0,0,0-.18,1,.71.71,0,0,0,1,.18c1.87-1.31,1.89-4.63,1.9-5.88l0-.21A9.68,9.68,0,0,1,203,32.66l.28-.16a1.53,1.53,0,0,0,.31-.26l-.18,1.46a3.29,3.29,0,0,0-2.09.87,1.34,1.34,0,0,0-.28,1.06,1.39,1.39,0,0,0,1,1.09l0,0a1.4,1.4,0,0,0-.29,1.12,1.48,1.48,0,0,0,.88,1.1l-.07.07a1.29,1.29,0,0,0-.26,1,1.33,1.33,0,0,0,.52.9s.08,0,.11.05A4.28,4.28,0,0,1,200.82,41.46Zm6.56-2c0,.37-.42.47-1.6.62l-.4.06c-1.27.18-1.74.07-2-.19a.37.37,0,0,1,0-.15c.16-.19.91-.25,1.36-.29l.5,0,.29,0c.29,0,.88-.1,1.32-.1a1,1,0,0,1,.5.08Z"/><path class="cls-14" d="M97.24,160H89.15a.52.52,0,1,0,0,1h8.09a.52.52,0,1,0,0-1Z"/><path class="cls-14" d="M101.42,160h-1.27a.52.52,0,1,0,0,1h1.27a.52.52,0,1,0,0-1Z"/><path class="cls-14" d="M107,160h-2.91a.52.52,0,0,0,0,1H107a.52.52,0,1,0,0-1Z"/><path class="cls-14" d="M139.63,158.79s-4.26,2.1-6.9,1.8a.48.48,0,0,0-.57.45.51.51,0,0,0,.45.57,4.92,4.92,0,0,0,.67,0c2.9,0,6.64-1.85,6.81-1.94a.51.51,0,0,0,.23-.69A.5.5,0,0,0,139.63,158.79Z"/><path class="cls-14" d="M143.63,157.38l-1.2.43a.52.52,0,0,0-.31.66.53.53,0,0,0,.49.34.51.51,0,0,0,.17,0l1.2-.43a.52.52,0,1,0-.35-1Z"/><path class="cls-14" d="M145.83,157.1a.5.5,0,0,0,.48.35.57.57,0,0,0,.18,0l2.74-1a.52.52,0,0,0,.31-.67.51.51,0,0,0-.66-.31l-2.74,1A.52.52,0,0,0,145.83,157.1Z"/><path class="cls-14" d="M55.52,31.49a.4.4,0,0,0-.42-.34.39.39,0,0,0-.35.42.81.81,0,0,1-.19.51.9.9,0,0,0-.47-.17A1.07,1.07,0,1,0,55,33a.93.93,0,0,0-.05-.24A1.71,1.71,0,0,0,55.52,31.49Z"/><path class="cls-14" d="M42.38,18.36a.55.55,0,0,0,.28-.07l.45-.2a.69.69,0,0,0,.35-.92.68.68,0,0,0-.92-.34l-.45.19a.69.69,0,0,0-.34.92A.68.68,0,0,0,42.38,18.36Z"/><path class="cls-14" d="M44.8,17.37c.06,0,6.65-2.53,11.44,2.2a.69.69,0,0,0,.5.21.7.7,0,0,0,.5-.21.71.71,0,0,0,0-1c-5.43-5.37-12.65-2.63-13-2.51a.71.71,0,0,0-.4.92A.7.7,0,0,0,44.8,17.37Z"/><path class="cls-14" d="M59,22.83a.71.71,0,1,0,1.18-.8,5.42,5.42,0,0,0-.94-1.14.7.7,0,0,0-1,.11.71.71,0,0,0,.08,1A6.11,6.11,0,0,1,59,22.83Z"/><path class="cls-14" d="M61.74,34.45a.7.7,0,0,0,.49.87.63.63,0,0,0,.19,0,.71.71,0,0,0,.68-.52c1.83-6.52-1.26-10-1.39-10.19a.71.71,0,1,0-1.06.95C60.76,25.71,63.33,28.73,61.74,34.45Z"/><path class="cls-14" d="M51.45,38a.71.71,0,0,0-.57.81.72.72,0,0,0,.71.6h.11a1.81,1.81,0,0,0,1.43-1.92,2.88,2.88,0,0,0-.82-1.81,4.46,4.46,0,0,1-.9-1.55.71.71,0,0,0-.89-.46.7.7,0,0,0-.46.89,5.69,5.69,0,0,0,1.14,2c.34.42.5.64.5.95S51.57,38,51.45,38Z"/><path class="cls-14" d="M68.77,51.8A.56.56,0,0,0,69,52.86a.54.54,0,0,0,.25-.06A3.59,3.59,0,0,0,71,49.47a4.24,4.24,0,0,0-1.14-2.85.55.55,0,0,0-.79,0,.56.56,0,0,0,0,.79,3.19,3.19,0,0,1,.8,2.06A2.54,2.54,0,0,1,68.77,51.8Z"/><path class="cls-14" d="M66.72,50.12a.57.57,0,0,0-.24.76.55.55,0,0,0,.5.3.57.57,0,0,0,.25-.06,2.5,2.5,0,0,0,1.2-2.32,3,3,0,0,0-.79-2,.56.56,0,0,0-.79.79,1.87,1.87,0,0,1,.45,1.18A1.44,1.44,0,0,1,66.72,50.12Z"/><path class="cls-14" d="M37.63,32.54a2.34,2.34,0,0,0-1.36-1.47,1.66,1.66,0,0,0-1.59.21A3.09,3.09,0,0,0,33.52,34a5.29,5.29,0,0,0,1.4,3.56c.54.63,1.1,1.18,1.7,1.18A.87.87,0,0,0,37,38.7c.83-.34.75-1.44.67-2.51l0-.19c-.07-1,0-3.22,0-3.25A.5.5,0,0,0,37.63,32.54ZM36,36.66s0,0-.05,0a3.9,3.9,0,0,1-1-2.57c0-1.13.41-1.5.54-1.58a.37.37,0,0,1,.21-.08h.07a.94.94,0,0,1,.47.46c0,.53-.06,2.34,0,3.25v.2c0,.17,0,.44,0,.7A3.77,3.77,0,0,1,36,36.66Z"/><path class="cls-3" d="M76.37,3.93a4.61,4.61,0,0,0-6,2.47,4.61,4.61,0,0,0-8.51-3.57C59.22,9,65.87,17,65.87,17s10.37-.86,13-7.06A4.61,4.61,0,0,0,76.37,3.93Z"/><path class="cls-3" d="M77.1,25.26a1.82,1.82,0,0,0-2.48.76,1.83,1.83,0,1,0-3.24-1.72c-1.25,2.36,1.09,5.76,1.09,5.76s4.13,0,5.39-2.32A1.84,1.84,0,0,0,77.1,25.26Z"/><path class="cls-3" d="M49.53,4.9a1.84,1.84,0,0,0-.93,2.42,1.83,1.83,0,1,0-3.35,1.49c1.08,2.44,5.21,2.7,5.21,2.7S53,8.28,52,5.84A1.83,1.83,0,0,0,49.53,4.9Z"/></g><path class="cls-15" d="M108.47,135c-3.57-.78-12.53-.44-13.75-.7s-3.66-4.08-3.66-4.08v4.08l-4.88-3.63L87.4,135s-13.75-1-19.5-1.25a31.34,31.34,0,0,1-10.29-2.31l.86,2.31-4.77-.64,1.1,1.79"/><path class="cls-15" d="M182.82,132.91s-3.49-.74-4.7-1.1a51.13,51.13,0,0,1-5.21-2.64s1.1,2.64.85,3.74c-1.85-.37-3.24-.36-4.62-1.63s-4.57-2.11-4.57-2.11,2.43,3.26,1.8,3.78c-.23.19-4.76-.22-9.55-.22a10.79,10.79,0,0,1-7.25-2.53l1.2,3.64"/><path class="cls-15" d="M206.65,130.88l-3.2-2.42a20.74,20.74,0,0,0,.66,2.65c.19.27-3.52-1.16-3.52-1.16l.32,2.19"/><path class="cls-15" d="M13.65,128.79a10.5,10.5,0,0,0-2.73-.53l.47,1.29L7,128.91a5.41,5.41,0,0,1,0,1.29c-.09.29-6.2-.12-6.2-.12"/></g></g></g></svg>