<svg xmlns="http://www.w3.org/2000/svg" viewBox="0 0 174.71 150.98"><defs><style>.cls-1{isolation:isolate;}.cls-2{mix-blend-mode:multiply;}.cls-3{fill:#f1a0bc;}.cls-4{fill:#b86181;}.cls-5{fill:#e17a9d;}.cls-6{fill:#fdf7cb;}.cls-7{fill:#e3de96;}.cls-8{fill:#f7eabe;}.cls-9{fill:#f8e28f;}.cls-10{fill:#d6e3a6;}.cls-11{fill:#4ab5d1;}.cls-12{fill:#1b1819;}</style></defs><title>abuela</title><g class="cls-1"><g id="Capa_2" data-name="Capa 2"><g id="Capa_1-2" data-name="Capa 1"><g class="cls-2"><polygon class="cls-3" points="21.83 34.73 17.98 34.91 16.8 16.01 20.65 15.83 21.83 34.73"/><polygon class="cls-4" points="21.83 34.73 17.98 34.91 19.51 35.49 23.36 35.3 21.83 34.73"/><polygon class="cls-5" points="21.83 34.73 23.36 35.3 22.18 16.4 20.65 15.83 21.83 34.73"/><rect class="cls-6" x="20.14" y="35.02" width="0.78" height="5.48" transform="translate(-1.79 1.03) rotate(-2.76)"/><polygon class="cls-7" points="21.05 40.47 21.36 40.68 21.1 35.21 20.79 35 21.05 40.47"/><polygon class="cls-8" points="140.73 34.78 144.59 34.82 144.77 16.16 140.92 16.12 140.73 34.78"/><polygon class="cls-4" points="140.73 34.78 144.59 34.82 143.08 35.45 139.23 35.41 140.73 34.78"/><polygon class="cls-9" points="140.73 34.78 139.23 35.41 139.41 16.75 140.92 16.12 140.73 34.78"/><rect class="cls-6" x="141.76" y="35.02" width="0.78" height="5.48" transform="translate(283.84 77.15) rotate(-179.34)"/><polygon class="cls-7" points="141.72 40.49 141.42 40.7 141.48 35.23 141.79 35.01 141.72 40.49"/><path class="cls-10" d="M165.86,140.68H152.17a7.64,7.64,0,0,0-1.21,2.19c-1.05,3.3-4.49,3-6.34,2.77s-2.19.61-3.82,0a1.42,1.42,0,0,1-.22-2.47c.93-.53,1.44.54,3.91-1.12a4,4,0,0,0,1.14-1.39H51.89c.43,1.39.52,2.69-.44,3.8-2.34,2.72-9,.19-12.26,1.26-2.42.78-3.62,0-4.62,0-1.86,0-2.57.84-3.51.12-1.37-1.05,0-2.93,2.13-2.86,1.07,0,3.63-1.33,5.3-2.25l.13-.07H.83l8,9.47h165Z"/><path class="cls-11" d="M101.82,78.42c-.92,0-1.13,1.06-1.13,2s.21,1.34,1.13,1.34a1.66,1.66,0,1,0,0-3.32Zm-2.66,3.42a1.67,1.67,0,1,0,1.66,1.66A1.66,1.66,0,0,0,99.16,81.84Zm6.08,0a1.67,1.67,0,0,0,0,3.33,1.67,1.67,0,1,0,0-3.33ZM69.08,83c-.92,0-.67.82-2,.49a1.67,1.67,0,1,0,3.33,0C70.42,82.58,70,83,69.08,83Zm-3,2.25a1.67,1.67,0,1,0,1.66,1.67A1.66,1.66,0,0,0,66.1,85.26Zm6.08,0a1.67,1.67,0,1,0,1.66,1.67A1.66,1.66,0,0,0,72.18,85.26ZM78,86.93c-.91,0-1.43-.92-1.43,0a1.66,1.66,0,1,0,3.32,0C80,86.33,79,86.93,78,86.93Zm6.49.35a4,4,0,0,1-1.84-.35,1.67,1.67,0,0,0,3.33,0C86,86.7,85.44,87.28,84.52,87.28Zm6.36-.86c-.92,0-2.12-.41-2.12.51a1.67,1.67,0,0,0,3.33,0C92.09,86,91.8,86.42,90.88,86.42Zm5.62-1.16a1.67,1.67,0,1,0,1.67,1.67A1.66,1.66,0,0,0,96.5,85.26Zm6.08,0a1.67,1.67,0,1,0,1.67,1.67A1.67,1.67,0,0,0,102.58,85.26Zm6.09,0a1.67,1.67,0,1,0,1.66,1.67A1.67,1.67,0,0,0,108.67,85.26ZM69.52,88.69a1.66,1.66,0,1,0,1.67,1.66A1.66,1.66,0,0,0,69.52,88.69Zm6.08,0a1.66,1.66,0,1,0,1.67,1.66A1.66,1.66,0,0,0,75.6,88.69Zm6.08,0a1.66,1.66,0,1,0,1.67,1.66A1.66,1.66,0,0,0,81.68,88.69Zm6.09,0a1.66,1.66,0,1,0,1.66,1.66A1.66,1.66,0,0,0,87.77,88.69Zm6.08,0a1.66,1.66,0,1,0,1.66,1.66A1.66,1.66,0,0,0,93.85,88.69Zm6.08,0a1.66,1.66,0,1,0,1.66,1.66A1.66,1.66,0,0,0,99.93,88.69Zm6.08,0a1.66,1.66,0,1,0,1.66,1.66A1.66,1.66,0,0,0,106,88.69Zm6.08,0a1.66,1.66,0,1,0,0,3.32,1.34,1.34,0,0,0,1.45-1.48C112.08,90.3,113,88.69,112.09,88.69ZM73,92.11a1.67,1.67,0,1,0,1.66,1.66A1.66,1.66,0,0,0,73,92.11Zm6.08,0a1.67,1.67,0,1,0,1.66,1.66A1.66,1.66,0,0,0,79,92.11Zm6.08,0a1.67,1.67,0,1,0,1.66,1.66A1.66,1.66,0,0,0,85.11,92.11Zm6.08,0a1.67,1.67,0,1,0,1.66,1.66A1.66,1.66,0,0,0,91.19,92.11Zm6.08,0a1.67,1.67,0,1,0,1.66,1.66A1.66,1.66,0,0,0,97.27,92.11Zm6.08,0A1.67,1.67,0,1,0,105,93.77,1.66,1.66,0,0,0,103.35,92.11Zm6.08,0a1.67,1.67,0,0,0,0,3.33,1.67,1.67,0,1,0,0-3.33Zm5.09.92c-.92,0-.67-.18-.67.74a1.66,1.66,0,0,0,1.66,1.67c.92,0-.13,0-.13-1S115.44,93,114.52,93Zm-38.15,2.5A1.67,1.67,0,1,0,78,97.2,1.66,1.66,0,0,0,76.37,95.53Zm6.08,0a1.67,1.67,0,1,0,1.66,1.67A1.66,1.66,0,0,0,82.45,95.53Zm6.08,0A1.67,1.67,0,1,0,90.2,97.2,1.66,1.66,0,0,0,88.53,95.53Zm6.08,0a1.67,1.67,0,1,0,1.67,1.67A1.66,1.66,0,0,0,94.61,95.53Zm6.08,0a1.67,1.67,0,1,0,1.67,1.67A1.66,1.66,0,0,0,100.69,95.53Zm6.08,0a1.67,1.67,0,1,0,1.67,1.67A1.67,1.67,0,0,0,106.77,95.53Zm6.09,0a1.67,1.67,0,1,0,1.66,1.67A1.67,1.67,0,0,0,112.86,95.53ZM79.79,99a1.66,1.66,0,1,0,1.67,1.66A1.66,1.66,0,0,0,79.79,99Zm6.08,0a1.66,1.66,0,0,0-1.66,1.66c0,.92.75.68,1.66.68s1.67.24,1.67-.68A1.66,1.66,0,0,0,85.87,99ZM92,99a1.66,1.66,0,0,0-1.67,1.66c0,.92.75,1.27,1.67,1.27s1.66-.35,1.66-1.27A1.66,1.66,0,0,0,92,99ZM98,99a1.66,1.66,0,1,0,1.66,1.66A1.66,1.66,0,0,0,98,99Zm6.08,0a1.66,1.66,0,1,0,1.66,1.66A1.66,1.66,0,0,0,104.12,99Zm6.08,0a1.66,1.66,0,1,0,1.66,1.66A1.66,1.66,0,0,0,110.2,99Zm6.08,0a1.66,1.66,0,1,0,1.66,1.66A1.66,1.66,0,0,0,116.28,99Zm-14.82,3.42a1.67,1.67,0,1,0,1.66,1.66A1.66,1.66,0,0,0,101.46,102.38Zm6.08,0A1.67,1.67,0,1,0,109.2,104,1.66,1.66,0,0,0,107.54,102.38Zm6.08,0a1.67,1.67,0,1,0,1.66,1.66A1.66,1.66,0,0,0,113.62,102.38Zm6.08,0a1.67,1.67,0,1,0,1.67,1.66A1.66,1.66,0,0,0,119.7,102.38Zm-14.82,3.42a1.66,1.66,0,0,0-1.66,1.67c.9-.11,1.18,1.45,2.09,1.45s1.24-.53,1.24-1.45A1.67,1.67,0,0,0,104.88,105.8Zm6.08,0a1.67,1.67,0,1,0,1.67,1.67A1.67,1.67,0,0,0,111,105.8Zm6.08,0a1.67,1.67,0,1,0,1.67,1.67A1.67,1.67,0,0,0,117,105.8Zm6.09,0a1.67,1.67,0,1,0,1.66,1.67A1.67,1.67,0,0,0,123.13,105.8ZM61.05,86.09a1.67,1.67,0,0,0-1.67,1.67c0,.92-.28.83.64.83a1.66,1.66,0,0,0,1.66-1.66C61.68,86,62,86.09,61.05,86.09Zm-3.69,2.6A1.66,1.66,0,1,0,59,90.35,1.66,1.66,0,0,0,57.36,88.69Zm6.08,0a1.66,1.66,0,1,0,1.67,1.66A1.66,1.66,0,0,0,63.44,88.69ZM49.23,92.84a1.67,1.67,0,0,0-1.67,1.66c0,.92.14.94,1.06.94a1.67,1.67,0,0,0,1.67-1.67C50.29,92.85,50.15,92.84,49.23,92.84Zm5.47-.73a1.67,1.67,0,1,0,1.67,1.66A1.66,1.66,0,0,0,54.7,92.11Zm6.09,0a1.67,1.67,0,1,0,1.66,1.66A1.66,1.66,0,0,0,60.79,92.11Zm6.08,0a1.67,1.67,0,1,0,1.66,1.66A1.66,1.66,0,0,0,66.87,92.11ZM46,95.53a1.67,1.67,0,1,0,0,3.33,1.67,1.67,0,0,0,0-3.33Zm6.08,0a1.67,1.67,0,1,0,0,3.33,1.67,1.67,0,0,0,0-3.33Zm6.08,0a1.67,1.67,0,1,0,0,3.33,1.67,1.67,0,0,0,0-3.33Zm6.08,0a1.67,1.67,0,1,0,1.66,1.67A1.66,1.66,0,0,0,64.21,95.53Zm6.08,0A1.67,1.67,0,1,0,72,97.2,1.66,1.66,0,0,0,70.29,95.53ZM43.31,99A1.66,1.66,0,1,0,45,100.62,1.66,1.66,0,0,0,43.31,99Zm6.08,0a1.66,1.66,0,1,0,1.66,1.66A1.66,1.66,0,0,0,49.39,99Zm6.08,0a1.66,1.66,0,1,0,1.66,1.66A1.66,1.66,0,0,0,55.47,99Zm6.08,0a1.66,1.66,0,1,0,1.67,1.66A1.66,1.66,0,0,0,61.55,99Zm6.08,0a1.66,1.66,0,1,0,1.67,1.66A1.66,1.66,0,0,0,67.63,99Zm6.08,0a1.66,1.66,0,1,0,1.67,1.66A1.66,1.66,0,0,0,73.71,99Zm-33.06,3.42A1.67,1.67,0,1,0,42.32,104,1.66,1.66,0,0,0,40.65,102.38Zm6.08,0A1.67,1.67,0,1,0,48.4,104,1.66,1.66,0,0,0,46.73,102.38Zm6.08,0A1.67,1.67,0,1,0,54.48,104,1.66,1.66,0,0,0,52.81,102.38Zm6.08,0A1.67,1.67,0,1,0,60.56,104,1.67,1.67,0,0,0,58.89,102.38Zm6.09,0A1.67,1.67,0,0,0,63.31,104c0,.92.75.48,1.67.48s1.66.44,1.66-.48A1.67,1.67,0,0,0,65,102.38Zm-20.9,3.42a1.67,1.67,0,1,0,1.66,1.67A1.67,1.67,0,0,0,44.08,105.8Zm6.08,0a1.67,1.67,0,1,0,0,3.33c0-.63.65-1.3,1.66-1.66A1.66,1.66,0,0,0,50.16,105.8Zm64.23,3.43a1.67,1.67,0,1,0,1.66,1.66A1.66,1.66,0,0,0,114.39,109.23Zm6.08,0a1.67,1.67,0,1,0,1.66,1.66A1.66,1.66,0,0,0,120.47,109.23Zm6.08,0a1.67,1.67,0,1,0,1.66,1.66A1.66,1.66,0,0,0,126.55,109.23Zm-8.74,3.42a1.67,1.67,0,1,0,1.66,1.67A1.66,1.66,0,0,0,117.81,112.65Zm6.08,0a1.67,1.67,0,1,0,1.67,1.67A1.66,1.66,0,0,0,123.89,112.65Zm6.08,0a1.67,1.67,0,1,0,1.67,1.67A1.66,1.66,0,0,0,130,112.65Zm-8.74,3.42a1.67,1.67,0,1,0,1.67,1.67A1.67,1.67,0,0,0,121.23,116.07Zm6.09,0a1.67,1.67,0,1,0,1.66,1.67A1.67,1.67,0,0,0,127.32,116.07Zm6.08,0a1.67,1.67,0,1,0,0,3.33,1.67,1.67,0,0,0,0-3.33Zm-8.74,3.43a1.66,1.66,0,0,0-1.67,1.66c0,.92,1.06.88,1.67,1.67a1.67,1.67,0,0,0,0-3.33Zm6.08,0a1.67,1.67,0,1,0,1.66,1.66A1.66,1.66,0,0,0,130.74,119.5Zm6.08,0a1.67,1.67,0,1,0,1.66,1.66A1.66,1.66,0,0,0,136.82,119.5Zm-2.66,3.42a1.67,1.67,0,1,0,1.67,1.67A1.66,1.66,0,0,0,134.16,122.92Zm6.08,0a1.67,1.67,0,1,0,1.67,1.67A1.66,1.66,0,0,0,140.24,122.92Zm-2.65,3.43a1.66,1.66,0,1,0,1.66,1.66A1.66,1.66,0,0,0,137.59,126.35ZM41.42,109.23a1.67,1.67,0,1,0,1.66,1.66A1.66,1.66,0,0,0,41.42,109.23Zm6.08,0a1.67,1.67,0,1,0,1.66,1.66A1.66,1.66,0,0,0,47.5,109.23Zm-8.74,3.42c-.92,0-.26.75-.26,1.67s-.66,1.66.26,1.66a1.67,1.67,0,0,0,0-3.33Zm6.08,0a1.67,1.67,0,1,0,1.67,1.67A1.66,1.66,0,0,0,44.84,112.65Zm-2.66,3.42a1.67,1.67,0,1,0,1.67,1.67A1.67,1.67,0,0,0,42.18,116.07Zm6.09,0a1.67,1.67,0,1,0,0,3.33c.91,0,.64-.83.64-1.75S49.18,116.07,48.27,116.07Zm-2.66,3.43a1.67,1.67,0,1,0,1.66,1.66A1.66,1.66,0,0,0,45.61,119.5ZM43,122.92a1.67,1.67,0,1,0,1.66,1.67A1.66,1.66,0,0,0,43,122.92Zm6.08,0a1.67,1.67,0,1,0,1.67,1.67A1.66,1.66,0,0,0,49,122.92Zm-2.66,3.43A1.66,1.66,0,1,0,48,128,1.66,1.66,0,0,0,46.37,126.35Z"/><path class="cls-9" d="M90.2,34.23a1.67,1.67,0,1,0,1.66,1.67A1.67,1.67,0,0,0,90.2,34.23Zm-2.66,3.43a1.66,1.66,0,1,0,1.66,1.66A1.66,1.66,0,0,0,87.54,37.66Zm6.08,0a1.66,1.66,0,1,0,1.66,1.66A1.66,1.66,0,0,0,93.62,37.66Zm6.08,0a1.66,1.66,0,1,0,1.66,1.66A1.66,1.66,0,0,0,99.7,37.66ZM72.43,35.4c-.92,0-.7.5-2.14.5a1.67,1.67,0,0,0,3.33,0C73.62,35,73.35,35.4,72.43,35.4Zm-9.21,3.45c-.92,0-1.67-.45-1.67.47a1.67,1.67,0,0,0,3.33,0C64.88,38.4,64.13,38.85,63.22,38.85Zm6.08-1.19A1.66,1.66,0,1,0,71,39.32,1.66,1.66,0,0,0,69.3,37.66Zm6.08,0A1.66,1.66,0,1,0,77,39.32,1.66,1.66,0,0,0,75.38,37.66Zm-2.66,3.42a1.67,1.67,0,1,0,1.66,1.66A1.66,1.66,0,0,0,72.72,41.08Zm5.65.22c-.91,0-1.23.53-1.23,1.44a1.66,1.66,0,0,0,1.66,1.67A1.33,1.33,0,0,0,80.25,43C79,42.34,79.29,41.3,78.37,41.3Zm6.51-.22a1.67,1.67,0,1,0,1.66,1.66A1.66,1.66,0,0,0,84.88,41.08Zm6.08,0a1.67,1.67,0,1,0,1.67,1.66A1.66,1.66,0,0,0,91,41.08Zm6.08,0a1.67,1.67,0,1,0,1.67,1.66A1.66,1.66,0,0,0,97,41.08ZM76.14,44.5a1.67,1.67,0,1,0,1.67,1.67A1.66,1.66,0,0,0,76.14,44.5Zm6.08,0a1.67,1.67,0,1,0,1.67,1.67A1.67,1.67,0,0,0,82.22,44.5Zm6.08,0A1.67,1.67,0,1,0,90,46.17,1.67,1.67,0,0,0,88.3,44.5Zm6.09,0a1.67,1.67,0,1,0,1.66,1.67A1.67,1.67,0,0,0,94.39,44.5Zm6.08,0a1.67,1.67,0,1,0,1.66,1.67A1.67,1.67,0,0,0,100.47,44.5Zm-20.9,3.43a1.66,1.66,0,1,0,1.66,1.66A1.66,1.66,0,0,0,79.57,47.93Zm6.08,0a1.66,1.66,0,1,0,1.66,1.66A1.66,1.66,0,0,0,85.65,47.93Zm6.08,0a1.66,1.66,0,1,0,1.66,1.66A1.66,1.66,0,0,0,91.73,47.93ZM83,51.35A1.67,1.67,0,1,0,84.65,53,1.66,1.66,0,0,0,83,51.35Zm6.08,0A1.67,1.67,0,1,0,90.73,53,1.66,1.66,0,0,0,89.07,51.35Zm6.08,0a1.67,1.67,0,0,0,0,3.33c.92,0,.45-1,.45-2S96.07,51.35,95.15,51.35Zm-8.74,3.42a1.67,1.67,0,1,0,1.67,1.67A1.66,1.66,0,0,0,86.41,54.77Zm6.08,0a1.67,1.67,0,1,0,1.67,1.67A1.67,1.67,0,0,0,92.49,54.77ZM89.84,58.2a1.67,1.67,0,1,0,1.66,1.66A1.66,1.66,0,0,0,89.84,58.2Zm3.42,3.42a1.67,1.67,0,1,0,1.66,1.67A1.66,1.66,0,0,0,93.26,61.62ZM66.64,41.08a1.67,1.67,0,1,0,1.66,1.66A1.66,1.66,0,0,0,66.64,41.08ZM64,44.5a1.67,1.67,0,1,0,1.67,1.67A1.66,1.66,0,0,0,64,44.5Zm6.08,0a1.67,1.67,0,1,0,1.67,1.67A1.66,1.66,0,0,0,70.06,44.5Zm3.43,3.43a1.66,1.66,0,1,0,1.66,1.66A1.66,1.66,0,0,0,73.49,47.93Zm-2.66,3.42A1.67,1.67,0,1,0,72.49,53,1.66,1.66,0,0,0,70.83,51.35Zm6.08,0A1.67,1.67,0,1,0,78.57,53,1.66,1.66,0,0,0,76.91,51.35Zm-2.66,3.42a1.67,1.67,0,1,0,1.67,1.67A1.66,1.66,0,0,0,74.25,54.77Zm6.08,0A1.67,1.67,0,1,0,82,56.44,1.66,1.66,0,0,0,80.33,54.77ZM71.59,58.2a1.67,1.67,0,1,0,1.67,1.66A1.66,1.66,0,0,0,71.59,58.2Zm6.09,0a1.67,1.67,0,1,0,1.66,1.66A1.66,1.66,0,0,0,77.68,58.2Zm6.08,0a1.67,1.67,0,1,0,1.66,1.66A1.66,1.66,0,0,0,83.76,58.2ZM75,61.62a1.67,1.67,0,1,0,1.66,1.67A1.67,1.67,0,0,0,75,61.62Zm6.08,0a1.67,1.67,0,1,0,1.66,1.67A1.66,1.66,0,0,0,81.1,61.62Zm6.08,0a1.67,1.67,0,1,0,1.66,1.67A1.66,1.66,0,0,0,87.18,61.62ZM72.36,65.05c-.92,0-.23.74-.23,1.66s-.69,1.66.23,1.66a1.66,1.66,0,1,0,0-3.32Zm6.08,0a1.66,1.66,0,1,0,1.67,1.66A1.66,1.66,0,0,0,78.44,65.05Zm6.08,0a1.66,1.66,0,1,0,1.67,1.66A1.66,1.66,0,0,0,84.52,65.05Zm6.08,0a1.66,1.66,0,1,0,1.67,1.66A1.66,1.66,0,0,0,90.6,65.05Zm6.08,0a1.66,1.66,0,1,0,1.67,1.66A1.66,1.66,0,0,0,96.68,65.05Zm-20.9,3.42a1.67,1.67,0,1,0,1.67,1.66A1.66,1.66,0,0,0,75.78,68.47Zm6.09,0a1.67,1.67,0,1,0,1.66,1.66A1.66,1.66,0,0,0,81.87,68.47Zm6.08,0a1.67,1.67,0,1,0,1.66,1.66A1.66,1.66,0,0,0,88,68.47Zm6.08,0a1.67,1.67,0,1,0,1.66,1.66A1.66,1.66,0,0,0,94,68.47Zm6.08,0a1.67,1.67,0,1,0,0,3.33c.92,0,.81-.48.81-1.4S100.29,69.37,100.11,68.47Zm-27,3.42a1.67,1.67,0,1,0,1.66,1.67A1.67,1.67,0,0,0,73.13,71.89Zm6.08,0a1.67,1.67,0,1,0,1.66,1.67A1.67,1.67,0,0,0,79.21,71.89Zm6.08,0A1.67,1.67,0,1,0,87,73.56,1.66,1.66,0,0,0,85.29,71.89Zm6.08,0A1.67,1.67,0,1,0,93,73.56,1.66,1.66,0,0,0,91.37,71.89Zm6.08,0a1.67,1.67,0,1,0,1.66,1.67A1.66,1.66,0,0,0,97.45,71.89Zm-20.9,3.43A1.66,1.66,0,1,0,78.21,77,1.66,1.66,0,0,0,76.55,75.32Zm6.08,0A1.66,1.66,0,1,0,84.3,77,1.66,1.66,0,0,0,82.63,75.32Zm6.08,0A1.66,1.66,0,1,0,90.38,77,1.66,1.66,0,0,0,88.71,75.32Zm6.08,0A1.66,1.66,0,1,0,96.46,77,1.66,1.66,0,0,0,94.79,75.32Zm6.08,0A1.66,1.66,0,1,0,102.54,77,1.66,1.66,0,0,0,100.87,75.32ZM80,78.74a1.67,1.67,0,1,0,1.67,1.66A1.66,1.66,0,0,0,80,78.74Zm6.09,0a1.67,1.67,0,1,0,1.66,1.66A1.66,1.66,0,0,0,86.06,78.74Zm6.08,0A1.67,1.67,0,1,0,93.8,80.4,1.66,1.66,0,0,0,92.14,78.74Zm6.08,0a1.67,1.67,0,1,0,1.66,1.66A1.66,1.66,0,0,0,98.22,78.74ZM83.4,82.16a1.67,1.67,0,1,0,0,3.33,1.67,1.67,0,0,0,0-3.33Zm6.08,0a1.67,1.67,0,1,0,1.66,1.67A1.66,1.66,0,0,0,89.48,82.16Zm6.08,0a1.67,1.67,0,1,0,1.66,1.67A1.66,1.66,0,0,0,95.56,82.16ZM70.47,75.32c-.92,0-.53.74-.53,1.66s-.39,1.66.53,1.66a1.66,1.66,0,0,0,0-3.32Zm3.42,3.42a1.67,1.67,0,1,0,1.67,1.66A1.66,1.66,0,0,0,73.89,78.74Zm3.43,3.42a1.67,1.67,0,1,0,0,3.33,1.67,1.67,0,0,0,0-3.33Z"/></g><path class="cls-12" d="M174.51,149.61l-8-9.47a.86.86,0,0,0-.64-.29h-12l.21-.25c1.53-1.8,3.1-3.65,2.83-6.09-.38-3.43-2.19-3.92-4.11-4.44-.44-.13-.91-.25-1.41-.43a16.4,16.4,0,0,1-4.45-2.8.83.83,0,0,0,0-.58c-.55-1.17-3.29-3.66-8.48-8.33-7.6-6.84-19.08-17.16-23.65-24.71-6.63-10.91-10.67-16-11.42-16.93-.18-2.31-2.2-5.73-4.18-9.05a36.83,36.83,0,0,1-2.88-5.38c-1.25-3.68-.17-8.38,1-11.67.23-.66,2.86-.32,4-.18.56.08,1.07.14,1.48.16a.86.86,0,0,0,.75-.44c4.24.11,20.11.55,25.07,1.22A54.82,54.82,0,0,1,134,51a25.11,25.11,0,0,0,5.58.92,7.77,7.77,0,0,0,2.74-.46.78.78,0,0,0,.47-.5,1.39,1.39,0,0,0,.63-.9,2.74,2.74,0,0,0-.07-1.78,1.4,1.4,0,0,0,1-1.23,2.68,2.68,0,0,0-.37-1.86,1.34,1.34,0,0,0,.43-1.1,3.34,3.34,0,0,0-.4-1.46l.24,0c.72-.09,2.2-.27,2.09-1.84a2.6,2.6,0,0,0-.77-1.89,2.23,2.23,0,0,0-1.67-.4,4.39,4.39,0,0,0-1.11.29l0-2.91h.31a.51.51,0,0,0,.17,0l1.5-.63h0a.51.51,0,0,0,.13-.09s0-.06.06-.09l0,0a.37.37,0,0,0,.05-.18l.19-18.66a.43.43,0,0,0-.43-.44l-3.86-.05a.24.24,0,0,0-.2.05l-1.48.62a.41.41,0,0,0-.26.39l-.19,18.66s0,0,0,.06v0s0,0,0,0a.48.48,0,0,0,.1.17l0,0,0,0a.63.63,0,0,0,.22.07h0l2,0,0,2.82a1.91,1.91,0,0,0-.28-.07,2.69,2.69,0,0,1-.38-.11,5.57,5.57,0,0,0-3.38-.2,8.15,8.15,0,0,0-2,1.32A9.9,9.9,0,0,1,133.31,41a14.75,14.75,0,0,1-7.36.88c-8-.92-18.17-2.34-20.65-2.69a.79.79,0,0,0-.46-.38l-6.73-1.94A9.26,9.26,0,0,1,96,35.74a25.7,25.7,0,0,0-7.51-3.34,2.09,2.09,0,0,0-.08-.23,18,18,0,0,1-1.8-6.05,8.24,8.24,0,0,0,4.59-5.31,9.29,9.29,0,0,0,0-5.67,7,7,0,0,0,4.14-3.49c.7-1.38,1.5-4.25-1.06-7.92A7.91,7.91,0,0,0,86.21.15,6.43,6.43,0,0,0,81.4,4.06c-7.47-1.76-12.87,4-13.47,4.71L67.69,9a6.87,6.87,0,0,0-1.94,3.21,5.2,5.2,0,0,1-.53,1.46,6.69,6.69,0,0,0-.69,2.17A6.07,6.07,0,0,0,65,19.11a4,4,0,0,1,.27.91,5.24,5.24,0,0,1-.84,1.62,4.43,4.43,0,0,0-1,2.19,3,3,0,0,0,.89,2.27,1.85,1.85,0,0,1,.59,1.3A1.57,1.57,0,0,0,66,28.79a2,2,0,0,0,0,.36c0,1,1.73,3.68,3.72,4.49a4.41,4.41,0,0,0,1.72.37A4.35,4.35,0,0,0,73,33.69a2.1,2.1,0,0,1,.5-.15,2.41,2.41,0,0,1,.68,0,6.94,6.94,0,0,0,2.4,0c0,.14,0,.3,0,.43a33.71,33.71,0,0,0-5,1.21,26,26,0,0,0-3.07,1.42,10.58,10.58,0,0,1-3,1.27,42.35,42.35,0,0,0-5.64.91.78.78,0,0,0-.5.37c-2.07.26-13.91,1.71-22.33,2.68A14.75,14.75,0,0,1,29.66,41a9.9,9.9,0,0,1-1.91-1.32,8.54,8.54,0,0,0-1.95-1.32,5.6,5.6,0,0,0-3.39.2,3.1,3.1,0,0,1-.37.11,1.85,1.85,0,0,0-.55.14l-.14-2.92,2-.1s.05,0,.08,0a1,1,0,0,0,.16-.05l0,0,0,0a.4.4,0,0,0,.1-.18s0,0,0,0v0a.14.14,0,0,0,0-.06l-1.19-18.9a.43.43,0,0,0-.28-.38l-1.53-.58h0a.45.45,0,0,0-.16,0l-3.85.19a.45.45,0,0,0-.31.14.52.52,0,0,0-.11.32l1.19,18.9a.35.35,0,0,0,.06.18s0,0,0,0a.44.44,0,0,0,.21.17h0l1.53.58a.4.4,0,0,0,.15,0h0l.3,0L20,38.7a4.73,4.73,0,0,0-.84-.19,2.13,2.13,0,0,0-1.67.4,2.56,2.56,0,0,0-.77,1.89c-.11,1.57,1.37,1.75,2.09,1.84l.24,0a3.34,3.34,0,0,0-.4,1.46,1.34,1.34,0,0,0,.43,1.1,2.67,2.67,0,0,0-.37,1.86,1.41,1.41,0,0,0,1,1.23,2.8,2.8,0,0,0-.06,1.78,1.35,1.35,0,0,0,.63.9.78.78,0,0,0,.47.5,7.7,7.7,0,0,0,2.74.46A25.11,25.11,0,0,0,29,51,54.82,54.82,0,0,1,34.41,50c5.11-.69,21.75-1.13,25.38-1.22a.82.82,0,0,0,.57.44,14,14,0,0,0,5.48-.56c.9-.21,2.13-.5,2.31-.5.56.81,1.15,1.64.72,6.92a10.87,10.87,0,0,0,1.48,6.58,8.38,8.38,0,0,1,1.25,4.25,20.91,20.91,0,0,1-1,5.44c-.77,2.72-1.64,5.8-1.13,9.33a6.59,6.59,0,0,0,.4,1.48c-4.39,1.68-28.13,11.21-31.1,21.7-2.54,9,.56,17.76,2.82,24.17.59,1.66,1.1,3.1,1.44,4.34,0,0,0,0,0,.05s0,0,0,0a10.58,10.58,0,0,1,.15,3.31c-.09,1.83-2.12,2.83-3.91,3.71-.3.14-.57.29-.84.43H.83a.83.83,0,0,0-.63,1.37l8,9.47a.82.82,0,0,0,.64.29h165a.83.83,0,0,0,.63-1.37Zm-29.38-23.15a20,20,0,0,0,5.73,3.75c.54.19,1,.33,1.52.46,1.81.49,2.64.72,2.9,3,.19,1.72-1.09,3.23-2.44,4.82a12.67,12.67,0,0,0-2.67,4.09c-.63,2-2.29,2.67-5.43,2.21a5.38,5.38,0,0,0-2.15.11,2.18,2.18,0,0,1-1.5-.06.48.48,0,0,1-.29-.46.52.52,0,0,1,.2-.5c.11-.06.18-.06.49,0a4.93,4.93,0,0,0,3.47-1.11c1.47-1,2.36-3.5,2.49-5.48a5,5,0,0,0-1.35-4.16,31.64,31.64,0,0,0-4.82-3.31,3.45,3.45,0,0,1,1-2.06A4.4,4.4,0,0,1,145.13,126.46Zm-94,4.83c.41-1.52,0-4.43-.64-8.12-.7-4.38-1.5-9.35-.81-12.37.93-4.17,7.32-4.93,14.08-5.73,1.45-.17,2.91-.35,4.35-.56,2.64-.38,5-.83,7.39-1.27,10.85-2,18.69-3.48,29.93,6.16,9.52,8.18,28.77,19.59,34.69,21.66a30.44,30.44,0,0,1,4.9,3.32,3.44,3.44,0,0,1,.79,2.8,7.76,7.76,0,0,1-.67,2.68H52.5c-.17-.47-.35-.94-.53-1.39s-.41-1-.58-1.51a13.52,13.52,0,0,1-.28-5.63S51.11,131.3,51.11,131.29ZM138.6,46.74l.81.13v0ZM138.28,44l.13-.45c0-.12.06-.23.09-.32.09-.27.15-.36.84-.44A2.79,2.79,0,0,0,138.28,44Zm3.53,5.57a6.14,6.14,0,0,1-.68-.17,9.42,9.42,0,0,0-1-.21c-.32,0-.49-.1-.55-.1h0s0,0,0,0,.15-.5,1.82-.19a.65.65,0,0,1,.39.15S141.89,49.12,141.81,49.54Zm-.93-2.61h-.64a4.07,4.07,0,0,1-.82-.06c.06-.2.66-.48,1.43-.64l.34,0,.28,0a4.25,4.25,0,0,1,.72,0c.26,0,.38.07.4.1a1.05,1.05,0,0,1,.14.58A5.27,5.27,0,0,1,140.88,46.93ZM144,40.17l.18,0a.37.37,0,0,1,.23.05s.14.13.26.65A3,3,0,0,1,144,41l-.59.08a6.29,6.29,0,0,1-.88.08.62.62,0,0,1,.18-.43h0v0A2.33,2.33,0,0,1,144,40.17Zm-1.51,1h-.21v0h.19ZM142.3,39a2.25,2.25,0,0,0-.21.12s-.09-.06-.13-.1l0-3.16h.34Zm1.85-4.64-1.59,0h-1.39l.18-17.79,3,0ZM139.85,17l.63-.27-.14,13.72,0,4-.63.26Zm2.26,26.46.18,0a.37.37,0,0,1,.23.05s.14.13.23.55a4.32,4.32,0,0,1-1.54.41,5.24,5.24,0,0,0-.53.08l-.3,0c-.34.06-.51.06-.57.09v-.06C139.81,44.27,141,43.63,142.11,43.5Zm-37.62-2.79h0c.12,0,12.1,1.72,21.27,2.77a16.44,16.44,0,0,0,8.08-1,9.21,9.21,0,0,0,2.41-1.59,9.71,9.71,0,0,1,1.47-1,4.09,4.09,0,0,1,2.36.22,2.26,2.26,0,0,0,.78.14.75.75,0,0,1-.16.49c-.13.2-.27.27-.31.27L140,41c-1.42.1-2.54.18-3,1.63,0,.12-.08.27-.12.43a4.16,4.16,0,0,1-2.41,3.09A.84.84,0,0,0,134,47.3a.82.82,0,0,0,.75.47.78.78,0,0,0,.36-.08,5.63,5.63,0,0,0,3.12-3.57,2.25,2.25,0,0,0-.08.52,1.76,1.76,0,0,0,.23.91,1.81,1.81,0,0,0-.6,1.05,1.47,1.47,0,0,0,.33,1.28s.12.07.17.11a2.38,2.38,0,0,0-.26.53h0a1.62,1.62,0,0,0,.14,1.42c.09.15.25.2.38.3a32,32,0,0,1-4.18-.81,53.13,53.13,0,0,0-5.58-1.13c-5.38-.72-22.66-1.17-25.82-1.25a6,6,0,0,1-.35-3.53A5.26,5.26,0,0,1,104.49,40.71ZM81.72,5.86a.62.62,0,0,0,.19,0,14.54,14.54,0,0,1,2.62,2.76.81.81,0,0,0,.69.38.83.83,0,0,0,.7-1.29A16,16,0,0,0,83,4.63a4.73,4.73,0,0,1,3.53-2.85,5.67,5.67,0,0,1,4,.72c-4.35,1-4.86,3.9-4.88,4a.84.84,0,0,0,.69.94h.13a.84.84,0,0,0,.82-.69c0-.08.42-2,3.77-2.71a.81.81,0,0,0,.61-.8A7.86,7.86,0,0,1,93,4.68c2,2.81,1.6,4.94,1,6.22a5,5,0,0,1-4,2.78.86.86,0,0,0-.73.48.84.84,0,0,0,.09.86c.67.88,1,3,.31,5.3a6.75,6.75,0,0,1-3.79,4.39c-.55-.39-1.37-1.16-1.28-1.93A7.67,7.67,0,0,1,85,21.36c.47-1.26,1.05-2.83,0-4.59a3.2,3.2,0,0,0-2.59-1.6h-.16a3.8,3.8,0,0,0-2.87,1.34,1.27,1.27,0,0,0-.13.19A12.66,12.66,0,0,0,78.44,15c-1.92-3.51-4.65-5.68-8-6.35C72.52,6.9,76.64,4.33,81.72,5.86Zm-5.36,26a5.17,5.17,0,0,1-2,0,3.7,3.7,0,0,0-1.16-.05,3.49,3.49,0,0,0-.83.24,2.43,2.43,0,0,1-2.07,0,6.1,6.1,0,0,1-2.64-2.82,1,1,0,0,0,.17-.56,7.6,7.6,0,0,0,3.75-1.58A3.1,3.1,0,0,0,72.73,29a.5.5,0,0,0,.26.08.46.46,0,0,0,.26-.83c-1-.7-1-2.67-.89-3.37A.45.45,0,0,0,72,24.4a.42.42,0,0,0-.5.39,7.62,7.62,0,0,0,0,1.31.42.42,0,0,0-.25.16c-.68.94-2.52,1.41-3.66,1.59a1.75,1.75,0,0,0-.8-.56c-.08,0-.18-.06-.2,0a3.42,3.42,0,0,0-1-2.26,1.39,1.39,0,0,1-.47-1.15,6.08,6.08,0,0,1,.72-1.29,4.57,4.57,0,0,0,1.1-2.75,5.57,5.57,0,0,0-.36-1.26,4.48,4.48,0,0,1-.35-2.41,4.91,4.91,0,0,1,.54-1.69,6.76,6.76,0,0,0,.66-1.85,5.55,5.55,0,0,1,1.53-2.43l.09-.09h.06c3.3.26,6,2.23,7.93,5.68a23,23,0,0,1,1.55,4.55.83.83,0,0,0,.91.64.85.85,0,0,0,.74-.83,6.2,6.2,0,0,1,.47-2.62,2.19,2.19,0,0,1,1.62-.67,1.5,1.5,0,0,1,1.26.82c.64,1,.38,1.85-.1,3.14a7.71,7.71,0,0,0-.5,1.78c-.23,1.76,1.31,3.05,2,3.55A20,20,0,0,0,87,33c.7,1.16.44,3-.72,5-1.47,2.6-4,4.79-5.51,4.8-.59-.07-2.71-2.13-3.44-4-.11-.27,0-.55.21-1.27a10.94,10.94,0,0,0,.61-4.71A6.41,6.41,0,0,0,80,31.35a.83.83,0,0,0-1.35-1A4.27,4.27,0,0,1,76.36,31.9ZM22.88,34.66l-.63-.24-.2-3.2-.93-14.75.64.24ZM17.26,16.43l3-.15,1.13,18-3,.14Zm3,19.46.35,0,.15,3.2-.35-.19Zm-.71,5.18L19,41l-.63-.07h0c0-.59.15-.71.17-.72s.15-.07.42,0a2.69,2.69,0,0,1,1.12.36v.21h.21a.66.66,0,0,1,.17.39A2.43,2.43,0,0,1,19.55,41.07Zm.9,2.46a.37.37,0,0,1,.23-.05l.19,0c1.13.13,2.28.77,2.28,1.14h.1a1.5,1.5,0,0,1-.67,0l-.23,0a5.43,5.43,0,0,0-.67-.1c-.53-.08-1.27-.19-1.41-.23C20.31,43.66,20.42,43.54,20.45,43.53Zm2.35,5.63a9.25,9.25,0,0,0-1,.21,6.14,6.14,0,0,1-.68.17c-.08-.42,0-.54,0-.56a.65.65,0,0,1,.39-.15,5.56,5.56,0,0,1,1.06-.12c.66,0,.73.22.75.31l.1,0A1.88,1.88,0,0,1,22.8,49.16Zm-.14-2.24h-.57c-.48,0-1.59,0-1.77,0-.05-.59,0-.72.05-.74a.7.7,0,0,1,.41-.1H21a4.76,4.76,0,0,1,.65.06l.15,0,.22,0a2.83,2.83,0,0,1,1.53.63A1.56,1.56,0,0,1,22.66,46.92Zm1-4.16c.7.08.76.17.85.44q0,.13.09.33l.13.45A2.66,2.66,0,0,0,23.62,42.76Zm36.71,4.29c-1.88,0-20.51.5-26.14,1.25a55.4,55.4,0,0,0-5.58,1.12,30.4,30.4,0,0,1-4.19.82c.13-.1.3-.16.39-.3a1.62,1.62,0,0,0,.13-1.42,1.87,1.87,0,0,0-.26-.53c.05,0,.14-.06.18-.11a1.5,1.5,0,0,0,.33-1.28,1.81,1.81,0,0,0-.6-1.05,1.76,1.76,0,0,0,.23-.91,1.84,1.84,0,0,0-.09-.53,5.63,5.63,0,0,0,3.13,3.58.76.76,0,0,0,.36.08A.82.82,0,0,0,29,47.3a.84.84,0,0,0-.39-1.11,4.17,4.17,0,0,1-2.41-3.08c0-.17-.08-.32-.12-.44-.49-1.45-1.61-1.53-3-1.63l-.44,0s-.18-.07-.31-.27-.18-.43-.09-.46a3.74,3.74,0,0,0,.71-.17,4.09,4.09,0,0,1,2.36-.22,9.71,9.71,0,0,1,1.47,1,9.21,9.21,0,0,0,2.41,1.59,16.45,16.45,0,0,0,8.08,1c9.26-1.06,22.69-2.72,22.69-2.72l0-.17a4.45,4.45,0,0,1,1.44,3.09A8.33,8.33,0,0,1,60.33,47.05Zm11.83,24.7a22.13,22.13,0,0,0,1.1-5.89,9.84,9.84,0,0,0-1.43-5,9.16,9.16,0,0,1-1.31-5.69c.45-5.46-.11-6.71-1-8-.67-.95-2.09-.62-4.05-.15a21.08,21.08,0,0,1-3.55.61A9.52,9.52,0,0,0,63,43.73a5.68,5.68,0,0,0-1.31-3.63,30,30,0,0,1,3.82-.56,10.2,10.2,0,0,0,3.81-1.46,24.57,24.57,0,0,1,2.85-1.33,30,30,0,0,1,4.23-1.06,13.27,13.27,0,0,1-.4,1.42,3.29,3.29,0,0,0-.18,2.43c.79,2,3.33,5,5,5,2.45,0,5.42-2.91,7-5.64A8.62,8.62,0,0,0,89,34.3a24.71,24.71,0,0,1,6.16,2.85,10.35,10.35,0,0,0,2.5,1.27l5.23,1.51A6.17,6.17,0,0,0,101,43.29a8.45,8.45,0,0,0,.31,4.05c-2.23-.29-4.92-.57-5.57,1.32-1.21,3.53-2.35,8.61-1,12.73a38.2,38.2,0,0,0,3,5.7c1.78,3,4,6.69,4,8.54,0,3-3.45,9.6-14.12,10.86-7.45.87-15.72-.27-16.56-6.1C70.62,77.21,71.4,74.44,72.16,71.75Zm-29,55.67c-2.19-6.2-5.19-14.69-2.79-23.16C43.09,94.52,66.91,85,70.58,83.6c2,3.1,6.5,4.82,12.67,4.82a39,39,0,0,0,4.57-.28C97.5,87,102,81.73,103.1,77.64c1.7,2.25,5.26,7.19,10.27,15.44,4.71,7.76,15.84,17.77,24,25.09,2.92,2.63,5.72,5.15,7.15,6.65a6.07,6.07,0,0,0-3.39,1.78,5.34,5.34,0,0,0-1.41,2.52c-6.64-2.77-24.45-13.47-33.2-21-11.84-10.16-20-8.64-31.32-6.53-2.32.43-4.71.88-7.31,1.25-1.43.21-2.88.38-4.31.56-7.36.87-14.32,1.69-15.52,7-.75,3.33.07,8.47.8,13a50.1,50.1,0,0,1,.79,6.43,5.42,5.42,0,0,0-5.43.67C43.89,129.59,43.52,128.56,43.12,127.42Zm-4.23,14c.33-.18.71-.37,1.1-.56,2-1,4.7-2.31,4.84-5.11a16,16,0,0,0-.11-3.42,3.73,3.73,0,0,1,4.67-.71,14,14,0,0,0,.43,5.82c.18.53.39,1.06.61,1.59.91,2.26,1.38,3.71.39,4.86-1.11,1.3-3.82,1.08-6.43.85a15.24,15.24,0,0,0-5.46.15,5.45,5.45,0,0,1-3.25.12,7,7,0,0,0-3.12.13c-.68.17-.78.17-1,0s-.25-.36-.2-.5a2,2,0,0,1,1.8-.87C34.14,143.89,35.85,143.16,38.89,141.47ZM9.23,149.32l-6.61-7.81H35.19a5.67,5.67,0,0,1-1.95.66h-.15a3.4,3.4,0,0,0-3.29,2,2,2,0,0,0,.75,2.38,2.1,2.1,0,0,0,1.32.46A4.28,4.28,0,0,0,33,146.8a6.27,6.27,0,0,1,1.61-.23,3.83,3.83,0,0,1,.77.12,7.21,7.21,0,0,0,4.11-.16,14.2,14.2,0,0,1,4.8-.08c3,.26,6.15.52,7.83-1.42a4,4,0,0,0,.86-3.52H143.8a3.26,3.26,0,0,1-2.2.7,2.28,2.28,0,0,0-1.42.25,2.25,2.25,0,0,0,.34,4,4.07,4.07,0,0,0,1.36.26,4.76,4.76,0,0,0,1.07-.15,3.91,3.91,0,0,1,1.55-.09c3.93.55,6.37-.57,7.26-3.34a5.92,5.92,0,0,1,.85-1.63l0,0h12.81l6.61,7.81Z"/><path class="cls-12" d="M87.5,12.54a.83.83,0,0,0,.74.46.78.78,0,0,0,.37-.09A.82.82,0,0,0,89,11.8a7.44,7.44,0,0,0-1.19-1.59.83.83,0,0,0-1.18,1.17A5.46,5.46,0,0,1,87.5,12.54Z"/><path class="cls-12" d="M90.5,10.05a.85.85,0,0,0,.31-.06,5.16,5.16,0,0,0,2-2.26.84.84,0,0,0-.37-1.12A.83.83,0,0,0,91.35,7,3.83,3.83,0,0,1,90.2,8.44a.84.84,0,0,0-.47,1.08A.83.83,0,0,0,90.5,10.05Z"/><path class="cls-12" d="M69.54,18.63c-.39,0-.71.46-.71,1s.32,1,.71,1,.71-.46.71-1S69.93,18.63,69.54,18.63Z"/><path class="cls-12" d="M68.21,16.51a.45.45,0,1,0,.24.87,2.39,2.39,0,0,1,2.28.8.44.44,0,0,0,.33.15.46.46,0,0,0,.33-.77A3.31,3.31,0,0,0,68.21,16.51Z"/><path class="cls-12" d="M73.52,20.66,73,20.31a.45.45,0,1,0-.48.76l.57.36a.4.4,0,0,0,.24.07.46.46,0,0,0,.24-.84Z"/><path class="cls-12" d="M73.46,18.83l-.74.22a.45.45,0,0,0-.3.56.44.44,0,0,0,.43.33l.13,0,.74-.22a.45.45,0,0,0,.3-.56A.44.44,0,0,0,73.46,18.83Z"/><path class="cls-12" d="M68,14a5.23,5.23,0,0,1,1.48.05l.24.07a2.53,2.53,0,0,0,.87.19h.26a.47.47,0,0,0,.41-.5.48.48,0,0,0-.5-.41,1.51,1.51,0,0,1-.76-.12l-.25-.09A5.57,5.57,0,0,0,68,13.11a.47.47,0,0,0-.44.48A.45.45,0,0,0,68,14Z"/></g></g></g></svg>