<svg xmlns="http://www.w3.org/2000/svg" viewBox="0 0 152.52 192.35"><defs><style>.cls-1{isolation:isolate;}.cls-2{mix-blend-mode:multiply;}.cls-3{fill:#4ab5d1;}.cls-4{fill:#f69a21;}.cls-5{fill:#d6e3a6;}.cls-6{fill:#929d42;}.cls-7{fill:#b2c65d;}.cls-8{fill:#fdf7cb;}.cls-9{fill:#bbb572;}.cls-10{fill:#e3de96;}.cls-11{fill:#eed1a0;}.cls-12{fill:#f2c179;}.cls-13{fill:#1b1819;}</style></defs><title>niño</title><g class="cls-1"><g id="Capa_2" data-name="Capa 2"><g id="Capa_1-2" data-name="Capa 1"><g class="cls-2"><path class="cls-3" d="M103.21,112.76c-.17-2-.37-4.19-.55-6.18l-.69,0-.47,6.1Z"/><path class="cls-3" d="M62.07,146.32c1.57.11,3.66.11,6.11.31l.45-5.84-6.1-.47Z"/><path class="cls-3" d="M96.81,93.85l-1.37-.1a3.84,3.84,0,0,1-2.38,2.1,10.67,10.67,0,0,1-2.57.3l-.26,3.33,6.11.47Z"/><path class="cls-3" d="M61.41,134.09c-.67,2.19-1.27,4.26-1.72,6l2.84.22.47-6.11Z"/><rect class="cls-3" x="82.95" y="111.44" width="6.12" height="6.12" transform="translate(-34.77 191.45) rotate(-85.59)"/><path class="cls-3" d="M98.81,147.5a39.38,39.38,0,0,0,6.37-3.05l.07-.84-6.11-.47Z"/><rect class="cls-3" x="86.69" y="142.42" width="6.12" height="6.12" transform="translate(-62.2 223.79) rotate(-85.59)"/><path class="cls-3" d="M71.85,98.07h.08l0-.44C71.93,97.76,71.89,97.92,71.85,98.07Z"/><path class="cls-3" d="M103.42,125.05c0-2.39.09-4.56.1-6.13l-2.49-.19-.47,6.1Z"/><path class="cls-3" d="M104,137.38a32.8,32.8,0,0,1-.57-6.19l-3.34-.25-.47,6.1Z"/><path class="cls-3" d="M74.26,147.36l5.72.44a5.53,5.53,0,0,0,.45-.84l.41-5.23-6.11-.47Z"/><path class="cls-3" d="M77.32,67.8l3.06.23.14-1.74C78.83,66.34,78,66.26,77.32,67.8Z"/><path class="cls-3" d="M82.76,69.34a3.88,3.88,0,0,1,.42-1.09L80.38,68l-.47,6.1L82,74.3C82.31,71.86,82.59,70.06,82.76,69.34Z"/><path class="cls-3" d="M70.21,104.08c-.54,1.91-1.13,4-1.72,6l2.5.2.47-6.11Z"/><path class="cls-3" d="M101.12,93a20.48,20.48,0,0,1,.86-4.86l-4.54-.35c-.08.27-.15.54-.22.8l-.41,5.29,4.87.38A3.84,3.84,0,0,1,101.12,93Z"/><path class="cls-3" d="M75.94,73.83c-.29,2-.55,4.15-.7,6.08l4.2.33.47-6.11Z"/><path class="cls-3" d="M75.07,86c0,2.63-.23,4.49-.66,5-.23.29-.57.61-.91,1l5,.39.47-6.1Z"/><path class="cls-3" d="M84.4,95.5h0a4.14,4.14,0,0,1-3.07-2.83l-2.82-.22L78,98.54l6.1.47Z"/><path class="cls-3" d="M66.8,116.09c-.24.87-.46,1.7-.66,2.45-.27,1-.62,2.25-1,3.56l4.91.38.48-6.1Z"/><path class="cls-3" d="M63.27,128.1h.2l.07-.86Z"/><path class="cls-3" d="M81.44,80.39l-2-.15L79,86.34l2.16.16C81.19,84.39,81.29,82.32,81.44,80.39Z"/><path class="cls-3" d="M103.52,82.09c.16-.59.31-1.19.47-1.79l.33-4.28-4-.31c-.38,1.75-.85,3.85-1.36,6Z"/><path class="cls-3" d="M81.31,135.63l-.47,6.1.88.07c.32-2.16.41-4,.42-4,0,1.38,0,2.75,0,4l4.81.37.47-6.1Z"/><rect class="cls-3" x="68.86" y="134.91" width="6.12" height="6.12" transform="matrix(0.08, -1, 1, 0.08, -71.17, 199.07)"/><rect class="cls-3" x="63.23" y="128.34" width="6.12" height="6.12" transform="translate(-69.82 187.38) rotate(-85.59)"/><rect class="cls-3" x="70.74" y="110.5" width="6.12" height="6.12" transform="translate(-45.1 178.41) rotate(-85.59)"/><rect class="cls-3" x="69.8" y="122.71" width="6.12" height="6.12" transform="translate(-58.14 188.74) rotate(-85.59)"/><path class="cls-3" d="M106.33,70.1s0,0,0-.07l-1.52-.12L104.32,76l.76.06A40.62,40.62,0,0,0,106.33,70.1Z"/><rect class="cls-3" x="93.27" y="136.79" width="6.12" height="6.12" transform="translate(-50.52 225.14) rotate(-85.59)"/><rect class="cls-3" x="82" y="123.65" width="6.12" height="6.12" transform="translate(-47.81 201.78) rotate(-85.59)"/><rect class="cls-3" x="71.68" y="98.3" width="6.12" height="6.12" transform="translate(-32.06 168.09) rotate(-85.59)"/><path class="cls-3" d="M103.43,68.76a3.28,3.28,0,0,0-2.7.82l0,0,4,.31.08-1C104.45,68.87,104,68.83,103.43,68.76Z"/><path class="cls-3" d="M105.41,141.42l-.16,2.19.83.07A5.84,5.84,0,0,0,105.41,141.42Z"/><path class="cls-3" d="M103.05,95.07l-.19-.06-.35,4.47C103,98,103.79,95.21,103.05,95.07Z"/><rect class="cls-3" x="77.31" y="104.87" width="6.12" height="6.12" transform="translate(-33.42 179.77) rotate(-85.59)"/><rect class="cls-3" x="76.37" y="117.07" width="6.12" height="6.12" transform="translate(-46.45 190.09) rotate(-85.59)"/><rect class="cls-3" x="88.58" y="118.02" width="6.12" height="6.12" transform="translate(-36.13 203.13) rotate(-85.59)"/><rect class="cls-3" x="89.52" y="105.81" width="6.12" height="6.12" transform="translate(-23.09 192.8) rotate(-85.59)"/><rect class="cls-3" x="75.43" y="129.28" width="6.12" height="6.12" transform="translate(-59.49 200.42) rotate(-85.59)"/><rect class="cls-3" x="94.21" y="124.59" width="6.12" height="6.12" transform="translate(-37.48 214.81) rotate(-85.59)"/><path class="cls-3" d="M102,106.53l.34-4.45c0-.71,0-1.29,0-1.67L96.34,100l-.47,6.11Z"/><rect class="cls-3" x="87.64" y="130.22" width="6.12" height="6.12" transform="translate(-49.16 213.46) rotate(-85.59)"/><rect class="cls-3" x="95.15" y="112.38" width="6.12" height="6.12" transform="translate(-24.45 204.48) rotate(-85.59)"/><rect class="cls-3" x="83.89" y="99.24" width="6.12" height="6.12" transform="translate(-21.73 181.12) rotate(-85.59)"/><path class="cls-4" d="M70.54,83.86c-1.73-1.45-2.43-1.27-3.23-.34s.3,1.86,0,3.19S63,94.31,58.76,97A8.71,8.71,0,0,1,51,98,6.47,6.47,0,0,1,49.52,98c-5.27-1.06-1.8-9.34-1.12-10.88s-3-1.4-3.17-4.17c-.12-1.65,1.78-5.07,7.29-2.47.21-1.12-4.89-2.44-4.89-2.44-2.23.33-5.11,1.59-5.84,1.48s-5.2-5-6.61-4.28c-.46.24-3.87,7.26-2.63,10.38S30.06,93.51,30,94.24s2.65.63,2.65.63a78.68,78.68,0,0,0-6,7.11c-.77,1-1.56,2.08-2.37,3.25-1,1.44-2,3-3,4.64a52.31,52.31,0,0,0-6.42,15.54s-6.85-1.64-6-8.12,4.46-8.83,7.54-8.83a28,28,0,0,0,6.23-.84s.41-4.67-7-4.42S.15,109.84,1,117.77s5.79,10,10.41,10.36c3.36.3,1.68,3.58,3.48,6.65l.32.22a16.27,16.27,0,0,1,2,6.59,7.45,7.45,0,0,1-.22,2.08c-.82,3.22,2.36,7.77,4.88,9.27,4.58,2.73,9.91,7.16,11,6.5.6-.37,2.83-1.66,3.15-2.52a1.84,1.84,0,0,0-.77-2.38c-1.08-.47-1.66,1.34-3.59.76-2.61-.8-4.82-3.89-6.15-6.24l0-.09a15.05,15.05,0,0,0,7.2,4.36c5.53,1.6,12,2.58,12.67,1.54.4-.58,1.93-2.66,1.87-3.57,0-.73-.49-1.88-1.65-1.88s-1,1.9-3,2.14c-4.89.57-10.33-4.12-11.14-6.39-1.42-4,1.1-3.71,1.66-9.43s-4.8-15.1,4.46-18.85S46.24,107,48.9,105.75s7.87.11,12.33-3.19,8.6-13.93,9.11-15.79C70.66,85.63,71.63,84.79,70.54,83.86Z"/><path class="cls-4" d="M81.5,79.68c-.12,1.45-.22,2.95-.29,4.53l16.58,2.25c.38-1.44.75-2.94,1.1-4.42Z"/><path class="cls-4" d="M76.57,70.29l-7.5-1-4.5,4,11.24,1.53C76,73.09,76.3,71.54,76.57,70.29Z"/><path class="cls-4" d="M75.45,64.73a34.63,34.63,0,0,0-2.92-2.38,5.25,5.25,0,0,0-2.19-.47s1.45.39,1.56,1.41a5.39,5.39,0,0,1-.32,2.18l5.52.75Z"/><path class="cls-4" d="M106.2,69.53a1.17,1.17,0,0,1,.13.57s0,.06,0,.08l7,.95.23-4.53-1.15-.16Z"/><path class="cls-4" d="M81.09,88.34c0,1,0,2.08,0,3.12A4.31,4.31,0,0,0,81.41,93l13.34,1.81a4.55,4.55,0,0,0,.8-1.21c.35-.82.72-1.89,1.1-3.09Z"/><path class="cls-4" d="M82.45,71.09c-.18,1.13-.38,2.66-.57,4.49L99.81,78c.38-1.73.71-3.26,1-4.44l-3.66-.5s-2.12,2-6.91,1.34c-4.06-.59-5.36-3-5.36-3Z"/><path class="cls-4" d="M102.24,87.06l5.66.77,4.37-4-8.9-1.21C103,84.19,102.58,85.69,102.24,87.06Z"/><path class="cls-4" d="M104.42,78.64l14.08,1.92-3.4-5-9.56-1.3C105.22,75.54,104.84,77.05,104.42,78.64Z"/><path class="cls-4" d="M74.41,91.09a8.51,8.51,0,0,0,.6-3.57l-2.92-.4.45,4.63,1.11.15A10.71,10.71,0,0,0,74.41,91.09Z"/><path class="cls-4" d="M101.12,93c.44,1.66,1.11,1.93,1.93,2.1.24,0,.31.39.29.86l1.83-4.32-3.85-.52A6.28,6.28,0,0,0,101.12,93Z"/><path class="cls-4" d="M75.34,78.84l-8.62-1.17,4,5.12,4.34.59C75.07,82.18,75.17,80.58,75.34,78.84Z"/><rect class="cls-5" x="146.11" y="13.25" width="4.71" height="19.7" transform="translate(293.08 63.88) rotate(-173.09)"/><polygon class="cls-6" points="144.94 32.59 149.62 33.16 147.7 33.72 143.03 33.16 144.94 32.59"/><polygon class="cls-7" points="144.94 32.59 143.03 33.16 145.4 13.6 147.31 13.04 144.94 32.59"/><rect class="cls-8" x="145.79" y="33.04" width="0.95" height="6.69" transform="translate(287.09 90.11) rotate(-173.09)"/><polygon class="cls-9" points="145.39 39.66 146.34 39.77 145.94 39.99 144.99 39.88 145.39 39.66"/><polygon class="cls-10" points="145.39 39.66 144.99 39.88 145.79 33.23 146.2 33.01 145.39 39.66"/><rect class="cls-11" x="53.01" y="0.81" width="4.71" height="19.7" transform="translate(4.33 -13.32) rotate(14.27)"/><polygon class="cls-6" points="55.22 20.78 50.65 19.62 52.23 20.84 56.8 22 55.22 20.78"/><polygon class="cls-12" points="55.22 20.78 56.8 22 61.65 2.91 60.07 1.69 55.22 20.78"/><rect class="cls-8" x="52.13" y="20.5" width="0.95" height="6.69" transform="translate(7.5 -12.23) rotate(14.27)"/><polygon class="cls-9" points="52.24 27.21 51.32 26.97 51.62 27.32 52.54 27.56 52.24 27.21"/><polygon class="cls-10" points="52.24 27.21 52.54 27.56 54.19 21.07 53.9 20.72 52.24 27.21"/><path class="cls-13" d="M108.39,30.69a1,1,0,0,0,.8.43,1,1,0,0,0,.55-.17,1,1,0,0,0,.25-1.34,13.16,13.16,0,0,0-.94-1.25,1,1,0,1,0-1.48,1.24C107.86,30,108.13,30.31,108.39,30.69Z"/><path class="cls-13" d="M98.19,41.19a2.36,2.36,0,0,1,2.3,0,1.7,1.7,0,0,1,1,1.88.81.81,0,0,0,.72.9h.09a.82.82,0,0,0,.81-.72,3.32,3.32,0,0,0-1.93-3.53A3.87,3.87,0,0,0,97,40a.82.82,0,1,0,1.15,1.16Z"/><path class="cls-13" d="M87.17,40.42a.81.81,0,0,0,1.27-1,3.85,3.85,0,0,0-4.09-.82A3.32,3.32,0,0,0,82,41.87a.82.82,0,0,0,.81.82.82.82,0,0,0,.82-.82,1.71,1.71,0,0,1,1.23-1.75A2.36,2.36,0,0,1,87.17,40.42Z"/><path class="cls-13" d="M98.54,43.63a1.46,1.46,0,1,0,1,1.64A1.37,1.37,0,0,0,98.54,43.63Z"/><path class="cls-13" d="M86.77,44.07a1.29,1.29,0,1,0-1.5,1.22A1.37,1.37,0,0,0,86.77,44.07Z"/><path class="cls-13" d="M98.45,53.76c.71-1.11.87-1.91.5-2.44-.55-.8-1.85-.7-4-.5a26,26,0,0,1-3.62.15,16.06,16.06,0,0,1-3.46-.67c-1-.28-1.49-.43-2-.11a1.08,1.08,0,0,0-.41.68h0c-.27,2.85,1.65,6.12,5.84,6.84a5.1,5.1,0,0,0,.86.08C95.08,57.8,97.44,55.34,98.45,53.76Zm-11.32-2,.29.08a17.55,17.55,0,0,0,3.81.74,29.11,29.11,0,0,0,3.86-.16l2.34-.19A7.92,7.92,0,0,1,95.16,55a4.64,4.64,0,0,1-3.55,1.14A5,5,0,0,1,87.13,51.78Z"/><path class="cls-13" d="M89.94,49.62a1,1,0,1,0,1.37-1.37,4,4,0,0,1-.84-1.16,12.3,12.3,0,0,1,2.09-2.62,1,1,0,0,0-1.39-1.34c-1.13,1.16-2.5,2.74-2.62,3.68C88.41,48,89.58,49.26,89.94,49.62Z"/><path class="cls-13" d="M150.4,37.35A2,2,0,0,0,148.52,35a2.26,2.26,0,0,0-1.4.45l.16-1.28.36,0h.06a.41.41,0,0,0,.16,0l1.91-.57s.06,0,.1-.07a.41.41,0,0,0,.13-.1.37.37,0,0,0,.09-.16.6.6,0,0,0,.06-.11l2.37-19.55a.62.62,0,0,0-.11-.4.57.57,0,0,0-.36-.2l-4.67-.56s-.08,0-.13,0-.06,0-.09,0l-1.91.57a.51.51,0,0,0-.38.44L142.5,33.09s0,0,0,0,0,0,0,.07a.5.5,0,0,0,.18.34v0s.08,0,.12,0a.44.44,0,0,0,.15.08l2.48.3-.05.42a1.27,1.27,0,0,0-.78-.34c-1.19-.13-6.3,1.52-7.36,2.66-.73.76-1.38,3-2.38,6.47a42.34,42.34,0,0,1-1.58,4.93,36.94,36.94,0,0,1-18,17.69.88.88,0,0,0-.4-.36,4.43,4.43,0,0,0-2.53,0,65.57,65.57,0,0,0-6.16,2.88,5.84,5.84,0,0,0-2-.42l-.71-.08a4.58,4.58,0,0,0-2.92.65,14.81,14.81,0,0,0-1.51-.6,7,7,0,0,1-.33-1.62,13.52,13.52,0,0,1,.33-3.62,15,15,0,0,0,3.71-1.92,20,20,0,0,0,3.08.31c3.81,0,6.84-1.28,8.29-3.62,2-3.26.64-7.45.18-8.64.33-2.5-.39-3.91-1.12-4.62a3.45,3.45,0,0,0-1.22-.73s0,0,0-.09A21,21,0,0,0,112,34a1,1,0,0,0-1.87.5,17.88,17.88,0,0,1,.37,6.62c-2.15-2.8-6.56-4.42-11.33-5.35a2.56,2.56,0,0,0,.32-.94,2.52,2.52,0,0,0-.09-.82c0-.06.08-.1.09-.16.56-3.1.09-3.67-.06-3.86-.81-1-8.9-1-9.63-.73-1.41.47-1.43,2.86-1.4,3.58,0,.08.07.13.09.2a4.71,4.71,0,0,0-.12,1.57c-1.64-.07-3.12-.09-4.31-.09a6.38,6.38,0,0,0-1.63.2,16.55,16.55,0,0,1,4.68-6.74,14.84,14.84,0,0,1,16.73-1.42c.42.24.85.52,1.27.82a1,1,0,0,0,1.35-.23,1,1,0,0,0-.23-1.35,15,15,0,0,0-1.43-.92,16.19,16.19,0,0,0-4.13-1.64,1.6,1.6,0,0,0,.1-.31,1.52,1.52,0,0,0-.33-1.12,3.12,3.12,0,0,0-2.07-1,3.15,3.15,0,0,0-2.24.5,1.5,1.5,0,0,0-.6,1,1.64,1.64,0,0,0,0,.44,15.9,15.9,0,0,0-9.71,3.77,19.41,19.41,0,0,0-6.11,10.28l-.07.29s0,.06,0,.09-.06.1-.06.16c-1.9,13.15-.79,20.87,3.37,23.59a19.92,19.92,0,0,0,3.78,1.89c.17,2.68-.2,3.6-1.07,4.58a.89.89,0,0,0,0-.43c-.08-.33-.64-2-4-1.64-.57,0-1.06.06-1.48.07a5.18,5.18,0,0,0-2.15.36,57.16,57.16,0,0,0-4.84-4.12,5.64,5.64,0,0,0-2.93-.65.94.94,0,0,0-.57.26,37.55,37.55,0,0,1-9.15-21.7,43.26,43.26,0,0,1,.31-5.19c.34-3.63.52-5.91.12-6.88C60.32,26,56.13,22.59,55,22.26a1.33,1.33,0,0,0-.84,0l.1-.41,2.42.61.13,0,.17,0c.08,0,.11-.12.17-.18s.11,0,.13-.09,0-.05,0-.07,0,0,0,0L62.16,3A.52.52,0,0,0,62,2.49L60.4,1.27s-.06,0-.09,0-.06-.08-.11-.09L55.64,0A.53.53,0,0,0,55,.4L50.14,19.48s0,.07,0,.11a.47.47,0,0,0,0,.23.42.42,0,0,0,.08.12s0,.07.06.09l1.58,1.22a.44.44,0,0,0,.19.1l.35.09-.32,1.25A2,2,0,0,0,51,21.77a2,2,0,0,0-1.5.1,2.27,2.27,0,0,0-1.09,1.38,2.57,2.57,0,0,0,.29,2.29,1.2,1.2,0,0,0-.33.05,1.36,1.36,0,0,0-.79.92,1.7,1.7,0,0,0,0,1.19,1.28,1.28,0,0,0-.27.05,1.39,1.39,0,0,0-.79.91A1.67,1.67,0,0,0,46.7,30a.57.57,0,0,0-.18,0,1.17,1.17,0,0,0-.67.8c-.36,1.34.84,2,1.89,2.56l.35.19c.29.16.52.27.76.38,0,.1,0,.21,0,.3A5.64,5.64,0,0,0,52,36.93a4,4,0,0,1,.46.2c.24.25.65,1.7.82,4.17.42,6.05,2.13,19.83,8.82,28.2A5.3,5.3,0,0,0,60.83,73a2.18,2.18,0,0,0,.89,1.61s0,0,0,0a39.71,39.71,0,0,1,7.31,7.28,2.41,2.41,0,0,0-2.5,1,2.54,2.54,0,0,0-.33,2.48,2.25,2.25,0,0,1,.12,1.13c-.24,1-4,7.09-8.12,9.74a7.7,7.7,0,0,1-7.41.7A8.16,8.16,0,0,1,51.71,94a16.75,16.75,0,0,1,4.34-4.45,18,18,0,0,0,4.26-4.27,7.63,7.63,0,0,0,.94-6.43,2.57,2.57,0,0,0-1.45-1.68c-.41-.15-1.17-.4-6.31,1.38a1.15,1.15,0,0,1-1.1-.17c-1.12-.73-3-1.93-4.91-1.69a26.76,26.76,0,0,0-3.8,1c-.68.22-1.61.51-1.66.56a14,14,0,0,1-1.41-1.1c-2.56-2.11-4.49-3.57-5.89-2.81-1.07.58-4.45,8.14-3.06,11.6.75,1.89-.95,4.92-1.87,6.55A4.68,4.68,0,0,0,29,94.17a1.29,1.29,0,0,0,.36,1,2.3,2.3,0,0,0,1.16.56c-1.12,1.23-2.81,3.19-4.71,5.69-.77,1-1.58,2.11-2.39,3.28l-.41.6a4.45,4.45,0,0,0-.74-1c-1.37-1.44-3.65-2.13-6.64-2a17.7,17.7,0,0,0-12.37,6,12.49,12.49,0,0,0-3.23,9.66c.78,6.85,4.58,10.62,11.29,11.21,1.4.12,1.58.74,1.93,2.66a11.92,11.92,0,0,0,1.14,3.73v0a15.18,15.18,0,0,1,1.89,6.11,6.33,6.33,0,0,1-.19,1.81c-1,3.74,2.57,8.7,5.32,10.35,1.59.94,3.25,2.08,4.86,3.19,3.29,2.26,5.08,3.45,6.36,3.45a1.75,1.75,0,0,0,.95-.27c1.79-1.07,3-2,3.38-2.9a3.3,3.3,0,0,0,.1-1.84,33.08,33.08,0,0,0,6.28.85c1.38,0,2.46-.23,2.88-.84l.14-.2c1.19-1.69,2-3,1.91-4a2.76,2.76,0,0,0-2.62-2.79,2.26,2.26,0,0,0-1.88,1.24c-.33.5-.55.83-1.22.9-4.39.56-9.42-3.81-10.11-5.75a3.8,3.8,0,0,1,.23-3.7,14.64,14.64,0,0,0,1.48-5.3,23.25,23.25,0,0,0-.48-5.71c-.83-5.11-1.61-9.93,4.35-12.34,6.39-2.6,8.33-6.37,9.6-8.87.57-1.12,1-2,1.64-2.29a11.67,11.67,0,0,1,3.49-.58c2.66-.2,6-.46,9-2.72,4.61-3.42,8.53-13.46,9.34-15.9a27.3,27.3,0,0,1,.4,5,.86.86,0,0,0,.18.48,4.13,4.13,0,0,0-.29,1c0,.07,0,.32-.06.65-.06.66-.17,2-.29,2.55-.58,2.39-1.74,6.44-3,10.74-1.07,3.72-2.16,7.55-2.92,10.43-.66,2.52-1.76,6-2.94,9.78-2.75,8.75-4.53,14.65-4.31,16.77.15,1.4,1.15,2,2.63,2.27-.9,4.26-4.61,21.7-6,28.14A2.35,2.35,0,0,0,54,175a2,2,0,0,0-1.68.28,1.91,1.91,0,0,0-.54,1.6,7.78,7.78,0,0,1-.11,1.22c-.14.81-3.28,2.46-5,3.34-1.22.64-2.37,1.24-3.22,1.81-2,1.36-2.72,4.55-2.19,6.72a2.63,2.63,0,0,0,2.07,2.28c.42,0,.83.07,1.22.07a18.71,18.71,0,0,0,5.11-1c.94-.26,2-.61,3.11-1A30.35,30.35,0,0,1,58.08,189c.42,0,.82,0,1.18,0a6.62,6.62,0,0,0,4.37-1.14c2.52-1.69,1.86-4.93,1.43-7.07-.17-.84-.3-1.33-.39-1.68a3.28,3.28,0,0,1-.15-1.1,2,2,0,0,0-.85-1.67c.07-.19.14-.35.22-.56a.76.76,0,0,0,.06-.16c.21-.58.42-1.23.64-2,5.08-16.92,8.06-23.82,8.71-25.25a29.86,29.86,0,0,1,4.27,1.3,2.32,2.32,0,0,0,2.17-.21,5.55,5.55,0,0,0,1.82-2.71,3.06,3.06,0,0,0,.93,1.71c1.4,1.17,2.1,1.57,6.9,1.57h1.4c1.35,3.46,5.07,9,10.92,9a10,10,0,0,0,2-.21c6.59-1.36,17-9.6,21.15-14.07a3.67,3.67,0,0,0,.43.8,1.65,1.65,0,0,0,2.89.29,8.72,8.72,0,0,1,1-.78c.69-.45,4,.65,5.85,1.25a35.24,35.24,0,0,0,3.54,1.05,4.31,4.31,0,0,0,.88.09,7.11,7.11,0,0,0,5.48-3.19,2.64,2.64,0,0,0,.18-3.07c-1.26-1.65-2.53-2.44-5.05-3.91-.85-.49-1.85-1-2.86-1.56a28.62,28.62,0,0,1-4.7-2.8c-.31-.28-.58-.56-.83-.83a6.67,6.67,0,0,0-3.86-2.35c-3-.65-4.83,2.09-6.07,3.89-.48.71-.75,1.15-.94,1.46a3.47,3.47,0,0,1-.67.87,2,2,0,0,0-.61,1.77A120.13,120.13,0,0,1,107,143.21a11.51,11.51,0,0,0-.78-2.33c-.37-.91-.83-2-1.23-3.33-.83-2.66-.67-10.92-.57-15.85,0-1.37.06-2.57.06-3.46,0-2.09-.34-5.92-.68-9.62-.32-3.42-.71-7.68-.58-8.32A16.22,16.22,0,0,0,104.3,96c0-.05.08-.07.1-.12s2.73-6.51,6.09-9.5,9.32-5.36,9.38-5.39,0,0,0,0a2.15,2.15,0,0,0,1.3-1.32,5.35,5.35,0,0,0-.41-3.91s-.07,0-.09-.07c10.27-5.53,16.37-18.47,18.51-23l.12-.25c1-2.24,2-3.45,2.25-3.58a2.39,2.39,0,0,1,.52,0A5.65,5.65,0,0,0,146,47.49a.59.59,0,0,0,.15-.28c.28,0,.56,0,.84-.07l.39,0c1.19-.15,2.54-.32,2.68-1.71a1.15,1.15,0,0,0-.32-1,1.29,1.29,0,0,0-.16-.09,1.65,1.65,0,0,0,.62-1.23,1.35,1.35,0,0,0-.4-1.14,1.16,1.16,0,0,0-.24-.14,1.71,1.71,0,0,0,.48-1.1,1.41,1.41,0,0,0-.41-1.14,1.46,1.46,0,0,0-.3-.17,1.87,1.87,0,0,0,.47-.37A2.81,2.81,0,0,0,150.4,37.35ZM97.85,22.25l.3,0a1.82,1.82,0,0,1,1,.41,1.23,1.23,0,0,1-.49.15l-1-.1c-.36-.11-.62-.25-.66-.25A1.24,1.24,0,0,1,97.85,22.25Zm50,14.24a.76.76,0,0,1,.51-.18h.05c.65,0,.71.62.69,1a1.48,1.48,0,0,1-.34.9.8.8,0,0,1-.49.27c-.37,0-.74-.54-.7-1.26A.94.94,0,0,1,147.88,36.49Zm-.94,7.35c-1.73.25-2.71,0-2.77-.36a.27.27,0,0,1,.05-.23c.27-.33,1.36-.4,2-.45l.55,0,.29,0a11.08,11.08,0,0,1,1.13-.08,1.21,1.21,0,0,1,.73.14.26.26,0,0,1,0,.2c0,.5-.29.63-1.61.8Zm-.16-2.37a10.56,10.56,0,0,1-2.24.08c-.72-.07-1-.25-1-.36a.22.22,0,0,1,0-.18c.34-.42,1.82-.53,2.53-.58l.8-.08c.29,0,.74-.08,1.13-.08a1.2,1.2,0,0,1,.73.15s.05.09,0,.19c0,.51-.29.64-1.61.8Zm.29-2.34-.3,0h-.09l0-.45A2,2,0,0,0,147.07,39.13Zm-.61-2.57a2,2,0,0,0-.13.56,1.18,1.18,0,0,0,0,.27l-.23,1.83H146l-.3,0,.62-5.17.42,0Zm2.69-4-3.61-.44,2.24-18.49,3.62.43ZM145.88,14l.81-.24-2.23,18.4-.8.23Zm-33,42.55c-1.32,2.12-4.55,3.15-8.48,2.8a12.83,12.83,0,0,0,3-4.47,6,6,0,0,0,6.14-3.29A7.16,7.16,0,0,1,112.88,56.57Zm-5.82-16.06a7.19,7.19,0,0,1,2.28,2.36,14.9,14.9,0,0,1-2.89,6.4A33.51,33.51,0,0,1,107.06,40.51ZM98.16,31a7.5,7.5,0,0,1-.07,1.4A35.85,35.85,0,0,0,90,31.7a2.43,2.43,0,0,1,.28-1A38.86,38.86,0,0,1,98.16,31ZM89.9,33.23c1.46,0,7.07.24,7.76.58a1,1,0,0,1,.25.8.93.93,0,0,1-.44.71,1.22,1.22,0,0,1-.27.06c-2.5-.39-5-.62-7.31-.75A4.3,4.3,0,0,1,89.9,33.23ZM86.38,69.37c1.65-1.66,2.4-2.8,2.32-6a12.35,12.35,0,0,0,1.89.38h.08a1,1,0,0,0,.09-1.93A17.9,17.9,0,0,1,84,59.24c-2.35-1.53-4.68-6.53-2.53-21.59l0-.15c.16-.74,1.4-1.09,2.52-1.1,1.57,0,4.19,0,7.17.21,1.07.14,2.23.26,3.32.32a36.92,36.92,0,0,1,10.75,2.6,38.8,38.8,0,0,0-.6,12.18,1,1,0,0,0,.6.83,1,1,0,0,0,1-.17,17.53,17.53,0,0,0,4.49-7.24,1.45,1.45,0,0,1,1.15.39c.63.61.81,1.84.5,3.45-.77,4-3.16,4.15-5.57,4a1,1,0,0,0-1,.64c-2.1,6.17-8,7.58-9.74,7.86a1,1,0,0,0,.16,1.93h.15l.62-.13a15.26,15.26,0,0,0-.18,3.12,10.53,10.53,0,0,0,.65,2.86c.46,1.39.54,1.84.17,2.17-1.32,1.19-3.53,3.18-8.26,1.88-3-.83-3.61-1.86-3.71-2.26A1.85,1.85,0,0,1,86.38,69.37ZM84.7,68.1A.88.88,0,0,0,85,68a3.56,3.56,0,0,0-1.14,3.43c.42,1.61,2.13,2.83,5.06,3.64a12.77,12.77,0,0,0,3.4.49A9.37,9.37,0,0,0,99,72.8a2.63,2.63,0,0,0,.78-2.62l.54.25,0,0,.06,0,0,0c0,.26-.13.75-.2,1l-.2,1c-.84,4-3.4,16.14-5.35,20.66a3,3,0,0,1-1.85,1.75c-1.85.51-4.92.36-8.22-.37a3.24,3.24,0,0,1-2.53-3.11A121.6,121.6,0,0,1,83.7,69.56C84,68.21,84.67,68.11,84.7,68.1Zm-28.22-47-.66-.51,4.57-18,.66.51Zm-.59-19.9,3.53.89-2.29,9-2.3,9-1.76-.45-1.77-.45Zm-2.51,20.5-1.29,5-.27-.13-.11-.06.45-1.77a2.1,2.1,0,0,0,.13-.26,2.8,2.8,0,0,0,.08-.57l.6-2.36Zm-2.06,4.2-.1.41-.08,0-.32-.16a2.25,2.25,0,0,0,.44-.14Zm-1.7-2.24a1,1,0,0,1,.45-.64.67.67,0,0,1,.28-.06.82.82,0,0,1,.26,0,.76.76,0,0,1,.46.37,1,1,0,0,1,0,.76,1.59,1.59,0,0,1-.55.79A.68.68,0,0,1,50,25C49.63,24.92,49.4,24.32,49.62,23.64Zm-.9,3.22c0-.09.06-.15.11-.16a.23.23,0,0,1,.13,0,5.2,5.2,0,0,1,1.63.64l.72.36c.64.31,2,.95,2.15,1.46,0,.05,0,.09-.14.25a5.45,5.45,0,0,1-3-1l-.37-.2C48.76,27.56,48.57,27.35,48.72,26.86Zm.56,3.69-.35-.2c-1.18-.63-1.38-.84-1.22-1.33,0-.09.06-.15.1-.17l.14,0a5.27,5.27,0,0,1,1.62.63l.27.14c.14.08.31.15.49.24.59.28,1.58.74,1.71,1.14a.25.25,0,0,1,0,.23.24.24,0,0,1-.17.13A4.29,4.29,0,0,1,49.28,30.55Zm-1,1.83c-1.06-.58-1.4-.83-1.3-1.2L46.43,31l.56.13c.29-.11,1.36.46,1.77.68l.73.36c.42.21,1.12.54,1.2.78,0,0,0,.11,0,.15s-.1.18-.49.09a6.49,6.49,0,0,1-1.48-.64ZM53.39,36a3.32,3.32,0,0,0-.84-.43,4.34,4.34,0,0,1-1.85-1.22,1.49,1.49,0,0,0,1-.63,1.39,1.39,0,0,0,.14-1.1s0,0,0-.08a2.2,2.2,0,0,0,.37,0A1.45,1.45,0,0,0,53,31.8a1.5,1.5,0,0,0,.14-1.18l0,0a1.93,1.93,0,0,0,.49-.06,1.35,1.35,0,0,0,.83-.64,1.38,1.38,0,0,0,.12-1.12,3.35,3.35,0,0,0-1.68-1.61l.37-1.48a2.18,2.18,0,0,0,.2.37l.21.26a12.53,12.53,0,0,1,1.75,2.4l-.1.26c-.46,1.21-1.69,4.41-.38,6.36a.74.74,0,0,0,1,.2.75.75,0,0,0,.2-1c-.89-1.32.17-4.1.52-5l.12-.32c.33-.94-.63-2.17-2-3.81l-.21-.26a1.27,1.27,0,0,1-.17-.91,4.82,4.82,0,0,1,.15-.53c.82.23,4.59,3.39,5,4.29.29.71,0,3.88-.22,6.19A39.54,39.54,0,0,0,59,39.57a38.74,38.74,0,0,0,11.8,25,5.46,5.46,0,0,1-.32,1,18.7,18.7,0,0,1-4.77,5.63c-8.52-7.33-10.52-23.38-11-30C54.61,39.21,54.26,36.68,53.39,36Zm9.47,37s-.08-.05-.1-.23A3.5,3.5,0,0,1,63.39,71c.37.39.77.75,1.17,1.1A5.1,5.1,0,0,1,62.86,73Zm1.63,1.3a21.15,21.15,0,0,0,7.76-8,6.28,6.28,0,0,0,.68-2.52c1,.79,2.46,2.14,3.67,3.24a5.51,5.51,0,0,0-.39.84c-1,2.64-2.16,11.92-2.11,15.75.08,5.72-.37,6.71-.46,6.84l-.18.2c-.11-2.35-.56-6.49-2.47-9.43A34.32,34.32,0,0,0,64.49,74.34ZM35.18,156.58c-.07.15-.45.63-2.61,1.95-.8-.16-3.31-1.88-5.17-3.16-1.55-1.07-3.31-2.28-5-3.26-2.23-1.33-5.14-5.45-4.43-8.2a8.28,8.28,0,0,0,.24-2.34,12.07,12.07,0,0,0-.37-2.58c4.18,2.53,4.66,2.93,4.79,5.73a8.07,8.07,0,0,0,2,4.71s0,.08,0,.11c1.46,2.56,3.81,5.8,6.71,6.68a3.4,3.4,0,0,0,3.08-.55l.4-.24C35.49,155.67,35.18,156.58,35.18,156.58ZM32,154.37a5.29,5.29,0,0,1-1.57-.85,19.66,19.66,0,0,0,2.08.74l.36.1A1.28,1.28,0,0,1,32,154.37Zm37.8-68.9a6.82,6.82,0,0,0-.41,1c-.51,1.87-4.59,12.18-8.75,15.27-2.6,1.92-5.48,2.14-8,2.34a12.53,12.53,0,0,0-4.13.75c-1.23.56-1.85,1.77-2.56,3.17A14.74,14.74,0,0,1,37.33,116c-7.39,3-6.36,9.35-5.53,14.45a21.71,21.71,0,0,1,.46,5.21,12.45,12.45,0,0,1-1.3,4.66,5.64,5.64,0,0,0-.3,5.18c1,2.71,6.92,7.62,12.16,7a3.43,3.43,0,0,0,2.6-1.74c.1-.15.24-.36.27-.39.61,0,.69,1,.69,1,0,.21-.22.85-1.56,2.76l0,.09c-.79.41-5.75-.07-11.72-1.8-5.39-1.56-8.34-5.09-8.47-7.77-.18-3.79-1.35-4.66-5.82-7.36-2.85-1.73-3.24-3.92-3.59-5.85s-.72-4-3.66-4.25c-5.83-.51-8.86-3.53-9.53-9.5a10.63,10.63,0,0,1,2.77-8.17,15.94,15.94,0,0,1,11-5.34c2.41-.06,4.19.4,5.15,1.39a2.92,2.92,0,0,1,.74,1.32,26,26,0,0,1-5.19.62c-3.47,0-7.52,2.54-8.5,9.67-.79,5.81,4,8.56,6.7,9.2a1,1,0,0,0,.74-.13,1,1,0,0,0,.43-.62,51,51,0,0,1,6.3-15.25c.43-.72.87-1.44,1.34-2.16l.06-.11c.5-.77,1-1.54,1.55-2.31.8-1.15,1.58-2.23,2.34-3.22a80.28,80.28,0,0,1,6-7,1,1,0,0,0,.2-1.07.9.9,0,0,0-.93-.57,10.1,10.1,0,0,1-1.38-.06c.08-.13.15-.27.24-.42,1.15-2.05,3.07-5.47,2-8.22-.91-2.28,1.43-7.81,2.25-9.12.81.18,2.8,1.82,3.68,2.55,1.26,1,1.72,1.41,2.21,1.47a7.05,7.05,0,0,0,2.67-.58,23.18,23.18,0,0,1,3.48-.91c1.19-.18,2.69.81,3.69,1.46a3,3,0,0,0,2.7.31c1.38-.48,2.37-.78,3.12-1A1.48,1.48,0,0,0,58,80.55a2.72,2.72,0,0,0,1.65.19.22.22,0,0,0,0,0,6.22,6.22,0,0,1-1,3.59,16.35,16.35,0,0,1-3.83,3.77A18.22,18.22,0,0,0,50,93.14c-.76,1.62-1.51,3.78-.78,4.8,1,1.33,5.76,2.69,10.08-.08,4.5-2.89,8.61-9.41,9-10.93a4.12,4.12,0,0,0-.14-2.07c-.14-.56-.13-.64-.07-.71.41-.48.56-.65,1.87.45C70.14,84.8,70.14,84.8,69.82,85.47ZM20.64,109c-.07.11-.14.22-.2.33a54.26,54.26,0,0,0-6.3,14.79c-1.66-.67-4.87-2.53-4.29-6.74.81-5.89,3.93-8,6.58-8A26,26,0,0,0,20.64,109Zm42.09,64c-.15.5-.28.91-.42,1.32a6.58,6.58,0,0,1-2.8-.07,1,1,0,0,0-1.23.61,1,1,0,0,0,.61,1.23,8,8,0,0,0,2.24.31l.4,0c-.9,2-1.64,2.1-2.93,2.23a3,3,0,0,1-2.59-.61h0c.06-.31.59-2.8,1.31-6.22a11.69,11.69,0,0,0,4.89,1.11c.19,0,.39-.05.58-.06Zm.07,6.49c.08.33.2.8.36,1.59.48,2.32.73,4.17-.61,5.07a4.77,4.77,0,0,1-3.26.81c-.42,0-.85,0-1.33,0a28.5,28.5,0,0,0-5.75,1.51c-1.06.35-2.12.69-3,.95-2.81.79-3.94,1-5.57.85-.06,0-.28-.21-.42-.8-.37-1.52.12-3.81,1.39-4.66a34.43,34.43,0,0,1,3-1.7c3.53-1.85,5.69-3.09,6-4.72a9.47,9.47,0,0,0,.13-1.51h0c.23,0,.29.11.31.14a1,1,0,0,1,.08.58h0a2,2,0,0,0,.52,1.75,4.75,4.75,0,0,0,3.45,1.2,7.09,7.09,0,0,0,.79,0,4.25,4.25,0,0,0,3.74-2.08A6,6,0,0,0,62.8,179.55Zm.59-8.66a9.91,9.91,0,0,1-5.66-1c1.72-8.09,4.16-19.59,4.78-22.54l1.72.07a51.65,51.65,0,0,1,7.12.61C70.42,150.09,67.76,156.6,63.39,170.89Zm39.92-14c-6.09,1.25-9.42-4.69-10.47-7A30,30,0,0,0,103,146.73h0c.08,0,6.14-2,12.77-5.07a9.88,9.88,0,0,1,3.38,5.45c0,.09.09.14.13.22C114.69,151.24,108.16,155.89,103.31,156.89ZM120.85,146a11.75,11.75,0,0,0-3.15-5.2l1.42-.7a4.72,4.72,0,0,1,1.77,1.93,1,1,0,0,0,.91.64.89.89,0,0,0,.32-.05,1,1,0,0,0,.6-1.23,6,6,0,0,0-1.7-2.28l.08-.05h.05s0,0,0,0l.87-.47c.3-.15.81.19,1,.3a4.19,4.19,0,0,1,1.73,3A21.15,21.15,0,0,1,120.85,146Zm2.44-11.26c1.34-1.95,2.5-3.41,4.06-3.09a4.77,4.77,0,0,1,2.86,1.79c.29.3.59.61.94.93a29.12,29.12,0,0,0,5.09,3.09c1,.52,2,1,2.79,1.51,2.36,1.38,3.45,2.05,4.49,3.42,0,0,0,.34-.28.85-.84,1.32-2.82,2.56-4.32,2.25-.9-.19-2.08-.59-3.33-1-3.78-1.25-6.17-1.94-7.55-1a9.18,9.18,0,0,0-1.18,1h0a2.31,2.31,0,0,1-.4-1.75h0a2.43,2.43,0,0,0,.17-.39c.33-1.66-1-3.92-2.48-5a3.12,3.12,0,0,0-2.06-.69l.32-.49C122.58,135.78,122.83,135.37,123.29,134.69Zm-18.84,6.92a18,18,0,0,1,.65,1.76c-2.45,1.49-8.24,4.61-13.63,4.7-6.28.1-6.64-.17-7.75-1.1-.65-.54-.63-4.61-.62-7.31,0-.6,0-1.21,0-1.82a.14.14,0,0,0,0-.09c0-.59,0-1.19,0-1.78,0-1.81.33-11.34.48-13.5a1,1,0,0,0-.9-1,1,1,0,0,0-1,.9c-.15,2.24-.52,11.77-.48,13.67,0,.59,0,1.19,0,1.78-.19,3.65-1.09,9.15-2.48,10.05a.37.37,0,0,1-.41,0,39.12,39.12,0,0,0-14-2.41c-2.33-.06-4.33-.11-4.4-.8-.2-1.89,2.26-9.71,4.23-16,1.18-3.76,2.3-7.31,3-9.87.75-2.87,1.85-6.68,2.91-10.39,1.24-4.31,2.41-8.38,3-10.82a22.8,22.8,0,0,0,.34-2.84c0-.25,0-.44,0-.51a3.37,3.37,0,0,1,1.19-1.86c.24-.24.46-.47.64-.69.49-.65.94-2.07.86-8.05-.06-3.92,1.11-12.77,2-15a3,3,0,0,1,.49-.92s.09,0,.12-.06,0-.09.05-.13a2.94,2.94,0,0,1,1.48-.22c.46,0,1,0,1.6-.09a6.86,6.86,0,0,1,1,0,4.53,4.53,0,0,0-.93,2,123,123,0,0,0-1.69,22.35,5.15,5.15,0,0,0,4,5c1.73.38,6.07,1.19,9.15.35a4.93,4.93,0,0,0,3.12-2.85c2-4.7,4.52-16.57,5.46-21l.2-1a7,7,0,0,0,.2-1.51.91.91,0,0,0,0-.63,2.52,2.52,0,0,1,1-.08l.75.08c.49,0,1.16.12,1.29.31,0,1.13-1.34,6.27-2.53,10.8-2.24,8.54-2.9,11.35-2.64,12.31.46,1.72,1.21,2.38,2.2,2.68a16.25,16.25,0,0,1-1,3.71c-.28.72-.15,2.71.45,9.18.33,3.67.68,7.45.67,9.44,0,.89,0,2.07,0,3.43-.12,5.7-.28,13.51.65,16.46C103.59,139.49,104.06,140.66,104.45,141.61ZM109.2,85c-2.85,2.55-5.14,7.06-6.1,9.11-.44-.09-.74-.24-1-1.31-.11-.94,1.48-7,2.63-11.37,1.62-6.17,2.61-10,2.6-11.31,0-.06,0-.08,0-.14,1.46-.74,3.41-1.71,4.64-2.26a7.24,7.24,0,0,0,0,2.57A21.23,21.23,0,0,0,117.31,80,34.32,34.32,0,0,0,109.2,85Zm10-8.17a3.61,3.61,0,0,1,.23,2.21l-.06.15a7.2,7.2,0,0,1-1.94-2c.59-.2,1.16-.43,1.72-.68C119.12,76.6,119.09,76.71,119.15,76.8Zm22.93-29.46a3.45,3.45,0,0,0-.93.1c-1.07.33-2.3,2.55-3.15,4.36l-.11.25c-2.31,4.92-9.34,19.89-21.16,23.82-.08,0-.11.1-.17.15a17.3,17.3,0,0,1-2.7-6.08,5.31,5.31,0,0,1-.07-1.82,38.28,38.28,0,0,0,20.82-19.38,43.08,43.08,0,0,0,1.67-5.15c.63-2.24,1.5-5.31,2-5.87s5.21-2.25,6.08-2.25h0a1,1,0,0,1,0,.58,1.22,1.22,0,0,1-.49.79l-.27.15c-1.83,1-3.23,1.84-3.27,2.84v.32c0,1,0,4-1.32,4.89a.73.73,0,0,0,.84,1.19c1.93-1.34,1.94-4.78,2-6.07l0-.19a10.62,10.62,0,0,1,2.53-1.7l.28-.15a2,2,0,0,0,.32-.27l-.19,1.51a3.37,3.37,0,0,0-2.15.89,1.41,1.41,0,0,0-.29,1.09,1.45,1.45,0,0,0,1,1.12s0,0,0,0a1.44,1.44,0,0,0-.3,1.15,1.56,1.56,0,0,0,.95,1.14s-.09,0-.11.06a1.41,1.41,0,0,0-.27,1.08,1.36,1.36,0,0,0,.54.92l.11,0A4.21,4.21,0,0,1,142.08,47.34Zm6.75-2.09c0,.39-.44.5-1.64.65l-.41.06c-1.32.18-1.79.06-2-.2a.31.31,0,0,1,0-.16c.15-.19.93-.25,1.39-.29l.52,0,.3,0c.29,0,.91-.1,1.36-.1a1,1,0,0,1,.5.08S148.84,45.22,148.83,45.25Z"/><circle class="cls-13" cx="48.68" cy="82.06" r="1.27"/></g></g></g></g></svg>