<svg xmlns="http://www.w3.org/2000/svg" viewBox="0 0 200.31 86.17"><defs><style>.cls-1{fill:#fdf7cb;}.cls-2{fill:#929d42;}</style></defs><title>sodio-gluten-calorias</title><g id="Capa_2" data-name="Capa 2"><g id="Capa_1-2" data-name="Capa 1"><rect class="cls-1" width="200.31" height="86.17" rx="6.42"/><path class="cls-2" d="M46.85,17.24a3.34,3.34,0,0,1,1.52,1,2.47,2.47,0,0,1,.54,1.59,2.55,2.55,0,0,1-.54,1.62,2.79,2.79,0,0,1-1.5.94,2.9,2.9,0,0,1,1.78,1,3,3,0,0,1,.65,2,2.84,2.84,0,0,1-.55,1.74,3.55,3.55,0,0,1-1.59,1.15,6.8,6.8,0,0,1-2.41.4H38.91V16.87h5.62A6.76,6.76,0,0,1,46.85,17.24Zm-1.48,4a1.07,1.07,0,0,0,.37-.87,1,1,0,0,0-.37-.84,1.48,1.48,0,0,0-1-.27H42v2.29h2.36A1.49,1.49,0,0,0,45.37,21.27ZM45.64,26a1.08,1.08,0,0,0,.48-.94,1,1,0,0,0-.48-.89,2.12,2.12,0,0,0-1.28-.31H42V26.3h2.36A2.11,2.11,0,0,0,45.64,26Z"/><path class="cls-2" d="M58,20.32a3.06,3.06,0,0,1,1.06,2.44V28.7h-3v-1a3.3,3.3,0,0,1-2.75,1.16,3.19,3.19,0,0,1-2.28-.78A2.72,2.72,0,0,1,50.28,26a2.44,2.44,0,0,1,.9-2,4.08,4.08,0,0,1,2.59-.74h2.38v-.11a1.22,1.22,0,0,0-.45-1,2.09,2.09,0,0,0-1.29-.35,5.38,5.38,0,0,0-1.29.18,8.44,8.44,0,0,0-1.44.54l-.83-2A11.69,11.69,0,0,1,53,19.7a9.16,9.16,0,0,1,2.11-.25A4.48,4.48,0,0,1,58,20.32Zm-2.53,6.14a1.45,1.45,0,0,0,.64-.85v-.79H54.36c-.84,0-1.26.31-1.26.94a.94.94,0,0,0,.32.75,1.36,1.36,0,0,0,.91.28A2.12,2.12,0,0,0,55.51,26.46Z"/><path class="cls-2" d="M60.24,29.71a.83.83,0,0,0,.68-.29,1.28,1.28,0,0,0,.24-.84v-9h3V29a2.93,2.93,0,0,1-.87,2.24,3.31,3.31,0,0,1-2.35.81,5.74,5.74,0,0,1-2-.35l.59-2.14A3,3,0,0,0,60.24,29.71Zm3.5-13.89a1.69,1.69,0,0,1,0,2.3,1.48,1.48,0,0,1-1.13.46,1.5,1.5,0,0,1-1.14-.46,1.69,1.69,0,0,1,0-2.3,1.53,1.53,0,0,1,1.14-.45A1.51,1.51,0,0,1,63.74,15.82Z"/><path class="cls-2" d="M73.23,20.05A4.27,4.27,0,0,1,75,21.69a5.06,5.06,0,0,1,0,4.89,4.18,4.18,0,0,1-1.75,1.63,6.09,6.09,0,0,1-5.23,0,4.15,4.15,0,0,1-1.74-1.63,5.13,5.13,0,0,1,0-4.89A4.24,4.24,0,0,1,68,20.05a6.19,6.19,0,0,1,5.23,0Zm-4,2.47a2.78,2.78,0,0,0,0,3.29,1.77,1.77,0,0,0,1.42.63,1.79,1.79,0,0,0,1.43-.63,2.43,2.43,0,0,0,.54-1.65A2.38,2.38,0,0,0,72,22.52a1.83,1.83,0,0,0-1.42-.62A1.8,1.8,0,0,0,69.2,22.52Z"/><path class="cls-2" d="M88.32,20.79a5.14,5.14,0,0,1,1.2,3.61c0,.23,0,.41,0,.53H83.16a2.19,2.19,0,0,0,.76,1.19,2.08,2.08,0,0,0,1.31.42,2.78,2.78,0,0,0,1.14-.24,3.36,3.36,0,0,0,1-.69l1.56,1.57a4.5,4.5,0,0,1-1.71,1.2A5.81,5.81,0,0,1,85,28.8a5.37,5.37,0,0,1-2.56-.58,4,4,0,0,1-1.68-1.62,5,5,0,0,1-.58-2.42,5,5,0,0,1,.59-2.47,4.11,4.11,0,0,1,1.67-1.66,5.27,5.27,0,0,1,2.5-.58A4.39,4.39,0,0,1,88.32,20.79ZM86.6,23.33a1.74,1.74,0,0,0-.46-1.27,1.77,1.77,0,0,0-2.41,0,2.36,2.36,0,0,0-.64,1.28Z"/><path class="cls-2" d="M99.47,20.4a3.51,3.51,0,0,1,.91,2.55V28.7h-3V23.8A1.72,1.72,0,0,0,97,22.58a1.47,1.47,0,0,0-1.13-.44,1.74,1.74,0,0,0-1.22.48,2.05,2.05,0,0,0-.57,1.25V28.7h-3V19.57h3v1.49a3.29,3.29,0,0,1,1.26-1.2,3.72,3.72,0,0,1,1.76-.41A3.16,3.16,0,0,1,99.47,20.4Z"/><path class="cls-2" d="M27.3,41.13a5.87,5.87,0,0,0-1.8-.36,1.66,1.66,0,0,0-.9.21.69.69,0,0,0-.33.62.86.86,0,0,0,.29.65,2.23,2.23,0,0,0,.71.42c.28.11.69.24,1.24.41a16,16,0,0,1,2,.71,3.54,3.54,0,0,1,1.38,1.09,3,3,0,0,1,.57,1.91,3.32,3.32,0,0,1-.62,2,3.86,3.86,0,0,1-1.71,1.25,6.68,6.68,0,0,1-2.42.43A8.83,8.83,0,0,1,22.81,50a7.92,7.92,0,0,1-2.52-1.41l1.2-2.41a7.43,7.43,0,0,0,2.11,1.3,5.77,5.77,0,0,0,2.17.51,2,2,0,0,0,1.09-.26.83.83,0,0,0,.4-.74.86.86,0,0,0-.3-.67,2.06,2.06,0,0,0-.74-.43c-.3-.11-.72-.24-1.26-.38a14.89,14.89,0,0,1-2-.69,3.49,3.49,0,0,1-1.35-1A2.87,2.87,0,0,1,21,41.89,3.27,3.27,0,0,1,21.62,40a3.63,3.63,0,0,1,1.65-1.27,6.34,6.34,0,0,1,2.48-.45,8.71,8.71,0,0,1,2.53.37,8.05,8.05,0,0,1,2.2,1L29.31,42A10.14,10.14,0,0,0,27.3,41.13Z"/><path class="cls-2" d="M41,39.09a5.84,5.84,0,0,1,3.13,5.27,6,6,0,0,1-.83,3.14A6,6,0,0,1,41,49.71a6.57,6.57,0,0,1-3.26.81,6.7,6.7,0,0,1-3.26-.8,5.93,5.93,0,0,1-2.29-2.21,6,6,0,0,1-.84-3.15,5.89,5.89,0,0,1,3.13-5.27,7,7,0,0,1,6.52,0ZM36.1,41.36a3.35,3.35,0,0,0-1.19,1.26,3.62,3.62,0,0,0-.44,1.76,3.57,3.57,0,0,0,.45,1.78,3.46,3.46,0,0,0,1.19,1.27,3.07,3.07,0,0,0,3.23,0,3.28,3.28,0,0,0,1.15-1.27,3.77,3.77,0,0,0,.42-1.78,3.72,3.72,0,0,0-.42-1.76,3.25,3.25,0,0,0-1.15-1.26,3,3,0,0,0-1.61-.45A3.1,3.1,0,0,0,36.1,41.36Z"/><path class="cls-2" d="M54,39.22a5.5,5.5,0,0,1,2.22,2.08,6.38,6.38,0,0,1,0,6.17,5.5,5.5,0,0,1-2.26,2.09,7.34,7.34,0,0,1-3.35.74h-5V38.48h5.09A7,7,0,0,1,54,39.22Zm-1.61,8.16a2.9,2.9,0,0,0,1.08-1.19,3.9,3.9,0,0,0,.39-1.77,3.67,3.67,0,0,0-.42-1.79,3,3,0,0,0-1.13-1.21A3.28,3.28,0,0,0,50.64,41H48.7V47.8h2.09A3,3,0,0,0,52.38,47.38Z"/><path class="cls-2" d="M58.53,38.48h3.09V50.3H58.53Z"/><path class="cls-2" d="M72.81,39.09a5.89,5.89,0,0,1,3.13,5.27,6,6,0,0,1-.84,3.14,6.08,6.08,0,0,1-2.29,2.21,6.61,6.61,0,0,1-3.27.81,6.7,6.7,0,0,1-3.26-.8,6,6,0,0,1-3.13-5.36,5.89,5.89,0,0,1,3.13-5.27,7.06,7.06,0,0,1,6.53,0ZM68,41.36a3.35,3.35,0,0,0-1.19,1.26,3.62,3.62,0,0,0-.44,1.76,3.58,3.58,0,0,0,1.64,3,3.07,3.07,0,0,0,3.23,0,3.28,3.28,0,0,0,1.15-1.27,3.78,3.78,0,0,0,.43-1.78,3.73,3.73,0,0,0-.43-1.76,3.25,3.25,0,0,0-1.15-1.26,3,3,0,0,0-1.61-.45A3.1,3.1,0,0,0,68,41.36Z"/><path class="cls-2" d="M84.74,53.09a3.71,3.71,0,0,1-2.18.62,4.3,4.3,0,0,1-1.41-.23,4.38,4.38,0,0,1-1.29-.72l1.25-2.07a2.56,2.56,0,0,0,.61.39,1.74,1.74,0,0,0,.61.11,1.15,1.15,0,0,0,1.09-.69l.22-.42-3.78-8.9H83l2.17,5.93,1.94-5.93h3l-3.91,10A4.17,4.17,0,0,1,84.74,53.09Z"/><path class="cls-2" d="M98,43.13a1.12,1.12,0,0,0-.62.15.46.46,0,0,0-.24.43.56.56,0,0,0,.37.49,7.78,7.78,0,0,0,1.18.4,13.59,13.59,0,0,1,1.63.57,2.86,2.86,0,0,1,1.12.84,2.25,2.25,0,0,1,.47,1.47,2.51,2.51,0,0,1-1.07,2.17,4.61,4.61,0,0,1-2.79.78,7.41,7.41,0,0,1-2.22-.32,6,6,0,0,1-1.89-1l.94-1.94A6.43,6.43,0,0,0,96.5,48a4.84,4.84,0,0,0,1.61.3,1.43,1.43,0,0,0,.7-.15.45.45,0,0,0,.26-.41.58.58,0,0,0-.38-.52,6.81,6.81,0,0,0-1.19-.41,13.77,13.77,0,0,1-1.58-.56,3,3,0,0,1-1.09-.84A2.17,2.17,0,0,1,94.37,44a2.53,2.53,0,0,1,1-2.16,4.35,4.35,0,0,1,2.7-.79,7.24,7.24,0,0,1,2,.27,7.11,7.11,0,0,1,1.83.8l-1,2A6.68,6.68,0,0,0,98,43.13Z"/><path class="cls-2" d="M106.13,37.43a1.57,1.57,0,0,1,.44,1.15,1.62,1.62,0,0,1-.44,1.15,1.67,1.67,0,0,1-2.28,0,1.58,1.58,0,0,1-.45-1.15,1.61,1.61,0,0,1,2.73-1.15Zm-2.61,3.75h3V50.3h-3Z"/><path class="cls-2" d="M117.22,42a3.54,3.54,0,0,1,.9,2.55V50.3h-3V45.41a1.71,1.71,0,0,0-.42-1.22,1.48,1.48,0,0,0-1.13-.45,1.73,1.73,0,0,0-1.22.49,2,2,0,0,0-.57,1.25V50.3h-3V41.18h3v1.48a3.22,3.22,0,0,1,1.26-1.2,3.71,3.71,0,0,1,1.76-.4A3.16,3.16,0,0,1,117.22,42Z"/><path class="cls-2" d="M43.67,65.87h2.66v4.7A7.77,7.77,0,0,1,44,71.69a8.68,8.68,0,0,1-2.61.43,6.48,6.48,0,0,1-3.23-.8,5.85,5.85,0,0,1-2.27-2.2A6,6,0,0,1,35.09,66a5.79,5.79,0,0,1,.85-3.11,6,6,0,0,1,2.34-2.19,7,7,0,0,1,3.33-.79,7.58,7.58,0,0,1,2.63.48,6.85,6.85,0,0,1,2.23,1.29l-1.75,2.16a4.72,4.72,0,0,0-1.48-1,4.12,4.12,0,0,0-1.64-.36,3.24,3.24,0,0,0-2.9,1.71A3.47,3.47,0,0,0,38.26,66a3.57,3.57,0,0,0,.44,1.79A3.12,3.12,0,0,0,39.91,69a3.37,3.37,0,0,0,1.72.45,4.65,4.65,0,0,0,2-.57Z"/><path class="cls-2" d="M48.37,60.08h3.09v9.19h5v2.64h-8.1Z"/><path class="cls-2" d="M61.41,68.82a2.22,2.22,0,0,0,1.67.67,2.1,2.1,0,0,0,1.61-.66A2.57,2.57,0,0,0,65.3,67v-7h3.09v7a5.44,5.44,0,0,1-.65,2.69,4.41,4.41,0,0,1-1.85,1.78,6.79,6.79,0,0,1-5.67,0,4.51,4.51,0,0,1-1.89-1.78A5.34,5.34,0,0,1,57.66,67v-7h3.09v7A2.46,2.46,0,0,0,61.41,68.82Z"/><path class="cls-2" d="M69.47,60.08H79.6v2.55H76.06v9.28H73V62.63H69.47Z"/><path class="cls-2" d="M80.85,60.08h9.33v2.47H83.94v2.21h5.63V67.2l-5.63,0v2.22h6.4v2.47H80.85Z"/><path class="cls-2" d="M100.31,60.08h2.87V71.91h-2.7l-5.36-7.07v7.07H92.23V60.08H95l5.38,7.12Z"/><path class="cls-2" d="M193.89,0H138.41V86.17h55.48a6.42,6.42,0,0,0,6.42-6.42V6.42A6.42,6.42,0,0,0,193.89,0Z"/><path class="cls-1" d="M157.74,17.36a6.28,6.28,0,0,0-1.9-.37,1.75,1.75,0,0,0-1,.22.74.74,0,0,0-.35.65.86.86,0,0,0,.31.69,2.3,2.3,0,0,0,.75.45c.29.11.73.26,1.32.43a18,18,0,0,1,2.15.75,3.76,3.76,0,0,1,1.45,1.16,3.14,3.14,0,0,1,.61,2,3.46,3.46,0,0,1-.66,2.13,4,4,0,0,1-1.81,1.33,7,7,0,0,1-2.56.45,9.09,9.09,0,0,1-3.1-.55,8.25,8.25,0,0,1-2.67-1.49l1.27-2.55a8,8,0,0,0,2.24,1.38,6.19,6.19,0,0,0,2.29.53,2.1,2.1,0,0,0,1.15-.27.86.86,0,0,0,.42-.78.9.9,0,0,0-.31-.71,2.26,2.26,0,0,0-.79-.46c-.31-.11-.75-.25-1.33-.4a17.78,17.78,0,0,1-2.12-.72,3.88,3.88,0,0,1-1.44-1.11,3.08,3.08,0,0,1-.59-2,3.46,3.46,0,0,1,.61-2,3.92,3.92,0,0,1,1.75-1.34,6.71,6.71,0,0,1,2.63-.48,9.39,9.39,0,0,1,2.68.39,8.62,8.62,0,0,1,2.32,1l-1.23,2.61A11.4,11.4,0,0,0,157.74,17.36Z"/><path class="cls-1" d="M170,17.93a4.44,4.44,0,0,1,1.86,1.73,5.39,5.39,0,0,1,0,5.17A4.44,4.44,0,0,1,170,26.56a5.91,5.91,0,0,1-2.76.62,6,6,0,0,1-2.77-.62,4.42,4.42,0,0,1-1.85-1.73,5.47,5.47,0,0,1,0-5.17,4.42,4.42,0,0,1,1.85-1.73,6,6,0,0,1,2.77-.62A5.91,5.91,0,0,1,170,17.93Zm-4.26,2.61a2.56,2.56,0,0,0-.57,1.73,2.58,2.58,0,0,0,.57,1.75,2,2,0,0,0,3,0,2.53,2.53,0,0,0,.58-1.75,2.56,2.56,0,0,0-.58-1.73,1.92,1.92,0,0,0-1.51-.66A1.89,1.89,0,0,0,165.76,20.54Z"/><path class="cls-1" d="M174.25,13.83h3.18V27.07h-3.18Z"/><path class="cls-1" d="M187.19,17.93a4.44,4.44,0,0,1,1.86,1.73,5.39,5.39,0,0,1,0,5.17,4.44,4.44,0,0,1-1.86,1.73,6.48,6.48,0,0,1-5.53,0,4.42,4.42,0,0,1-1.85-1.73,5.47,5.47,0,0,1,0-5.17,4.42,4.42,0,0,1,1.85-1.73,6.48,6.48,0,0,1,5.53,0Zm-4.26,2.61a2.56,2.56,0,0,0-.57,1.73,2.58,2.58,0,0,0,.57,1.75,2,2,0,0,0,3,0,2.58,2.58,0,0,0,.57-1.75,2.51,2.51,0,0,0-.58-1.73,2,2,0,0,0-3,0Z"/><path class="cls-1" d="M147.41,36h8.28V54.23h-4.76V39.87h-3.52Z"/><path class="cls-1" d="M171.84,45.1a4.52,4.52,0,0,1,1.34,3.37,5.46,5.46,0,0,1-.91,3.1,6,6,0,0,1-2.58,2.11,9.34,9.34,0,0,1-3.91.76,13.34,13.34,0,0,1-3.95-.61,10.65,10.65,0,0,1-3.27-1.63l1.77-3.36a8.6,8.6,0,0,0,2.45,1.46,7.31,7.31,0,0,0,2.61.49,3.86,3.86,0,0,0,2.32-.59,2,2,0,0,0,.8-1.68,1.91,1.91,0,0,0-.8-1.66,4,4,0,0,0-2.35-.58h-3.07v-2.6l4.22-4.07h-7V36h12.77v2.76l-5,4.56,1,.18A6.15,6.15,0,0,1,171.84,45.1Z"/><path class="cls-1" d="M189.22,38.21c1.39,1.59,2.09,3.89,2.09,6.87s-.7,5.29-2.09,6.9a8.7,8.7,0,0,1-12,0q-2.08-2.41-2.09-6.9c0-3,.7-5.28,2.09-6.87a8.72,8.72,0,0,1,12,0Zm-8.46,2.48a9.52,9.52,0,0,0-.75,4.39,9.58,9.58,0,0,0,.75,4.42,2.91,2.91,0,0,0,4.91,0,9.42,9.42,0,0,0,.77-4.41,9.35,9.35,0,0,0-.77-4.39,2.6,2.6,0,0,0-2.43-1.34A2.63,2.63,0,0,0,180.76,40.69Z"/><path class="cls-1" d="M162.44,67.06a1.72,1.72,0,0,0-1.39.65,2.58,2.58,0,0,0-.54,1.69,2.52,2.52,0,0,0,.54,1.69,1.72,1.72,0,0,0,1.39.65,2,2,0,0,0,1.89-1.09L166.67,72A4,4,0,0,1,165,73.7a5.73,5.73,0,0,1-2.68.61,5.47,5.47,0,0,1-2.61-.61A4.28,4.28,0,0,1,157.93,72a5.22,5.22,0,0,1-.61-2.57,5.42,5.42,0,0,1,.62-2.62,4.36,4.36,0,0,1,1.76-1.75,5.41,5.41,0,0,1,2.61-.61,5.33,5.33,0,0,1,2.57.6,4.23,4.23,0,0,1,1.75,1.68l-2.3,1.34A2.15,2.15,0,0,0,162.44,67.06Z"/><path class="cls-1" d="M175.43,65.34a3.23,3.23,0,0,1,1.13,2.58V74.2h-3.13V73.11a3.46,3.46,0,0,1-2.91,1.23,3.33,3.33,0,0,1-2.41-.83,2.85,2.85,0,0,1-.89-2.18,2.61,2.61,0,0,1,1-2.15,4.34,4.34,0,0,1,2.74-.78h2.51v-.11a1.3,1.3,0,0,0-.47-1.07,2.16,2.16,0,0,0-1.36-.37,5.48,5.48,0,0,0-1.37.19,8.17,8.17,0,0,0-1.53.57l-.87-2.14a12.74,12.74,0,0,1,2.26-.79,9.67,9.67,0,0,1,2.24-.26A4.74,4.74,0,0,1,175.43,65.34Zm-2.68,6.5a1.52,1.52,0,0,0,.68-.91V70.1h-1.89c-.89,0-1.34.33-1.34,1a1,1,0,0,0,.35.8,1.47,1.47,0,0,0,1,.29A2.22,2.22,0,0,0,172.75,71.84Z"/><path class="cls-1" d="M178.79,61H182V74.2h-3.17Z"/></g></g></svg>